%TF.GenerationSoftware,KiCad,Pcbnew,(6.99.0-874-g7b84e0a7d9-dirty)*%
%TF.CreationDate,2022-02-16T19:00:37-05:00*%
%TF.ProjectId,MotorcycleBatterIsolator,4d6f746f-7263-4796-936c-654261747465,rev?*%
%TF.SameCoordinates,Original*%
%TF.FileFunction,Paste,Top*%
%TF.FilePolarity,Positive*%
%FSLAX46Y46*%
G04 Gerber Fmt 4.6, Leading zero omitted, Abs format (unit mm)*
G04 Created by KiCad (PCBNEW (6.99.0-874-g7b84e0a7d9-dirty)) date 2022-02-16 19:00:37*
%MOMM*%
%LPD*%
G01*
G04 APERTURE LIST*
G04 Aperture macros list*
%AMRoundRect*
0 Rectangle with rounded corners*
0 $1 Rounding radius*
0 $2 $3 $4 $5 $6 $7 $8 $9 X,Y pos of 4 corners*
0 Add a 4 corners polygon primitive as box body*
4,1,4,$2,$3,$4,$5,$6,$7,$8,$9,$2,$3,0*
0 Add four circle primitives for the rounded corners*
1,1,$1+$1,$2,$3*
1,1,$1+$1,$4,$5*
1,1,$1+$1,$6,$7*
1,1,$1+$1,$8,$9*
0 Add four rect primitives between the rounded corners*
20,1,$1+$1,$2,$3,$4,$5,0*
20,1,$1+$1,$4,$5,$6,$7,0*
20,1,$1+$1,$6,$7,$8,$9,0*
20,1,$1+$1,$8,$9,$2,$3,0*%
%AMFreePoly0*
4,1,9,3.862500,-0.866500,0.737500,-0.866500,0.737500,-0.450000,-0.737500,-0.450000,-0.737500,0.450000,0.737500,0.450000,0.737500,0.866500,3.862500,0.866500,3.862500,-0.866500,3.862500,-0.866500,$1*%
G04 Aperture macros list end*
%ADD10RoundRect,0.225000X-0.225000X-0.250000X0.225000X-0.250000X0.225000X0.250000X-0.225000X0.250000X0*%
%ADD11RoundRect,0.150000X0.825000X0.150000X-0.825000X0.150000X-0.825000X-0.150000X0.825000X-0.150000X0*%
%ADD12RoundRect,0.200000X0.200000X0.275000X-0.200000X0.275000X-0.200000X-0.275000X0.200000X-0.275000X0*%
%ADD13RoundRect,0.225000X-0.250000X0.225000X-0.250000X-0.225000X0.250000X-0.225000X0.250000X0.225000X0*%
%ADD14R,0.900000X1.300000*%
%ADD15FreePoly0,90.000000*%
%ADD16RoundRect,0.162500X-0.825000X-0.162500X0.825000X-0.162500X0.825000X0.162500X-0.825000X0.162500X0*%
%ADD17RoundRect,0.200000X-0.200000X-0.275000X0.200000X-0.275000X0.200000X0.275000X-0.200000X0.275000X0*%
%ADD18RoundRect,0.200000X0.275000X-0.200000X0.275000X0.200000X-0.275000X0.200000X-0.275000X-0.200000X0*%
%ADD19R,0.600000X1.450000*%
%ADD20R,0.300000X1.450000*%
%ADD21R,0.850000X1.100000*%
%ADD22R,0.750000X1.100000*%
%ADD23R,1.200000X1.000000*%
%ADD24R,1.550000X1.350000*%
%ADD25R,1.900000X1.350000*%
%ADD26R,1.170000X1.800000*%
%ADD27R,2.750000X3.050000*%
%ADD28R,1.200000X2.200000*%
%ADD29RoundRect,0.200000X-0.275000X0.200000X-0.275000X-0.200000X0.275000X-0.200000X0.275000X0.200000X0*%
%ADD30RoundRect,0.225000X0.225000X0.250000X-0.225000X0.250000X-0.225000X-0.250000X0.225000X-0.250000X0*%
%ADD31RoundRect,0.250000X0.250000X0.475000X-0.250000X0.475000X-0.250000X-0.475000X0.250000X-0.475000X0*%
%ADD32R,2.500000X1.800000*%
%ADD33R,1.700000X1.300000*%
%ADD34R,1.300000X1.700000*%
%ADD35RoundRect,0.150000X0.587500X0.150000X-0.587500X0.150000X-0.587500X-0.150000X0.587500X-0.150000X0*%
%ADD36R,1.800000X2.500000*%
%ADD37R,2.400000X2.000000*%
%ADD38R,1.700000X1.000000*%
%ADD39RoundRect,0.218750X0.256250X-0.218750X0.256250X0.218750X-0.256250X0.218750X-0.256250X-0.218750X0*%
%ADD40RoundRect,0.250000X0.292217X-0.292217X0.292217X0.292217X-0.292217X0.292217X-0.292217X-0.292217X0*%
%ADD41RoundRect,0.050000X0.050000X-0.387500X0.050000X0.387500X-0.050000X0.387500X-0.050000X-0.387500X0*%
%ADD42RoundRect,0.050000X0.387500X-0.050000X0.387500X0.050000X-0.387500X0.050000X-0.387500X-0.050000X0*%
%ADD43RoundRect,0.250000X-0.362500X-1.425000X0.362500X-1.425000X0.362500X1.425000X-0.362500X1.425000X0*%
%ADD44RoundRect,0.225000X0.250000X-0.225000X0.250000X0.225000X-0.250000X0.225000X-0.250000X-0.225000X0*%
%ADD45RoundRect,0.500000X0.500000X3.500000X-0.500000X3.500000X-0.500000X-3.500000X0.500000X-3.500000X0*%
%ADD46RoundRect,0.218750X0.218750X0.256250X-0.218750X0.256250X-0.218750X-0.256250X0.218750X-0.256250X0*%
%ADD47RoundRect,0.150000X0.150000X-0.650000X0.150000X0.650000X-0.150000X0.650000X-0.150000X-0.650000X0*%
G04 APERTURE END LIST*
D10*
%TO.C,C11*%
X147025000Y-120700000D03*
X148575000Y-120700000D03*
%TD*%
D11*
%TO.C,U4*%
X152225000Y-143655000D03*
X152225000Y-142385000D03*
X152225000Y-141115000D03*
X152225000Y-139845000D03*
X147275000Y-139845000D03*
X147275000Y-141115000D03*
X147275000Y-142385000D03*
X147275000Y-143655000D03*
%TD*%
D12*
%TO.C,R11*%
X141325000Y-168750000D03*
X139675000Y-168750000D03*
%TD*%
D13*
%TO.C,C1*%
X132367500Y-164525000D03*
X132367500Y-166075000D03*
%TD*%
%TO.C,C22*%
X138000000Y-130535000D03*
X138000000Y-132085000D03*
%TD*%
D12*
%TO.C,R18*%
X135325000Y-122350000D03*
X133675000Y-122350000D03*
%TD*%
D14*
%TO.C,U2*%
X131499999Y-132899999D03*
D15*
X133000000Y-132812500D03*
D14*
X134499999Y-132899999D03*
%TD*%
D16*
%TO.C,U1*%
X134830000Y-163145000D03*
X134830000Y-164415000D03*
X134830000Y-165685000D03*
X134830000Y-166955000D03*
X139905000Y-166955000D03*
X139905000Y-165685000D03*
X139905000Y-164415000D03*
X139905000Y-163145000D03*
%TD*%
D17*
%TO.C,R29*%
X147425000Y-136250000D03*
X149075000Y-136250000D03*
%TD*%
D18*
%TO.C,R15*%
X150000000Y-117825000D03*
X150000000Y-116175000D03*
%TD*%
D19*
%TO.C,J5*%
X133499999Y-110544999D03*
X132699999Y-110544999D03*
D20*
X131499999Y-110544999D03*
X130499999Y-110544999D03*
X129999999Y-110544999D03*
X128999999Y-110544999D03*
D19*
X127799999Y-110544999D03*
X126999999Y-110544999D03*
X126999999Y-110544999D03*
X127799999Y-110544999D03*
D20*
X128499999Y-110544999D03*
X129499999Y-110544999D03*
X130999999Y-110544999D03*
X131999999Y-110544999D03*
D19*
X132699999Y-110544999D03*
X133499999Y-110544999D03*
%TD*%
D10*
%TO.C,C14*%
X136975000Y-119150000D03*
X138525000Y-119150000D03*
%TD*%
D18*
%TO.C,R17*%
X145500000Y-131635000D03*
X145500000Y-129985000D03*
%TD*%
D14*
%TO.C,U6*%
X125999999Y-132899999D03*
D15*
X127500000Y-132812500D03*
D14*
X128999999Y-132899999D03*
%TD*%
D13*
%TO.C,C6*%
X125000000Y-118785000D03*
X125000000Y-120335000D03*
%TD*%
D21*
%TO.C,J2*%
X139894999Y-106609999D03*
X140994999Y-106609999D03*
X142094999Y-106609999D03*
X143194999Y-106609999D03*
X144294999Y-106609999D03*
X145394999Y-106609999D03*
X146494999Y-106609999D03*
D22*
X147544999Y-106609999D03*
D23*
X137259999Y-112759999D03*
X137259999Y-116459999D03*
D24*
X137434999Y-106734999D03*
D25*
X140759999Y-117434999D03*
X146729999Y-117434999D03*
D26*
X148754999Y-106959999D03*
%TD*%
D13*
%TO.C,C10*%
X151250000Y-125285000D03*
X151250000Y-126835000D03*
%TD*%
D27*
%TO.C,Q6*%
X118699999Y-150349999D03*
X121749999Y-150349999D03*
X118699999Y-146999999D03*
X121749999Y-146999999D03*
D28*
X117944999Y-154974999D03*
X122504999Y-154974999D03*
%TD*%
D29*
%TO.C,R10*%
X119500000Y-124925000D03*
X119500000Y-126575000D03*
%TD*%
D30*
%TO.C,C3*%
X132525000Y-135250000D03*
X130975000Y-135250000D03*
%TD*%
D31*
%TO.C,C2*%
X144317500Y-166750000D03*
X142417500Y-166750000D03*
%TD*%
D32*
%TO.C,D1*%
X122499999Y-139249999D03*
X118499999Y-139249999D03*
%TD*%
D33*
%TO.C,D13*%
X150999999Y-132749999D03*
X150999999Y-136249999D03*
%TD*%
D18*
%TO.C,R22*%
X142050000Y-135775000D03*
X142050000Y-134125000D03*
%TD*%
D17*
%TO.C,R23*%
X150675000Y-138000000D03*
X152325000Y-138000000D03*
%TD*%
D34*
%TO.C,D12*%
X119249999Y-129749999D03*
X115749999Y-129749999D03*
%TD*%
D13*
%TO.C,C21*%
X143600000Y-130900000D03*
X143600000Y-132450000D03*
%TD*%
D30*
%TO.C,C12*%
X135275000Y-119250000D03*
X133725000Y-119250000D03*
%TD*%
%TO.C,C15*%
X135275000Y-117700000D03*
X133725000Y-117700000D03*
%TD*%
%TO.C,C16*%
X126500000Y-135250000D03*
X124950000Y-135250000D03*
%TD*%
D10*
%TO.C,C13*%
X142250000Y-119560000D03*
X143800000Y-119560000D03*
%TD*%
D35*
%TO.C,Q7*%
X117437500Y-126700000D03*
X117437500Y-124800000D03*
X115562500Y-125750000D03*
%TD*%
D36*
%TO.C,D8*%
X138999999Y-151999999D03*
X138999999Y-155999999D03*
%TD*%
D10*
%TO.C,C5*%
X133475000Y-114250000D03*
X135025000Y-114250000D03*
%TD*%
D29*
%TO.C,R13*%
X125000000Y-115175000D03*
X125000000Y-116825000D03*
%TD*%
D37*
%TO.C,Y1*%
X148499999Y-129909999D03*
X148499999Y-126209999D03*
%TD*%
D27*
%TO.C,Q3*%
X121524999Y-164674999D03*
X118474999Y-164674999D03*
X121524999Y-168024999D03*
X118474999Y-168024999D03*
D28*
X122279999Y-160049999D03*
X117719999Y-160049999D03*
%TD*%
D38*
%TO.C,SW4*%
X122399999Y-115399999D03*
X116099999Y-115399999D03*
X122399999Y-111599999D03*
X116099999Y-111599999D03*
%TD*%
%TO.C,SW3*%
X122399999Y-121899999D03*
X116099999Y-121899999D03*
X122399999Y-118099999D03*
X116099999Y-118099999D03*
%TD*%
D17*
%TO.C,R12*%
X133175000Y-168750000D03*
X134825000Y-168750000D03*
%TD*%
D36*
%TO.C,D10*%
X122249999Y-128749999D03*
X122249999Y-124749999D03*
%TD*%
D39*
%TO.C,D9*%
X143800000Y-135737500D03*
X143800000Y-134162500D03*
%TD*%
D30*
%TO.C,C4*%
X135525000Y-135250000D03*
X133975000Y-135250000D03*
%TD*%
D32*
%TO.C,D3*%
X122499999Y-142999999D03*
X118499999Y-142999999D03*
%TD*%
D12*
%TO.C,R27*%
X118825000Y-132500000D03*
X117175000Y-132500000D03*
%TD*%
D17*
%TO.C,R20*%
X126600000Y-113060000D03*
X128250000Y-113060000D03*
%TD*%
D10*
%TO.C,C8*%
X147475000Y-138000000D03*
X149025000Y-138000000D03*
%TD*%
D40*
%TO.C,U5*%
X140212500Y-125647500D03*
X141487500Y-125647500D03*
X140212500Y-124372500D03*
X141487500Y-124372500D03*
D41*
X138250000Y-128447500D03*
X138650000Y-128447500D03*
X139050000Y-128447500D03*
X139450000Y-128447500D03*
X139850000Y-128447500D03*
X140250000Y-128447500D03*
X140650000Y-128447500D03*
X141050000Y-128447500D03*
X141450000Y-128447500D03*
X141850000Y-128447500D03*
X142250000Y-128447500D03*
X142650000Y-128447500D03*
X143050000Y-128447500D03*
X143450000Y-128447500D03*
D42*
X144287500Y-127610000D03*
X144287500Y-127210000D03*
X144287500Y-126810000D03*
X144287500Y-126410000D03*
X144287500Y-126010000D03*
X144287500Y-125610000D03*
X144287500Y-125210000D03*
X144287500Y-124810000D03*
X144287500Y-124410000D03*
X144287500Y-124010000D03*
X144287500Y-123610000D03*
X144287500Y-123210000D03*
X144287500Y-122810000D03*
X144287500Y-122410000D03*
D41*
X143450000Y-121572500D03*
X143050000Y-121572500D03*
X142650000Y-121572500D03*
X142250000Y-121572500D03*
X141850000Y-121572500D03*
X141450000Y-121572500D03*
X141050000Y-121572500D03*
X140650000Y-121572500D03*
X140250000Y-121572500D03*
X139850000Y-121572500D03*
X139450000Y-121572500D03*
X139050000Y-121572500D03*
X138650000Y-121572500D03*
X138250000Y-121572500D03*
D42*
X137412500Y-122410000D03*
X137412500Y-122810000D03*
X137412500Y-123210000D03*
X137412500Y-123610000D03*
X137412500Y-124010000D03*
X137412500Y-124410000D03*
X137412500Y-124810000D03*
X137412500Y-125210000D03*
X137412500Y-125610000D03*
X137412500Y-126010000D03*
X137412500Y-126410000D03*
X137412500Y-126810000D03*
X137412500Y-127210000D03*
X137412500Y-127610000D03*
%TD*%
D27*
%TO.C,Q2*%
X128999999Y-164599999D03*
X125949999Y-164599999D03*
X128999999Y-167949999D03*
X125949999Y-167949999D03*
D28*
X129754999Y-159974999D03*
X125194999Y-159974999D03*
%TD*%
D38*
%TO.C,SW1*%
X146467499Y-163899999D03*
X152767499Y-163899999D03*
X146467499Y-167699999D03*
X152767499Y-167699999D03*
%TD*%
D13*
%TO.C,C20*%
X142000000Y-130925000D03*
X142000000Y-132475000D03*
%TD*%
D27*
%TO.C,Q5*%
X126199999Y-150349999D03*
X129249999Y-150349999D03*
X126199999Y-146999999D03*
X129249999Y-146999999D03*
D28*
X125444999Y-154974999D03*
X130004999Y-154974999D03*
%TD*%
D30*
%TO.C,C19*%
X129550000Y-135250000D03*
X128000000Y-135250000D03*
%TD*%
D12*
%TO.C,R1*%
X144192500Y-164500000D03*
X142542500Y-164500000D03*
%TD*%
D43*
%TO.C,R14*%
X136537500Y-143000000D03*
X142462500Y-143000000D03*
%TD*%
D39*
%TO.C,D11*%
X140350000Y-135712500D03*
X140350000Y-134137500D03*
%TD*%
D12*
%TO.C,R21*%
X135075000Y-112750000D03*
X133425000Y-112750000D03*
%TD*%
%TO.C,R26*%
X122075000Y-132500000D03*
X120425000Y-132500000D03*
%TD*%
D30*
%TO.C,C17*%
X135275000Y-123900000D03*
X133725000Y-123900000D03*
%TD*%
D32*
%TO.C,D7*%
X140749999Y-138999999D03*
X136749999Y-138999999D03*
%TD*%
D30*
%TO.C,C9*%
X135275000Y-125450000D03*
X133725000Y-125450000D03*
%TD*%
D10*
%TO.C,C18*%
X147000000Y-123810000D03*
X148550000Y-123810000D03*
%TD*%
D12*
%TO.C,R28*%
X148625000Y-122250000D03*
X146975000Y-122250000D03*
%TD*%
D32*
%TO.C,D2*%
X122499999Y-135499999D03*
X118499999Y-135499999D03*
%TD*%
D44*
%TO.C,C7*%
X151250000Y-130085000D03*
X151250000Y-128535000D03*
%TD*%
D18*
%TO.C,R25*%
X154500000Y-143075000D03*
X154500000Y-141425000D03*
%TD*%
%TO.C,R24*%
X138600000Y-135750000D03*
X138600000Y-134100000D03*
%TD*%
D12*
%TO.C,R19*%
X135325000Y-120800000D03*
X133675000Y-120800000D03*
%TD*%
D38*
%TO.C,SW2*%
X122399999Y-108899999D03*
X116099999Y-108899999D03*
X122399999Y-105099999D03*
X116099999Y-105099999D03*
%TD*%
D45*
%TO.C,R4*%
X131000000Y-140500000D03*
X125500000Y-140500000D03*
%TD*%
D17*
%TO.C,R30*%
X147425000Y-134750000D03*
X149075000Y-134750000D03*
%TD*%
D46*
%TO.C,D6*%
X138037500Y-168750000D03*
X136462500Y-168750000D03*
%TD*%
D29*
%TO.C,R16*%
X125000000Y-124925000D03*
X125000000Y-126575000D03*
%TD*%
D47*
%TO.C,U3*%
X127095000Y-126160000D03*
X128365000Y-126160000D03*
X129635000Y-126160000D03*
X130905000Y-126160000D03*
X130905000Y-118960000D03*
X129635000Y-118960000D03*
X128365000Y-118960000D03*
X127095000Y-118960000D03*
%TD*%
M02*
