%TF.GenerationSoftware,KiCad,Pcbnew,(6.99.0-874-g7b84e0a7d9-dirty)*%
%TF.CreationDate,2022-02-16T19:00:56-05:00*%
%TF.ProjectId,MotorcycleBatterIsolator,4d6f746f-7263-4796-936c-654261747465,rev?*%
%TF.SameCoordinates,Original*%
%TF.FileFunction,Plated,1,4,PTH,Mixed*%
%TF.FilePolarity,Positive*%
%FSLAX46Y46*%
G04 Gerber Fmt 4.6, Leading zero omitted, Abs format (unit mm)*
G04 Created by KiCad (PCBNEW (6.99.0-874-g7b84e0a7d9-dirty)) date 2022-02-16 19:00:56*
%MOMM*%
%LPD*%
G01*
G04 APERTURE LIST*
%TA.AperFunction,ViaDrill*%
%ADD10C,0.250000*%
%TD*%
%TA.AperFunction,ViaDrill*%
%ADD11C,0.300000*%
%TD*%
%TA.AperFunction,ComponentDrill*%
%ADD12C,0.350000*%
%TD*%
%TA.AperFunction,ViaDrill*%
%ADD13C,0.400000*%
%TD*%
G04 aperture for slot hole*
%TA.AperFunction,ComponentDrill*%
%ADD14O,0.600000X1.200000*%
%TD*%
G04 aperture for slot hole*
%TA.AperFunction,ComponentDrill*%
%ADD15O,0.600000X1.700000*%
%TD*%
%TA.AperFunction,ComponentDrill*%
%ADD16C,1.000000*%
%TD*%
G04 aperture for slot hole*
%TA.AperFunction,ComponentDrill*%
%ADD17O,1.270000X5.230000*%
%TD*%
%TA.AperFunction,ComponentDrill*%
%ADD18C,1.300000*%
%TD*%
%TA.AperFunction,ComponentDrill*%
%ADD19C,3.200000*%
%TD*%
G04 APERTURE END LIST*
D10*
X137750000Y-120300000D03*
X138405974Y-120030183D03*
X139051426Y-119957761D03*
X148000000Y-122900000D03*
X149359300Y-122190700D03*
D11*
X116400000Y-133300000D03*
X117950000Y-137300000D03*
X118500000Y-139250000D03*
X118550000Y-124800000D03*
X120500000Y-123300000D03*
X121600000Y-119050000D03*
X121800000Y-137150000D03*
X122750000Y-119650000D03*
X124400000Y-124000000D03*
X124900000Y-136000000D03*
X125100000Y-121150000D03*
X126550000Y-117700000D03*
X126600000Y-112200000D03*
X126700000Y-160900000D03*
X128750000Y-115200000D03*
X128800000Y-143400000D03*
X129300000Y-123100000D03*
X130000000Y-129650000D03*
X130600000Y-116250000D03*
X130975000Y-134125000D03*
X131450000Y-126600000D03*
X131650000Y-113300000D03*
X132800000Y-124550000D03*
X133150000Y-166900000D03*
X133400000Y-116650000D03*
X133431885Y-165721244D03*
X133500000Y-111650000D03*
X133850000Y-134350000D03*
X134350000Y-118450000D03*
X134550000Y-124650000D03*
X134600000Y-131750000D03*
X134700000Y-115850000D03*
X136150000Y-128550000D03*
X137100000Y-131350000D03*
X137650000Y-128300000D03*
X137999500Y-135308622D03*
X138000000Y-133500000D03*
X138550000Y-117950000D03*
X138850000Y-136700000D03*
X139550000Y-108650000D03*
X139550000Y-144150000D03*
X140750000Y-113100000D03*
X140850000Y-116450000D03*
X141149554Y-135399875D03*
X141300000Y-134150000D03*
X142700000Y-111900000D03*
X142850000Y-132500000D03*
X144300000Y-128400000D03*
X144438556Y-119111444D03*
X144716649Y-121204989D03*
X144724988Y-121954445D03*
X145250000Y-128550000D03*
X145400000Y-105600000D03*
X145600000Y-118750000D03*
X145750000Y-126700000D03*
X145800000Y-132800000D03*
X145850000Y-141100000D03*
X146029812Y-118135983D03*
X146100000Y-128300000D03*
X146250000Y-127550000D03*
X146414017Y-126120188D03*
X147000000Y-112750000D03*
X147349500Y-127811999D03*
X147500000Y-133850000D03*
X148050000Y-120650000D03*
X149350000Y-123750000D03*
X149850000Y-138000000D03*
X150150000Y-109250000D03*
X151250000Y-127650000D03*
X152600000Y-129950000D03*
X152650000Y-132000000D03*
X152650000Y-133950000D03*
X152700000Y-136100000D03*
X153600000Y-142650000D03*
X154450000Y-119350000D03*
X155000000Y-116000000D03*
X155000000Y-116800000D03*
X156050000Y-121200000D03*
D12*
%TO.C,U5*%
X139575000Y-123735000D03*
X139575000Y-125010000D03*
X139575000Y-126285000D03*
X140850000Y-123735000D03*
X140850000Y-125010000D03*
X140850000Y-126285000D03*
X142125000Y-123735000D03*
X142125000Y-125010000D03*
X142125000Y-126285000D03*
%TD*%
D13*
X121149500Y-122050000D03*
X123300000Y-120700000D03*
X125990734Y-125459266D03*
X127650000Y-136300000D03*
X129000000Y-133900000D03*
X134930438Y-129020940D03*
X136060000Y-124410000D03*
X136262500Y-118687500D03*
X136954100Y-130084807D03*
X136973533Y-121962732D03*
X137297299Y-129199500D03*
X139381090Y-130057653D03*
X139976228Y-119047164D03*
X140200427Y-119970923D03*
X141000000Y-129450000D03*
X141908545Y-129909987D03*
X142250000Y-168750000D03*
X142550000Y-163100000D03*
X142750000Y-167750000D03*
X142850000Y-131450000D03*
X142853736Y-130000359D03*
X143400000Y-140050000D03*
X143450000Y-117800000D03*
X144300000Y-145650000D03*
X144550000Y-140450000D03*
X144550000Y-144200000D03*
X145109266Y-161909266D03*
X145300000Y-138250000D03*
X145599500Y-116150000D03*
X145600000Y-137250000D03*
X145705000Y-143655000D03*
X146084102Y-115333473D03*
X146507915Y-124560500D03*
X146650000Y-136200000D03*
X146975897Y-122914251D03*
X147579224Y-131947757D03*
X150350000Y-139800000D03*
X150400000Y-119850000D03*
X150400000Y-121400000D03*
X150550000Y-141100000D03*
X150900000Y-118950000D03*
X154500500Y-120483020D03*
D14*
%TO.C,J5*%
X125929999Y-105449999D03*
D15*
X125929999Y-109629999D03*
D14*
X134569999Y-105449999D03*
D15*
X134569999Y-109629999D03*
D16*
%TO.C,BZ1*%
X107750000Y-136250000D03*
X114250000Y-136250000D03*
%TO.C,TH1*%
X151875000Y-111475000D03*
X151875000Y-114015000D03*
D17*
%TO.C,J1*%
X106197499Y-149599999D03*
X106197499Y-157499999D03*
X114117499Y-149599999D03*
X114117499Y-157499999D03*
%TO.C,J4*%
X134999999Y-150049999D03*
X134999999Y-157949999D03*
X142919999Y-150049999D03*
X142919999Y-157949999D03*
D18*
%TO.C,J1*%
X88017500Y-146160000D03*
X88017500Y-160940000D03*
%TO.C,J4*%
X161100000Y-146610000D03*
X161100000Y-161390000D03*
D19*
%TO.C,H4*%
X108000000Y-127000000D03*
%TO.C,H1*%
X108000000Y-167000000D03*
%TO.C,H2*%
X153000000Y-106000000D03*
%TO.C,H5*%
X158000000Y-127000000D03*
%TO.C,H3*%
X158000000Y-167000000D03*
M02*
