%TF.GenerationSoftware,KiCad,Pcbnew,(6.99.0-874-g7b84e0a7d9-dirty)*%
%TF.CreationDate,2022-02-16T19:00:38-05:00*%
%TF.ProjectId,MotorcycleBatterIsolator,4d6f746f-7263-4796-936c-654261747465,rev?*%
%TF.SameCoordinates,Original*%
%TF.FileFunction,Profile,NP*%
%FSLAX46Y46*%
G04 Gerber Fmt 4.6, Leading zero omitted, Abs format (unit mm)*
G04 Created by KiCad (PCBNEW (6.99.0-874-g7b84e0a7d9-dirty)) date 2022-02-16 19:00:38*
%MOMM*%
%LPD*%
G01*
G04 APERTURE LIST*
%TA.AperFunction,Profile*%
%ADD10C,0.160000*%
%TD*%
G04 APERTURE END LIST*
D10*
X138000000Y-102750000D02*
X116250000Y-102750000D01*
X97268000Y-144160000D02*
X89268000Y-144160000D01*
X86018000Y-147410000D02*
X86018000Y-159690000D01*
X157000000Y-141360000D02*
G75*
G03*
X160250000Y-144610000I3250331J331D01*
G01*
X157000000Y-141360000D02*
X157000000Y-132000000D01*
X107250000Y-171000000D02*
X159850000Y-171000000D01*
X89268000Y-144160000D02*
G75*
G03*
X86018000Y-147410000I-1375J-3248625D01*
G01*
X158000000Y-131000000D02*
G75*
G03*
X158000000Y-123000000I0J4000000D01*
G01*
X163100000Y-167750000D02*
X163100000Y-166750000D01*
X97268000Y-144160000D02*
G75*
G03*
X100518000Y-140910000I-331J3250331D01*
G01*
X113000000Y-106000000D02*
X113000000Y-117500000D01*
X157000000Y-106000000D02*
G75*
G03*
X153750000Y-102750000I-3250331J-331D01*
G01*
X104000000Y-166190000D02*
X104000000Y-167750000D01*
X110373000Y-120690000D02*
G75*
G03*
X113000000Y-117500000I-623096J3189808D01*
G01*
X161100000Y-144610000D02*
X160250000Y-144610000D01*
X104000000Y-167750000D02*
G75*
G03*
X107250000Y-171000000I3250331J331D01*
G01*
X163100000Y-166750000D02*
X163100000Y-146610000D01*
X138000000Y-102750000D02*
G75*
G03*
X148250000Y-102750000I5125000J6835000D01*
G01*
X89268000Y-162940000D02*
X100750000Y-162940000D01*
X100518000Y-132657000D02*
X100518000Y-140910000D01*
X104000000Y-166190000D02*
G75*
G03*
X100750000Y-162940000I-3250331J-331D01*
G01*
X158000000Y-131000000D02*
G75*
G03*
X157000000Y-132000000I365J-1000365D01*
G01*
X153750000Y-102750000D02*
X148250000Y-102750000D01*
X110373000Y-120690000D02*
G75*
G03*
X100518000Y-132657000I2337160J-11966054D01*
G01*
X159850000Y-171000000D02*
G75*
G03*
X163100000Y-167750000I-331J3250331D01*
G01*
X163100000Y-146610000D02*
G75*
G03*
X161100000Y-144610000I-2000729J-729D01*
G01*
X157000000Y-122000000D02*
G75*
G03*
X158000000Y-123000000I1000365J365D01*
G01*
X86018000Y-159690000D02*
G75*
G03*
X89268000Y-162940000I3248625J-1375D01*
G01*
X116250000Y-102750000D02*
G75*
G03*
X113000000Y-106000000I331J-3250331D01*
G01*
X157000000Y-122000000D02*
X157000000Y-106000000D01*
M02*
