%TF.GenerationSoftware,KiCad,Pcbnew,(6.99.0-874-g7b84e0a7d9-dirty)*%
%TF.CreationDate,2022-02-16T19:00:37-05:00*%
%TF.ProjectId,MotorcycleBatterIsolator,4d6f746f-7263-4796-936c-654261747465,rev?*%
%TF.SameCoordinates,Original*%
%TF.FileFunction,Legend,Top*%
%TF.FilePolarity,Positive*%
%FSLAX46Y46*%
G04 Gerber Fmt 4.6, Leading zero omitted, Abs format (unit mm)*
G04 Created by KiCad (PCBNEW (6.99.0-874-g7b84e0a7d9-dirty)) date 2022-02-16 19:00:37*
%MOMM*%
%LPD*%
G01*
G04 APERTURE LIST*
%ADD10C,0.150000*%
%ADD11C,1.000000*%
%ADD12C,0.120000*%
G04 APERTURE END LIST*
D10*
X133623607Y-161600000D02*
G75*
G03*
X133623607Y-161600000I-223607J0D01*
G01*
X154308114Y-144900000D02*
G75*
G03*
X154308114Y-144900000I-158114J0D01*
G01*
X126458114Y-127550000D02*
G75*
G03*
X126458114Y-127550000I-158114J0D01*
G01*
X138673607Y-127350000D02*
G75*
G03*
X138673607Y-127350000I-223607J0D01*
G01*
X136206155Y-127950000D02*
G75*
G03*
X136206155Y-127950000I-206155J0D01*
G01*
X155971428Y-131888094D02*
X155923809Y-132030951D01*
X155923809Y-132030951D02*
X155876190Y-132078570D01*
X155876190Y-132078570D02*
X155780952Y-132126189D01*
X155780952Y-132126189D02*
X155638095Y-132126189D01*
X155638095Y-132126189D02*
X155542857Y-132078570D01*
X155542857Y-132078570D02*
X155495238Y-132030951D01*
X155495238Y-132030951D02*
X155447619Y-131935713D01*
X155447619Y-131935713D02*
X155447619Y-131554761D01*
X155447619Y-131554761D02*
X156447619Y-131554761D01*
X156447619Y-131554761D02*
X156447619Y-131888094D01*
X156447619Y-131888094D02*
X156400000Y-131983332D01*
X156400000Y-131983332D02*
X156352380Y-132030951D01*
X156352380Y-132030951D02*
X156257142Y-132078570D01*
X156257142Y-132078570D02*
X156161904Y-132078570D01*
X156161904Y-132078570D02*
X156066666Y-132030951D01*
X156066666Y-132030951D02*
X156019047Y-131983332D01*
X156019047Y-131983332D02*
X155971428Y-131888094D01*
X155971428Y-131888094D02*
X155971428Y-131554761D01*
X155495238Y-132935713D02*
X155447619Y-132840475D01*
X155447619Y-132840475D02*
X155447619Y-132649999D01*
X155447619Y-132649999D02*
X155495238Y-132554761D01*
X155495238Y-132554761D02*
X155590476Y-132507142D01*
X155590476Y-132507142D02*
X155971428Y-132507142D01*
X155971428Y-132507142D02*
X156066666Y-132554761D01*
X156066666Y-132554761D02*
X156114285Y-132649999D01*
X156114285Y-132649999D02*
X156114285Y-132840475D01*
X156114285Y-132840475D02*
X156066666Y-132935713D01*
X156066666Y-132935713D02*
X155971428Y-132983332D01*
X155971428Y-132983332D02*
X155876190Y-132983332D01*
X155876190Y-132983332D02*
X155780952Y-132507142D01*
X156114285Y-133869047D02*
X156114285Y-134249999D01*
X156447619Y-134011904D02*
X155590476Y-134011904D01*
X155590476Y-134011904D02*
X155495238Y-134059523D01*
X155495238Y-134059523D02*
X155447619Y-134154761D01*
X155447619Y-134154761D02*
X155447619Y-134249999D01*
X155447619Y-134726190D02*
X155495238Y-134630952D01*
X155495238Y-134630952D02*
X155542857Y-134583333D01*
X155542857Y-134583333D02*
X155638095Y-134535714D01*
X155638095Y-134535714D02*
X155923809Y-134535714D01*
X155923809Y-134535714D02*
X156019047Y-134583333D01*
X156019047Y-134583333D02*
X156066666Y-134630952D01*
X156066666Y-134630952D02*
X156114285Y-134726190D01*
X156114285Y-134726190D02*
X156114285Y-134869047D01*
X156114285Y-134869047D02*
X156066666Y-134964285D01*
X156066666Y-134964285D02*
X156019047Y-135011904D01*
X156019047Y-135011904D02*
X155923809Y-135059523D01*
X155923809Y-135059523D02*
X155638095Y-135059523D01*
X155638095Y-135059523D02*
X155542857Y-135011904D01*
X155542857Y-135011904D02*
X155495238Y-134964285D01*
X155495238Y-134964285D02*
X155447619Y-134869047D01*
X155447619Y-134869047D02*
X155447619Y-134726190D01*
X155447619Y-135630952D02*
X155495238Y-135535714D01*
X155495238Y-135535714D02*
X155542857Y-135488095D01*
X155542857Y-135488095D02*
X155638095Y-135440476D01*
X155638095Y-135440476D02*
X155923809Y-135440476D01*
X155923809Y-135440476D02*
X156019047Y-135488095D01*
X156019047Y-135488095D02*
X156066666Y-135535714D01*
X156066666Y-135535714D02*
X156114285Y-135630952D01*
X156114285Y-135630952D02*
X156114285Y-135773809D01*
X156114285Y-135773809D02*
X156066666Y-135869047D01*
X156066666Y-135869047D02*
X156019047Y-135916666D01*
X156019047Y-135916666D02*
X155923809Y-135964285D01*
X155923809Y-135964285D02*
X155638095Y-135964285D01*
X155638095Y-135964285D02*
X155542857Y-135916666D01*
X155542857Y-135916666D02*
X155495238Y-135869047D01*
X155495238Y-135869047D02*
X155447619Y-135773809D01*
X155447619Y-135773809D02*
X155447619Y-135630952D01*
X155447619Y-137135714D02*
X155495238Y-137040476D01*
X155495238Y-137040476D02*
X155590476Y-136992857D01*
X155590476Y-136992857D02*
X156447619Y-136992857D01*
X155447619Y-137945238D02*
X155971428Y-137945238D01*
X155971428Y-137945238D02*
X156066666Y-137897619D01*
X156066666Y-137897619D02*
X156114285Y-137802381D01*
X156114285Y-137802381D02*
X156114285Y-137611905D01*
X156114285Y-137611905D02*
X156066666Y-137516667D01*
X155495238Y-137945238D02*
X155447619Y-137850000D01*
X155447619Y-137850000D02*
X155447619Y-137611905D01*
X155447619Y-137611905D02*
X155495238Y-137516667D01*
X155495238Y-137516667D02*
X155590476Y-137469048D01*
X155590476Y-137469048D02*
X155685714Y-137469048D01*
X155685714Y-137469048D02*
X155780952Y-137516667D01*
X155780952Y-137516667D02*
X155828571Y-137611905D01*
X155828571Y-137611905D02*
X155828571Y-137850000D01*
X155828571Y-137850000D02*
X155876190Y-137945238D01*
X156114285Y-138326191D02*
X156114285Y-138850000D01*
X156114285Y-138850000D02*
X155447619Y-138326191D01*
X155447619Y-138326191D02*
X155447619Y-138850000D01*
X156114285Y-139135715D02*
X155447619Y-139373810D01*
X156114285Y-139611905D02*
X155447619Y-139373810D01*
X155447619Y-139373810D02*
X155209523Y-139278572D01*
X155209523Y-139278572D02*
X155161904Y-139230953D01*
X155161904Y-139230953D02*
X155114285Y-139135715D01*
X156114285Y-140450001D02*
X156114285Y-140830953D01*
X156447619Y-140592858D02*
X155590476Y-140592858D01*
X155590476Y-140592858D02*
X155495238Y-140640477D01*
X155495238Y-140640477D02*
X155447619Y-140735715D01*
X155447619Y-140735715D02*
X155447619Y-140830953D01*
X155447619Y-141307144D02*
X155495238Y-141211906D01*
X155495238Y-141211906D02*
X155542857Y-141164287D01*
X155542857Y-141164287D02*
X155638095Y-141116668D01*
X155638095Y-141116668D02*
X155923809Y-141116668D01*
X155923809Y-141116668D02*
X156019047Y-141164287D01*
X156019047Y-141164287D02*
X156066666Y-141211906D01*
X156066666Y-141211906D02*
X156114285Y-141307144D01*
X156114285Y-141307144D02*
X156114285Y-141450001D01*
X156114285Y-141450001D02*
X156066666Y-141545239D01*
X156066666Y-141545239D02*
X156019047Y-141592858D01*
X156019047Y-141592858D02*
X155923809Y-141640477D01*
X155923809Y-141640477D02*
X155638095Y-141640477D01*
X155638095Y-141640477D02*
X155542857Y-141592858D01*
X155542857Y-141592858D02*
X155495238Y-141545239D01*
X155495238Y-141545239D02*
X155447619Y-141450001D01*
X155447619Y-141450001D02*
X155447619Y-141307144D01*
X156114285Y-142526192D02*
X156114285Y-142907144D01*
X155447619Y-142669049D02*
X156304761Y-142669049D01*
X156304761Y-142669049D02*
X156400000Y-142716668D01*
X156400000Y-142716668D02*
X156447619Y-142811906D01*
X156447619Y-142811906D02*
X156447619Y-142907144D01*
X155447619Y-143669049D02*
X155971428Y-143669049D01*
X155971428Y-143669049D02*
X156066666Y-143621430D01*
X156066666Y-143621430D02*
X156114285Y-143526192D01*
X156114285Y-143526192D02*
X156114285Y-143335716D01*
X156114285Y-143335716D02*
X156066666Y-143240478D01*
X155495238Y-143669049D02*
X155447619Y-143573811D01*
X155447619Y-143573811D02*
X155447619Y-143335716D01*
X155447619Y-143335716D02*
X155495238Y-143240478D01*
X155495238Y-143240478D02*
X155590476Y-143192859D01*
X155590476Y-143192859D02*
X155685714Y-143192859D01*
X155685714Y-143192859D02*
X155780952Y-143240478D01*
X155780952Y-143240478D02*
X155828571Y-143335716D01*
X155828571Y-143335716D02*
X155828571Y-143573811D01*
X155828571Y-143573811D02*
X155876190Y-143669049D01*
X155447619Y-144145240D02*
X156114285Y-144145240D01*
X156447619Y-144145240D02*
X156400000Y-144097621D01*
X156400000Y-144097621D02*
X156352380Y-144145240D01*
X156352380Y-144145240D02*
X156400000Y-144192859D01*
X156400000Y-144192859D02*
X156447619Y-144145240D01*
X156447619Y-144145240D02*
X156352380Y-144145240D01*
X155447619Y-144764287D02*
X155495238Y-144669049D01*
X155495238Y-144669049D02*
X155590476Y-144621430D01*
X155590476Y-144621430D02*
X156447619Y-144621430D01*
X155542857Y-145145240D02*
X155495238Y-145192859D01*
X155495238Y-145192859D02*
X155447619Y-145145240D01*
X155447619Y-145145240D02*
X155495238Y-145097621D01*
X155495238Y-145097621D02*
X155542857Y-145145240D01*
X155542857Y-145145240D02*
X155447619Y-145145240D01*
D11*
%TO.C,J1*%
X98827023Y-149607142D02*
X98112737Y-149369047D01*
X98112737Y-149369047D02*
X97874642Y-149130952D01*
X97874642Y-149130952D02*
X97636546Y-148654761D01*
X97636546Y-148654761D02*
X97636546Y-147940476D01*
X97636546Y-147940476D02*
X97874642Y-147464285D01*
X97874642Y-147464285D02*
X98112737Y-147226190D01*
X98112737Y-147226190D02*
X98588927Y-146988095D01*
X98588927Y-146988095D02*
X100493689Y-146988095D01*
X100493689Y-146988095D02*
X100493689Y-151988095D01*
X100493689Y-151988095D02*
X98827023Y-151988095D01*
X98827023Y-151988095D02*
X98350832Y-151750000D01*
X98350832Y-151750000D02*
X98112737Y-151511904D01*
X98112737Y-151511904D02*
X97874642Y-151035714D01*
X97874642Y-151035714D02*
X97874642Y-150559523D01*
X97874642Y-150559523D02*
X98112737Y-150083333D01*
X98112737Y-150083333D02*
X98350832Y-149845238D01*
X98350832Y-149845238D02*
X98827023Y-149607142D01*
X98827023Y-149607142D02*
X100493689Y-149607142D01*
X93112737Y-146988095D02*
X95493689Y-146988095D01*
X95493689Y-146988095D02*
X95493689Y-151988095D01*
X91684166Y-148416666D02*
X89303213Y-148416666D01*
X92160356Y-146988095D02*
X90493689Y-151988095D01*
X90493689Y-151988095D02*
X88827023Y-146988095D01*
X84303213Y-147464285D02*
X84541309Y-147226190D01*
X84541309Y-147226190D02*
X85255594Y-146988095D01*
X85255594Y-146988095D02*
X85731785Y-146988095D01*
X85731785Y-146988095D02*
X86446071Y-147226190D01*
X86446071Y-147226190D02*
X86922261Y-147702380D01*
X86922261Y-147702380D02*
X87160356Y-148178571D01*
X87160356Y-148178571D02*
X87398452Y-149130952D01*
X87398452Y-149130952D02*
X87398452Y-149845238D01*
X87398452Y-149845238D02*
X87160356Y-150797619D01*
X87160356Y-150797619D02*
X86922261Y-151273809D01*
X86922261Y-151273809D02*
X86446071Y-151750000D01*
X86446071Y-151750000D02*
X85731785Y-151988095D01*
X85731785Y-151988095D02*
X85255594Y-151988095D01*
X85255594Y-151988095D02*
X84541309Y-151750000D01*
X84541309Y-151750000D02*
X84303213Y-151511904D01*
X82160356Y-146988095D02*
X82160356Y-151988095D01*
X79303213Y-146988095D02*
X81446071Y-149845238D01*
X79303213Y-151988095D02*
X82160356Y-149130952D01*
X97231785Y-154888095D02*
X98898452Y-157269047D01*
X100088928Y-154888095D02*
X100088928Y-159888095D01*
X100088928Y-159888095D02*
X98184166Y-159888095D01*
X98184166Y-159888095D02*
X97707976Y-159650000D01*
X97707976Y-159650000D02*
X97469881Y-159411904D01*
X97469881Y-159411904D02*
X97231785Y-158935714D01*
X97231785Y-158935714D02*
X97231785Y-158221428D01*
X97231785Y-158221428D02*
X97469881Y-157745238D01*
X97469881Y-157745238D02*
X97707976Y-157507142D01*
X97707976Y-157507142D02*
X98184166Y-157269047D01*
X98184166Y-157269047D02*
X100088928Y-157269047D01*
X95088928Y-157507142D02*
X93422262Y-157507142D01*
X92707976Y-154888095D02*
X95088928Y-154888095D01*
X95088928Y-154888095D02*
X95088928Y-159888095D01*
X95088928Y-159888095D02*
X92707976Y-159888095D01*
X90565118Y-154888095D02*
X90565118Y-159888095D01*
X90565118Y-159888095D02*
X89374642Y-159888095D01*
X89374642Y-159888095D02*
X88660356Y-159650000D01*
X88660356Y-159650000D02*
X88184166Y-159173809D01*
X88184166Y-159173809D02*
X87946071Y-158697619D01*
X87946071Y-158697619D02*
X87707975Y-157745238D01*
X87707975Y-157745238D02*
X87707975Y-157030952D01*
X87707975Y-157030952D02*
X87946071Y-156078571D01*
X87946071Y-156078571D02*
X88184166Y-155602380D01*
X88184166Y-155602380D02*
X88660356Y-155126190D01*
X88660356Y-155126190D02*
X89374642Y-154888095D01*
X89374642Y-154888095D02*
X90565118Y-154888095D01*
D10*
%TO.C,BZ1*%
X107369048Y-134521428D02*
X108130953Y-134521428D01*
X107750000Y-134902380D02*
X107750000Y-134140476D01*
D11*
%TO.C,J4*%
X150290476Y-157942857D02*
X151004762Y-158180952D01*
X151004762Y-158180952D02*
X151242857Y-158419047D01*
X151242857Y-158419047D02*
X151480953Y-158895238D01*
X151480953Y-158895238D02*
X151480953Y-159609523D01*
X151480953Y-159609523D02*
X151242857Y-160085714D01*
X151242857Y-160085714D02*
X151004762Y-160323809D01*
X151004762Y-160323809D02*
X150528572Y-160561904D01*
X150528572Y-160561904D02*
X148623810Y-160561904D01*
X148623810Y-160561904D02*
X148623810Y-155561904D01*
X148623810Y-155561904D02*
X150290476Y-155561904D01*
X150290476Y-155561904D02*
X150766667Y-155800000D01*
X150766667Y-155800000D02*
X151004762Y-156038095D01*
X151004762Y-156038095D02*
X151242857Y-156514285D01*
X151242857Y-156514285D02*
X151242857Y-156990476D01*
X151242857Y-156990476D02*
X151004762Y-157466666D01*
X151004762Y-157466666D02*
X150766667Y-157704761D01*
X150766667Y-157704761D02*
X150290476Y-157942857D01*
X150290476Y-157942857D02*
X148623810Y-157942857D01*
X156004762Y-160561904D02*
X153623810Y-160561904D01*
X153623810Y-160561904D02*
X153623810Y-155561904D01*
X157433333Y-159133333D02*
X159814286Y-159133333D01*
X156957143Y-160561904D02*
X158623810Y-155561904D01*
X158623810Y-155561904D02*
X160290476Y-160561904D01*
X164814286Y-160085714D02*
X164576190Y-160323809D01*
X164576190Y-160323809D02*
X163861905Y-160561904D01*
X163861905Y-160561904D02*
X163385714Y-160561904D01*
X163385714Y-160561904D02*
X162671428Y-160323809D01*
X162671428Y-160323809D02*
X162195238Y-159847619D01*
X162195238Y-159847619D02*
X161957143Y-159371428D01*
X161957143Y-159371428D02*
X161719047Y-158419047D01*
X161719047Y-158419047D02*
X161719047Y-157704761D01*
X161719047Y-157704761D02*
X161957143Y-156752380D01*
X161957143Y-156752380D02*
X162195238Y-156276190D01*
X162195238Y-156276190D02*
X162671428Y-155800000D01*
X162671428Y-155800000D02*
X163385714Y-155561904D01*
X163385714Y-155561904D02*
X163861905Y-155561904D01*
X163861905Y-155561904D02*
X164576190Y-155800000D01*
X164576190Y-155800000D02*
X164814286Y-156038095D01*
X166957143Y-160561904D02*
X166957143Y-155561904D01*
X169814286Y-160561904D02*
X167671428Y-157704761D01*
X169814286Y-155561904D02*
X166957143Y-158419047D01*
X151885714Y-152661904D02*
X150219047Y-150280952D01*
X149028571Y-152661904D02*
X149028571Y-147661904D01*
X149028571Y-147661904D02*
X150933333Y-147661904D01*
X150933333Y-147661904D02*
X151409523Y-147900000D01*
X151409523Y-147900000D02*
X151647618Y-148138095D01*
X151647618Y-148138095D02*
X151885714Y-148614285D01*
X151885714Y-148614285D02*
X151885714Y-149328571D01*
X151885714Y-149328571D02*
X151647618Y-149804761D01*
X151647618Y-149804761D02*
X151409523Y-150042857D01*
X151409523Y-150042857D02*
X150933333Y-150280952D01*
X150933333Y-150280952D02*
X149028571Y-150280952D01*
X154028571Y-150042857D02*
X155695237Y-150042857D01*
X156409523Y-152661904D02*
X154028571Y-152661904D01*
X154028571Y-152661904D02*
X154028571Y-147661904D01*
X154028571Y-147661904D02*
X156409523Y-147661904D01*
X158552381Y-152661904D02*
X158552381Y-147661904D01*
X158552381Y-147661904D02*
X159742857Y-147661904D01*
X159742857Y-147661904D02*
X160457143Y-147900000D01*
X160457143Y-147900000D02*
X160933333Y-148376190D01*
X160933333Y-148376190D02*
X161171428Y-148852380D01*
X161171428Y-148852380D02*
X161409524Y-149804761D01*
X161409524Y-149804761D02*
X161409524Y-150519047D01*
X161409524Y-150519047D02*
X161171428Y-151471428D01*
X161171428Y-151471428D02*
X160933333Y-151947619D01*
X160933333Y-151947619D02*
X160457143Y-152423809D01*
X160457143Y-152423809D02*
X159742857Y-152661904D01*
X159742857Y-152661904D02*
X158552381Y-152661904D01*
D12*
%TO.C,TP8*%
X156700000Y-116700000D02*
G75*
G03*
X156700000Y-116700000I-700000J0D01*
G01*
%TO.C,TP7*%
X156700000Y-118500000D02*
G75*
G03*
X156700000Y-118500000I-700000J0D01*
G01*
%TO.C,TP6*%
X156700000Y-120000000D02*
G75*
G03*
X156700000Y-120000000I-700000J0D01*
G01*
%TO.C,TP4*%
X154700000Y-130000000D02*
G75*
G03*
X154700000Y-130000000I-700000J0D01*
G01*
%TO.C,TP3*%
X154700000Y-132000000D02*
G75*
G03*
X154700000Y-132000000I-700000J0D01*
G01*
%TO.C,TP2*%
X154700000Y-134000000D02*
G75*
G03*
X154700000Y-134000000I-700000J0D01*
G01*
%TO.C,TP1*%
X154700000Y-136050000D02*
G75*
G03*
X154700000Y-136050000I-700000J0D01*
G01*
%TO.C,C11*%
X147659420Y-120190000D02*
X147940580Y-120190000D01*
X147659420Y-121210000D02*
X147940580Y-121210000D01*
%TO.C,U4*%
X149750000Y-144310000D02*
X153200000Y-144310000D01*
X149750000Y-144310000D02*
X147800000Y-144310000D01*
X149750000Y-139190000D02*
X151700000Y-139190000D01*
X149750000Y-139190000D02*
X147800000Y-139190000D01*
%TO.C,R11*%
X140737258Y-169272500D02*
X140262742Y-169272500D01*
X140737258Y-168227500D02*
X140262742Y-168227500D01*
%TO.C,C1*%
X132877500Y-165159420D02*
X132877500Y-165440580D01*
X131857500Y-165159420D02*
X131857500Y-165440580D01*
%TO.C,C22*%
X138510000Y-131169420D02*
X138510000Y-131450580D01*
X137490000Y-131169420D02*
X137490000Y-131450580D01*
%TO.C,R18*%
X134737258Y-122872500D02*
X134262742Y-122872500D01*
X134737258Y-121827500D02*
X134262742Y-121827500D01*
%TO.C,U2*%
X130870000Y-133450000D02*
X130870000Y-132310000D01*
X130640000Y-132310000D02*
X130870000Y-132310000D01*
X130640000Y-132310000D02*
X130640000Y-129590000D01*
X135360000Y-132310000D02*
X135130000Y-132310000D01*
X130640000Y-129590000D02*
X131950000Y-129590000D01*
X134050000Y-129590000D02*
X135360000Y-129590000D01*
X135360000Y-129590000D02*
X135360000Y-132310000D01*
%TO.C,U1*%
X137367500Y-162460000D02*
X133842500Y-162460000D01*
X137367500Y-162460000D02*
X139247500Y-162460000D01*
X137367500Y-167640000D02*
X135487500Y-167640000D01*
X137367500Y-167640000D02*
X139247500Y-167640000D01*
%TO.C,R29*%
X148012742Y-135727500D02*
X148487258Y-135727500D01*
X148012742Y-136772500D02*
X148487258Y-136772500D01*
%TO.C,R15*%
X149477500Y-117237258D02*
X149477500Y-116762742D01*
X150522500Y-117237258D02*
X150522500Y-116762742D01*
%TO.C,J5*%
X134950000Y-108400000D02*
X134950000Y-106400000D01*
X134950000Y-104500000D02*
X134950000Y-102600000D01*
X134950000Y-102600000D02*
X125550000Y-102600000D01*
X125550000Y-108400000D02*
X125550000Y-106400000D01*
X125550000Y-104500000D02*
X125550000Y-102600000D01*
%TO.C,C14*%
X137609420Y-118640000D02*
X137890580Y-118640000D01*
X137609420Y-119660000D02*
X137890580Y-119660000D01*
%TO.C,R17*%
X144977500Y-131047258D02*
X144977500Y-130572742D01*
X146022500Y-131047258D02*
X146022500Y-130572742D01*
%TO.C,U6*%
X125370000Y-133450000D02*
X125370000Y-132310000D01*
X125140000Y-132310000D02*
X125370000Y-132310000D01*
X125140000Y-132310000D02*
X125140000Y-129590000D01*
X129860000Y-132310000D02*
X129630000Y-132310000D01*
X125140000Y-129590000D02*
X126450000Y-129590000D01*
X128550000Y-129590000D02*
X129860000Y-129590000D01*
X129860000Y-129590000D02*
X129860000Y-132310000D01*
%TO.C,C6*%
X125510000Y-119419420D02*
X125510000Y-119700580D01*
X124490000Y-119419420D02*
X124490000Y-119700580D01*
%TO.C,JP1*%
X135000000Y-138350000D02*
X135000000Y-141150000D01*
X133000000Y-138350000D02*
X135000000Y-138350000D01*
X135000000Y-141150000D02*
X133000000Y-141150000D01*
X133000000Y-141150000D02*
X133000000Y-138350000D01*
%TO.C,J2*%
X136930000Y-107610000D02*
X136930000Y-112060000D01*
X136930000Y-113460000D02*
X136930000Y-115760000D01*
X136930000Y-117160000D02*
X136930000Y-117880000D01*
X136930000Y-117880000D02*
X139610000Y-117880000D01*
X138410000Y-106240000D02*
X139270000Y-106240000D01*
X141910000Y-117880000D02*
X145580000Y-117880000D01*
X147880000Y-117880000D02*
X149110000Y-117880000D01*
X149110000Y-117880000D02*
X149110000Y-108060000D01*
%TO.C,J1*%
X102717500Y-153550000D02*
X78117500Y-153550000D01*
X101417500Y-145350000D02*
X101417500Y-145050000D01*
X101417500Y-145050000D02*
X83617500Y-145050000D01*
X83617500Y-145050000D02*
X83617500Y-145350000D01*
X78117500Y-145400000D02*
X102717500Y-145400000D01*
X102717500Y-145400000D02*
X102717500Y-161700000D01*
X102717500Y-161700000D02*
X78117500Y-161700000D01*
X78117500Y-161700000D02*
X78117500Y-145400000D01*
%TO.C,C10*%
X151760000Y-125919420D02*
X151760000Y-126200580D01*
X150740000Y-125919420D02*
X150740000Y-126200580D01*
%TO.C,Q6*%
X116775000Y-153245000D02*
X117045000Y-153245000D01*
X117045000Y-153245000D02*
X117045000Y-156075000D01*
X123405000Y-153245000D02*
X123405000Y-154345000D01*
X123675000Y-153245000D02*
X123405000Y-153245000D01*
X116775000Y-151745000D02*
X116775000Y-153245000D01*
X123675000Y-151745000D02*
X123675000Y-153245000D01*
%TO.C,R10*%
X120022500Y-125512742D02*
X120022500Y-125987258D01*
X118977500Y-125512742D02*
X118977500Y-125987258D01*
%TO.C,C3*%
X131890580Y-135760000D02*
X131609420Y-135760000D01*
X131890580Y-134740000D02*
X131609420Y-134740000D01*
%TO.C,BZ1*%
X117100000Y-136250000D02*
G75*
G03*
X117100000Y-136250000I-6100000J0D01*
G01*
%TO.C,C2*%
X143628752Y-167485000D02*
X143106248Y-167485000D01*
X143628752Y-166015000D02*
X143106248Y-166015000D01*
%TO.C,D1*%
X123900000Y-140900000D02*
X123900000Y-137600000D01*
X123900000Y-140900000D02*
X118500000Y-140900000D01*
X123900000Y-137600000D02*
X118500000Y-137600000D01*
%TO.C,D13*%
X152000000Y-131950000D02*
X150000000Y-131950000D01*
X150000000Y-131950000D02*
X150000000Y-136250000D01*
X152000000Y-136250000D02*
X152000000Y-131950000D01*
%TO.C,R22*%
X141527500Y-135187258D02*
X141527500Y-134712742D01*
X142572500Y-135187258D02*
X142572500Y-134712742D01*
%TO.C,R23*%
X151262742Y-137477500D02*
X151737258Y-137477500D01*
X151262742Y-138522500D02*
X151737258Y-138522500D01*
%TO.C,D12*%
X120050000Y-130750000D02*
X120050000Y-128750000D01*
X120050000Y-128750000D02*
X115750000Y-128750000D01*
X115750000Y-130750000D02*
X120050000Y-130750000D01*
%TO.C,C21*%
X144110000Y-131534420D02*
X144110000Y-131815580D01*
X143090000Y-131534420D02*
X143090000Y-131815580D01*
%TO.C,C12*%
X134640580Y-119760000D02*
X134359420Y-119760000D01*
X134640580Y-118740000D02*
X134359420Y-118740000D01*
%TO.C,C15*%
X134640580Y-118210000D02*
X134359420Y-118210000D01*
X134640580Y-117190000D02*
X134359420Y-117190000D01*
%TO.C,C16*%
X125865580Y-135760000D02*
X125584420Y-135760000D01*
X125865580Y-134740000D02*
X125584420Y-134740000D01*
%TO.C,C13*%
X142884420Y-119050000D02*
X143165580Y-119050000D01*
X142884420Y-120070000D02*
X143165580Y-120070000D01*
%TO.C,TH1*%
X150605000Y-110205000D02*
X151875000Y-110205000D01*
X150605000Y-111475000D02*
X150605000Y-110205000D01*
X152917929Y-113635000D02*
X153315000Y-113635000D01*
X152917929Y-114395000D02*
X153315000Y-114395000D01*
X152985000Y-111095000D02*
X153315000Y-111095000D01*
X152985000Y-111855000D02*
X153315000Y-111855000D01*
X153315000Y-110145000D02*
X153315000Y-115345000D01*
X153315000Y-112745000D02*
X155975000Y-112745000D01*
X153315000Y-115345000D02*
X155975000Y-115345000D01*
X155975000Y-110145000D02*
X153315000Y-110145000D01*
X155975000Y-111095000D02*
X161975000Y-111095000D01*
X155975000Y-111155000D02*
X161975000Y-111155000D01*
X155975000Y-111275000D02*
X161975000Y-111275000D01*
X155975000Y-111395000D02*
X161975000Y-111395000D01*
X155975000Y-111515000D02*
X161975000Y-111515000D01*
X155975000Y-111635000D02*
X161975000Y-111635000D01*
X155975000Y-111755000D02*
X161975000Y-111755000D01*
X155975000Y-113635000D02*
X161975000Y-113635000D01*
X155975000Y-115345000D02*
X155975000Y-110145000D01*
X161975000Y-111095000D02*
X161975000Y-111855000D01*
X161975000Y-111855000D02*
X155975000Y-111855000D01*
X161975000Y-113635000D02*
X161975000Y-114395000D01*
X161975000Y-114395000D02*
X155975000Y-114395000D01*
%TO.C,Q7*%
X116500000Y-127310000D02*
X118175000Y-127310000D01*
X116500000Y-127310000D02*
X115850000Y-127310000D01*
X116500000Y-124190000D02*
X117150000Y-124190000D01*
X116500000Y-124190000D02*
X115850000Y-124190000D01*
%TO.C,D8*%
X140650000Y-150600000D02*
X137350000Y-150600000D01*
X140650000Y-150600000D02*
X140650000Y-156000000D01*
X137350000Y-150600000D02*
X137350000Y-156000000D01*
%TO.C,C5*%
X134109420Y-113740000D02*
X134390580Y-113740000D01*
X134109420Y-114760000D02*
X134390580Y-114760000D01*
%TO.C,J4*%
X146400000Y-154000000D02*
X171000000Y-154000000D01*
X147700000Y-162200000D02*
X147700000Y-162500000D01*
X147700000Y-162500000D02*
X165500000Y-162500000D01*
X165500000Y-162500000D02*
X165500000Y-162200000D01*
X171000000Y-162150000D02*
X146400000Y-162150000D01*
X146400000Y-162150000D02*
X146400000Y-145850000D01*
X146400000Y-145850000D02*
X171000000Y-145850000D01*
X171000000Y-145850000D02*
X171000000Y-162150000D01*
%TO.C,R13*%
X125522500Y-115762742D02*
X125522500Y-116237258D01*
X124477500Y-115762742D02*
X124477500Y-116237258D01*
%TO.C,Y1*%
X146700000Y-131110000D02*
X150300000Y-131110000D01*
X150300000Y-131110000D02*
X150300000Y-125360000D01*
X146700000Y-125360000D02*
X146700000Y-131110000D01*
%TO.C,Q3*%
X123450000Y-161780000D02*
X123180000Y-161780000D01*
X123180000Y-161780000D02*
X123180000Y-158950000D01*
X116820000Y-161780000D02*
X116820000Y-160680000D01*
X116550000Y-161780000D02*
X116820000Y-161780000D01*
X123450000Y-163280000D02*
X123450000Y-161780000D01*
X116550000Y-163280000D02*
X116550000Y-161780000D01*
%TO.C,SW4*%
X122000000Y-114500000D02*
X122000000Y-112500000D01*
X120950000Y-115800000D02*
X120500000Y-116250000D01*
X120950000Y-111200000D02*
X120500000Y-110750000D01*
X120500000Y-116250000D02*
X118000000Y-116250000D01*
X120500000Y-110750000D02*
X118000000Y-110750000D01*
X117550000Y-115800000D02*
X118000000Y-116250000D01*
X117550000Y-111200000D02*
X118000000Y-110750000D01*
X116500000Y-114500000D02*
X116500000Y-112500000D01*
%TO.C,SW3*%
X122000000Y-121000000D02*
X122000000Y-119000000D01*
X120950000Y-122300000D02*
X120500000Y-122750000D01*
X120950000Y-117700000D02*
X120500000Y-117250000D01*
X120500000Y-122750000D02*
X118000000Y-122750000D01*
X120500000Y-117250000D02*
X118000000Y-117250000D01*
X117550000Y-122300000D02*
X118000000Y-122750000D01*
X117550000Y-117700000D02*
X118000000Y-117250000D01*
X116500000Y-121000000D02*
X116500000Y-119000000D01*
%TO.C,R12*%
X133762742Y-168227500D02*
X134237258Y-168227500D01*
X133762742Y-169272500D02*
X134237258Y-169272500D01*
%TO.C,D10*%
X120600000Y-130150000D02*
X123900000Y-130150000D01*
X120600000Y-130150000D02*
X120600000Y-124750000D01*
X123900000Y-130150000D02*
X123900000Y-124750000D01*
%TO.C,D9*%
X143065000Y-136435000D02*
X144535000Y-136435000D01*
X144535000Y-136435000D02*
X144535000Y-134150000D01*
X143065000Y-134150000D02*
X143065000Y-136435000D01*
%TO.C,C4*%
X134890580Y-135760000D02*
X134609420Y-135760000D01*
X134890580Y-134740000D02*
X134609420Y-134740000D01*
%TO.C,D3*%
X123900000Y-144650000D02*
X123900000Y-141350000D01*
X123900000Y-144650000D02*
X118500000Y-144650000D01*
X123900000Y-141350000D02*
X118500000Y-141350000D01*
%TO.C,R27*%
X118237258Y-133022500D02*
X117762742Y-133022500D01*
X118237258Y-131977500D02*
X117762742Y-131977500D01*
%TO.C,R20*%
X127187742Y-112537500D02*
X127662258Y-112537500D01*
X127187742Y-113582500D02*
X127662258Y-113582500D01*
%TO.C,C8*%
X148109420Y-137490000D02*
X148390580Y-137490000D01*
X148109420Y-138510000D02*
X148390580Y-138510000D01*
%TO.C,U5*%
X144460000Y-128620000D02*
X143810000Y-128620000D01*
X137240000Y-127970000D02*
X137240000Y-128620000D01*
X144460000Y-127970000D02*
X144460000Y-128620000D01*
X137240000Y-122050000D02*
X137240000Y-121400000D01*
X144460000Y-122050000D02*
X144460000Y-121400000D01*
X137240000Y-121400000D02*
X137890000Y-121400000D01*
X144460000Y-121400000D02*
X143810000Y-121400000D01*
%TO.C,Q2*%
X130925000Y-161705000D02*
X130655000Y-161705000D01*
X130655000Y-161705000D02*
X130655000Y-158875000D01*
X124295000Y-161705000D02*
X124295000Y-160605000D01*
X124025000Y-161705000D02*
X124295000Y-161705000D01*
X130925000Y-163205000D02*
X130925000Y-161705000D01*
X124025000Y-163205000D02*
X124025000Y-161705000D01*
%TO.C,SW1*%
X146867500Y-164800000D02*
X146867500Y-166800000D01*
X147917500Y-163500000D02*
X148367500Y-163050000D01*
X147917500Y-168100000D02*
X148367500Y-168550000D01*
X148367500Y-163050000D02*
X150867500Y-163050000D01*
X148367500Y-168550000D02*
X150867500Y-168550000D01*
X151317500Y-163500000D02*
X150867500Y-163050000D01*
X151317500Y-168100000D02*
X150867500Y-168550000D01*
X152367500Y-164800000D02*
X152367500Y-166800000D01*
%TO.C,C20*%
X142510000Y-131559420D02*
X142510000Y-131840580D01*
X141490000Y-131559420D02*
X141490000Y-131840580D01*
%TO.C,Q5*%
X124275000Y-153245000D02*
X124545000Y-153245000D01*
X124545000Y-153245000D02*
X124545000Y-156075000D01*
X130905000Y-153245000D02*
X130905000Y-154345000D01*
X131175000Y-153245000D02*
X130905000Y-153245000D01*
X124275000Y-151745000D02*
X124275000Y-153245000D01*
X131175000Y-151745000D02*
X131175000Y-153245000D01*
%TO.C,C19*%
X128915580Y-135760000D02*
X128634420Y-135760000D01*
X128915580Y-134740000D02*
X128634420Y-134740000D01*
%TO.C,R1*%
X143604758Y-165022500D02*
X143130242Y-165022500D01*
X143604758Y-163977500D02*
X143130242Y-163977500D01*
%TO.C,R14*%
X137322936Y-141290000D02*
X141677064Y-141290000D01*
X137322936Y-144710000D02*
X141677064Y-144710000D01*
%TO.C,D11*%
X139615000Y-136410000D02*
X141085000Y-136410000D01*
X141085000Y-136410000D02*
X141085000Y-134125000D01*
X139615000Y-134125000D02*
X139615000Y-136410000D01*
%TO.C,R21*%
X134487258Y-113272500D02*
X134012742Y-113272500D01*
X134487258Y-112227500D02*
X134012742Y-112227500D01*
%TO.C,R26*%
X121487258Y-133022500D02*
X121012742Y-133022500D01*
X121487258Y-131977500D02*
X121012742Y-131977500D01*
%TO.C,C17*%
X134640580Y-124410000D02*
X134359420Y-124410000D01*
X134640580Y-123390000D02*
X134359420Y-123390000D01*
%TO.C,D7*%
X142150000Y-140650000D02*
X142150000Y-137350000D01*
X142150000Y-140650000D02*
X136750000Y-140650000D01*
X142150000Y-137350000D02*
X136750000Y-137350000D01*
%TO.C,C9*%
X134640580Y-125960000D02*
X134359420Y-125960000D01*
X134640580Y-124940000D02*
X134359420Y-124940000D01*
%TO.C,C18*%
X147634420Y-123300000D02*
X147915580Y-123300000D01*
X147634420Y-124320000D02*
X147915580Y-124320000D01*
%TO.C,R28*%
X148037258Y-122772500D02*
X147562742Y-122772500D01*
X148037258Y-121727500D02*
X147562742Y-121727500D01*
%TO.C,D2*%
X123900000Y-137150000D02*
X123900000Y-133850000D01*
X123900000Y-137150000D02*
X118500000Y-137150000D01*
X123900000Y-133850000D02*
X118500000Y-133850000D01*
%TO.C,C7*%
X150740000Y-129450580D02*
X150740000Y-129169420D01*
X151760000Y-129450580D02*
X151760000Y-129169420D01*
%TO.C,R25*%
X153977500Y-142487258D02*
X153977500Y-142012742D01*
X155022500Y-142487258D02*
X155022500Y-142012742D01*
%TO.C,R24*%
X138077500Y-135162258D02*
X138077500Y-134687742D01*
X139122500Y-135162258D02*
X139122500Y-134687742D01*
%TO.C,J3*%
X154270000Y-122465000D02*
X153635000Y-122465000D01*
X154270000Y-121830000D02*
X154270000Y-122465000D01*
%TO.C,R19*%
X134737258Y-121322500D02*
X134262742Y-121322500D01*
X134737258Y-120277500D02*
X134262742Y-120277500D01*
%TO.C,SW2*%
X122000000Y-108000000D02*
X122000000Y-106000000D01*
X120950000Y-109300000D02*
X120500000Y-109750000D01*
X120950000Y-104700000D02*
X120500000Y-104250000D01*
X120500000Y-109750000D02*
X118000000Y-109750000D01*
X120500000Y-104250000D02*
X118000000Y-104250000D01*
X117550000Y-109300000D02*
X118000000Y-109750000D01*
X117550000Y-104700000D02*
X118000000Y-104250000D01*
X116500000Y-108000000D02*
X116500000Y-106000000D01*
%TO.C,R30*%
X148012742Y-134227500D02*
X148487258Y-134227500D01*
X148012742Y-135272500D02*
X148487258Y-135272500D01*
%TO.C,D6*%
X138735000Y-169485000D02*
X138735000Y-168015000D01*
X138735000Y-168015000D02*
X136450000Y-168015000D01*
X136450000Y-169485000D02*
X138735000Y-169485000D01*
%TO.C,R16*%
X125522500Y-125512742D02*
X125522500Y-125987258D01*
X124477500Y-125512742D02*
X124477500Y-125987258D01*
%TO.C,U3*%
X126275000Y-125285000D02*
X126535000Y-125285000D01*
X126535000Y-125285000D02*
X126535000Y-126960000D01*
X131725000Y-125285000D02*
X131465000Y-125285000D01*
X126275000Y-122560000D02*
X126275000Y-125285000D01*
X126275000Y-122560000D02*
X126275000Y-119835000D01*
X131725000Y-122560000D02*
X131725000Y-125285000D01*
X131725000Y-122560000D02*
X131725000Y-119835000D01*
X126275000Y-119835000D02*
X126535000Y-119835000D01*
X131725000Y-119835000D02*
X131465000Y-119835000D01*
%TD*%
M02*
