%FSLAX45Y45*%
G04 Gerber Fmt 4.5, Leading zero omitted, Abs format (unit mm)*
G04 Created by KiCad (PCBNEW (6.99.0-874-g7b84e0a7d9-dirty)) date 2022-02-16 19:00:57*
%MOMM*%
%LPD*%
G01*
G04 APERTURE LIST*
%TA.AperFunction,Profile*%
%ADD10C,0.160000*%
%TD*%
%ADD11C,0.200000*%
%ADD12C,0.065000*%
%ADD13C,0.099060*%
G04 APERTURE END LIST*
D10*
X13800000Y-10275000D02*
X11625000Y-10275000D01*
X9726800Y-14416000D02*
X8926800Y-14416000D01*
X8601800Y-14741000D02*
X8601800Y-15969000D01*
X15700000Y-14136000D02*
G75*
G03*
X16025000Y-14461000I325033J33D01*
G01*
X15700000Y-14136000D02*
X15700000Y-13200000D01*
X10725000Y-17100000D02*
X15985000Y-17100000D01*
X8926800Y-14416000D02*
G75*
G03*
X8601800Y-14741000I-138J-324863D01*
G01*
X15800000Y-13100000D02*
G75*
G03*
X15800000Y-12300000I0J400000D01*
G01*
X16310000Y-16775000D02*
X16310000Y-16675000D01*
X9726800Y-14416000D02*
G75*
G03*
X10051800Y-14091000I-33J325033D01*
G01*
X11300000Y-10600000D02*
X11300000Y-11750000D01*
X15700000Y-10600000D02*
G75*
G03*
X15375000Y-10275000I-325033J-33D01*
G01*
X10400000Y-16619000D02*
X10400000Y-16775000D01*
X11037300Y-12069000D02*
G75*
G03*
X11300000Y-11750000I-62310J318981D01*
G01*
X16110000Y-14461000D02*
X16025000Y-14461000D01*
X10400000Y-16775000D02*
G75*
G03*
X10725000Y-17100000I325033J33D01*
G01*
X16310000Y-16675000D02*
X16310000Y-14661000D01*
X13800000Y-10275000D02*
G75*
G03*
X14825000Y-10275000I512500J683500D01*
G01*
X8926800Y-16294000D02*
X10075000Y-16294000D01*
X10051800Y-13265700D02*
X10051800Y-14091000D01*
X10400000Y-16619000D02*
G75*
G03*
X10075000Y-16294000I-325033J-33D01*
G01*
X15800000Y-13100000D02*
G75*
G03*
X15700000Y-13200000I37J-100037D01*
G01*
X15375000Y-10275000D02*
X14825000Y-10275000D01*
X11037300Y-12069000D02*
G75*
G03*
X10051800Y-13265700I233716J-1196605D01*
G01*
X15985000Y-17100000D02*
G75*
G03*
X16310000Y-16775000I-33J325033D01*
G01*
X16310000Y-14661000D02*
G75*
G03*
X16110000Y-14461000I-200073J-73D01*
G01*
X15700000Y-12200000D02*
G75*
G03*
X15800000Y-12300000I100037J37D01*
G01*
X8601800Y-15969000D02*
G75*
G03*
X8926800Y-16294000I324863J-138D01*
G01*
X11625000Y-10275000D02*
G75*
G03*
X11300000Y-10600000I33J-325033D01*
G01*
X15700000Y-12200000D02*
X15700000Y-10600000D01*
D11*
D12*
X12703500Y-10877500D02*
X12768500Y-10942500D01*
X12768500Y-10877500D02*
X12703500Y-10942500D01*
X13281500Y-10877500D02*
X13346500Y-10942500D01*
X13346500Y-10877500D02*
X13281500Y-10942500D01*
D13*
X15247930Y-11802000D02*
G75*
G03*
X15247930Y-11802000I-49530J0D01*
G01*
X15349530Y-12310000D02*
G75*
G03*
X15349530Y-12310000I-49530J0D01*
G01*
X15451130Y-11802000D02*
G75*
G03*
X15451130Y-11802000I-49530J0D01*
G01*
D11*
X8841419Y-17418476D02*
X8841419Y-17218476D01*
X8841419Y-17218476D02*
X8889038Y-17218476D01*
X8889038Y-17218476D02*
X8917610Y-17228000D01*
X8917610Y-17228000D02*
X8936657Y-17247048D01*
X8936657Y-17247048D02*
X8946181Y-17266095D01*
X8946181Y-17266095D02*
X8955705Y-17304190D01*
X8955705Y-17304190D02*
X8955705Y-17332762D01*
X8955705Y-17332762D02*
X8946181Y-17370857D01*
X8946181Y-17370857D02*
X8936657Y-17389905D01*
X8936657Y-17389905D02*
X8917610Y-17408952D01*
X8917610Y-17408952D02*
X8889038Y-17418476D01*
X8889038Y-17418476D02*
X8841419Y-17418476D01*
X9041419Y-17418476D02*
X9041419Y-17285143D01*
X9041419Y-17323238D02*
X9050943Y-17304190D01*
X9050943Y-17304190D02*
X9060467Y-17294667D01*
X9060467Y-17294667D02*
X9079514Y-17285143D01*
X9079514Y-17285143D02*
X9098562Y-17285143D01*
X9165229Y-17418476D02*
X9165229Y-17285143D01*
X9165229Y-17218476D02*
X9155705Y-17228000D01*
X9155705Y-17228000D02*
X9165229Y-17237524D01*
X9165229Y-17237524D02*
X9174752Y-17228000D01*
X9174752Y-17228000D02*
X9165229Y-17218476D01*
X9165229Y-17218476D02*
X9165229Y-17237524D01*
X9289038Y-17418476D02*
X9269990Y-17408952D01*
X9269990Y-17408952D02*
X9260467Y-17389905D01*
X9260467Y-17389905D02*
X9260467Y-17218476D01*
X9393800Y-17418476D02*
X9374752Y-17408952D01*
X9374752Y-17408952D02*
X9365229Y-17389905D01*
X9365229Y-17389905D02*
X9365229Y-17218476D01*
X9589990Y-17418476D02*
X9589990Y-17218476D01*
X9589990Y-17218476D02*
X9656657Y-17361333D01*
X9656657Y-17361333D02*
X9723324Y-17218476D01*
X9723324Y-17218476D02*
X9723324Y-17418476D01*
X9904276Y-17418476D02*
X9904276Y-17313714D01*
X9904276Y-17313714D02*
X9894752Y-17294667D01*
X9894752Y-17294667D02*
X9875705Y-17285143D01*
X9875705Y-17285143D02*
X9837609Y-17285143D01*
X9837609Y-17285143D02*
X9818562Y-17294667D01*
X9904276Y-17408952D02*
X9885229Y-17418476D01*
X9885229Y-17418476D02*
X9837609Y-17418476D01*
X9837609Y-17418476D02*
X9818562Y-17408952D01*
X9818562Y-17408952D02*
X9809038Y-17389905D01*
X9809038Y-17389905D02*
X9809038Y-17370857D01*
X9809038Y-17370857D02*
X9818562Y-17351810D01*
X9818562Y-17351810D02*
X9837609Y-17342286D01*
X9837609Y-17342286D02*
X9885229Y-17342286D01*
X9885229Y-17342286D02*
X9904276Y-17332762D01*
X9999514Y-17285143D02*
X9999514Y-17485143D01*
X9999514Y-17294667D02*
X10018562Y-17285143D01*
X10018562Y-17285143D02*
X10056657Y-17285143D01*
X10056657Y-17285143D02*
X10075705Y-17294667D01*
X10075705Y-17294667D02*
X10085229Y-17304190D01*
X10085229Y-17304190D02*
X10094752Y-17323238D01*
X10094752Y-17323238D02*
X10094752Y-17380381D01*
X10094752Y-17380381D02*
X10085229Y-17399429D01*
X10085229Y-17399429D02*
X10075705Y-17408952D01*
X10075705Y-17408952D02*
X10056657Y-17418476D01*
X10056657Y-17418476D02*
X10018562Y-17418476D01*
X10018562Y-17418476D02*
X9999514Y-17408952D01*
X10180467Y-17399429D02*
X10189990Y-17408952D01*
X10189990Y-17408952D02*
X10180467Y-17418476D01*
X10180467Y-17418476D02*
X10170943Y-17408952D01*
X10170943Y-17408952D02*
X10180467Y-17399429D01*
X10180467Y-17399429D02*
X10180467Y-17418476D01*
X10180467Y-17294667D02*
X10189990Y-17304190D01*
X10189990Y-17304190D02*
X10180467Y-17313714D01*
X10180467Y-17313714D02*
X10170943Y-17304190D01*
X10170943Y-17304190D02*
X10180467Y-17294667D01*
X10180467Y-17294667D02*
X10180467Y-17313714D01*
D12*
X8528800Y-17715500D02*
X8593800Y-17780500D01*
X8593800Y-17715500D02*
X8528800Y-17780500D01*
D11*
X8879514Y-17638476D02*
X8898562Y-17638476D01*
X8898562Y-17638476D02*
X8917610Y-17648000D01*
X8917610Y-17648000D02*
X8927133Y-17657524D01*
X8927133Y-17657524D02*
X8936657Y-17676571D01*
X8936657Y-17676571D02*
X8946181Y-17714667D01*
X8946181Y-17714667D02*
X8946181Y-17762286D01*
X8946181Y-17762286D02*
X8936657Y-17800381D01*
X8936657Y-17800381D02*
X8927133Y-17819429D01*
X8927133Y-17819429D02*
X8917610Y-17828952D01*
X8917610Y-17828952D02*
X8898562Y-17838476D01*
X8898562Y-17838476D02*
X8879514Y-17838476D01*
X8879514Y-17838476D02*
X8860467Y-17828952D01*
X8860467Y-17828952D02*
X8850943Y-17819429D01*
X8850943Y-17819429D02*
X8841419Y-17800381D01*
X8841419Y-17800381D02*
X8831895Y-17762286D01*
X8831895Y-17762286D02*
X8831895Y-17714667D01*
X8831895Y-17714667D02*
X8841419Y-17676571D01*
X8841419Y-17676571D02*
X8850943Y-17657524D01*
X8850943Y-17657524D02*
X8860467Y-17648000D01*
X8860467Y-17648000D02*
X8879514Y-17638476D01*
X9031895Y-17819429D02*
X9041419Y-17828952D01*
X9041419Y-17828952D02*
X9031895Y-17838476D01*
X9031895Y-17838476D02*
X9022371Y-17828952D01*
X9022371Y-17828952D02*
X9031895Y-17819429D01*
X9031895Y-17819429D02*
X9031895Y-17838476D01*
X9212848Y-17638476D02*
X9174752Y-17638476D01*
X9174752Y-17638476D02*
X9155705Y-17648000D01*
X9155705Y-17648000D02*
X9146181Y-17657524D01*
X9146181Y-17657524D02*
X9127133Y-17686095D01*
X9127133Y-17686095D02*
X9117610Y-17724190D01*
X9117610Y-17724190D02*
X9117610Y-17800381D01*
X9117610Y-17800381D02*
X9127133Y-17819429D01*
X9127133Y-17819429D02*
X9136657Y-17828952D01*
X9136657Y-17828952D02*
X9155705Y-17838476D01*
X9155705Y-17838476D02*
X9193800Y-17838476D01*
X9193800Y-17838476D02*
X9212848Y-17828952D01*
X9212848Y-17828952D02*
X9222371Y-17819429D01*
X9222371Y-17819429D02*
X9231895Y-17800381D01*
X9231895Y-17800381D02*
X9231895Y-17752762D01*
X9231895Y-17752762D02*
X9222371Y-17733714D01*
X9222371Y-17733714D02*
X9212848Y-17724190D01*
X9212848Y-17724190D02*
X9193800Y-17714667D01*
X9193800Y-17714667D02*
X9155705Y-17714667D01*
X9155705Y-17714667D02*
X9136657Y-17724190D01*
X9136657Y-17724190D02*
X9127133Y-17733714D01*
X9127133Y-17733714D02*
X9117610Y-17752762D01*
X9412848Y-17638476D02*
X9317610Y-17638476D01*
X9317610Y-17638476D02*
X9308086Y-17733714D01*
X9308086Y-17733714D02*
X9317610Y-17724190D01*
X9317610Y-17724190D02*
X9336657Y-17714667D01*
X9336657Y-17714667D02*
X9384276Y-17714667D01*
X9384276Y-17714667D02*
X9403324Y-17724190D01*
X9403324Y-17724190D02*
X9412848Y-17733714D01*
X9412848Y-17733714D02*
X9422371Y-17752762D01*
X9422371Y-17752762D02*
X9422371Y-17800381D01*
X9422371Y-17800381D02*
X9412848Y-17819429D01*
X9412848Y-17819429D02*
X9403324Y-17828952D01*
X9403324Y-17828952D02*
X9384276Y-17838476D01*
X9384276Y-17838476D02*
X9336657Y-17838476D01*
X9336657Y-17838476D02*
X9317610Y-17828952D01*
X9317610Y-17828952D02*
X9308086Y-17819429D01*
X9546181Y-17638476D02*
X9565229Y-17638476D01*
X9565229Y-17638476D02*
X9584276Y-17648000D01*
X9584276Y-17648000D02*
X9593800Y-17657524D01*
X9593800Y-17657524D02*
X9603324Y-17676571D01*
X9603324Y-17676571D02*
X9612848Y-17714667D01*
X9612848Y-17714667D02*
X9612848Y-17762286D01*
X9612848Y-17762286D02*
X9603324Y-17800381D01*
X9603324Y-17800381D02*
X9593800Y-17819429D01*
X9593800Y-17819429D02*
X9584276Y-17828952D01*
X9584276Y-17828952D02*
X9565229Y-17838476D01*
X9565229Y-17838476D02*
X9546181Y-17838476D01*
X9546181Y-17838476D02*
X9527133Y-17828952D01*
X9527133Y-17828952D02*
X9517610Y-17819429D01*
X9517610Y-17819429D02*
X9508086Y-17800381D01*
X9508086Y-17800381D02*
X9498562Y-17762286D01*
X9498562Y-17762286D02*
X9498562Y-17714667D01*
X9498562Y-17714667D02*
X9508086Y-17676571D01*
X9508086Y-17676571D02*
X9517610Y-17657524D01*
X9517610Y-17657524D02*
X9527133Y-17648000D01*
X9527133Y-17648000D02*
X9546181Y-17638476D01*
X9698562Y-17838476D02*
X9698562Y-17705143D01*
X9698562Y-17724190D02*
X9708086Y-17714667D01*
X9708086Y-17714667D02*
X9727133Y-17705143D01*
X9727133Y-17705143D02*
X9755705Y-17705143D01*
X9755705Y-17705143D02*
X9774752Y-17714667D01*
X9774752Y-17714667D02*
X9784276Y-17733714D01*
X9784276Y-17733714D02*
X9784276Y-17838476D01*
X9784276Y-17733714D02*
X9793800Y-17714667D01*
X9793800Y-17714667D02*
X9812848Y-17705143D01*
X9812848Y-17705143D02*
X9841419Y-17705143D01*
X9841419Y-17705143D02*
X9860467Y-17714667D01*
X9860467Y-17714667D02*
X9869991Y-17733714D01*
X9869991Y-17733714D02*
X9869991Y-17838476D01*
X9965229Y-17838476D02*
X9965229Y-17705143D01*
X9965229Y-17724190D02*
X9974752Y-17714667D01*
X9974752Y-17714667D02*
X9993800Y-17705143D01*
X9993800Y-17705143D02*
X10022372Y-17705143D01*
X10022372Y-17705143D02*
X10041419Y-17714667D01*
X10041419Y-17714667D02*
X10050943Y-17733714D01*
X10050943Y-17733714D02*
X10050943Y-17838476D01*
X10050943Y-17733714D02*
X10060467Y-17714667D01*
X10060467Y-17714667D02*
X10079514Y-17705143D01*
X10079514Y-17705143D02*
X10108086Y-17705143D01*
X10108086Y-17705143D02*
X10127133Y-17714667D01*
X10127133Y-17714667D02*
X10136657Y-17733714D01*
X10136657Y-17733714D02*
X10136657Y-17838476D01*
X10494752Y-17628952D02*
X10323324Y-17886095D01*
X10719514Y-17638476D02*
X10738562Y-17638476D01*
X10738562Y-17638476D02*
X10757610Y-17648000D01*
X10757610Y-17648000D02*
X10767133Y-17657524D01*
X10767133Y-17657524D02*
X10776657Y-17676571D01*
X10776657Y-17676571D02*
X10786181Y-17714667D01*
X10786181Y-17714667D02*
X10786181Y-17762286D01*
X10786181Y-17762286D02*
X10776657Y-17800381D01*
X10776657Y-17800381D02*
X10767133Y-17819429D01*
X10767133Y-17819429D02*
X10757610Y-17828952D01*
X10757610Y-17828952D02*
X10738562Y-17838476D01*
X10738562Y-17838476D02*
X10719514Y-17838476D01*
X10719514Y-17838476D02*
X10700467Y-17828952D01*
X10700467Y-17828952D02*
X10690943Y-17819429D01*
X10690943Y-17819429D02*
X10681419Y-17800381D01*
X10681419Y-17800381D02*
X10671895Y-17762286D01*
X10671895Y-17762286D02*
X10671895Y-17714667D01*
X10671895Y-17714667D02*
X10681419Y-17676571D01*
X10681419Y-17676571D02*
X10690943Y-17657524D01*
X10690943Y-17657524D02*
X10700467Y-17648000D01*
X10700467Y-17648000D02*
X10719514Y-17638476D01*
X10871895Y-17819429D02*
X10881419Y-17828952D01*
X10881419Y-17828952D02*
X10871895Y-17838476D01*
X10871895Y-17838476D02*
X10862372Y-17828952D01*
X10862372Y-17828952D02*
X10871895Y-17819429D01*
X10871895Y-17819429D02*
X10871895Y-17838476D01*
X11005229Y-17638476D02*
X11024276Y-17638476D01*
X11024276Y-17638476D02*
X11043324Y-17648000D01*
X11043324Y-17648000D02*
X11052848Y-17657524D01*
X11052848Y-17657524D02*
X11062372Y-17676571D01*
X11062372Y-17676571D02*
X11071895Y-17714667D01*
X11071895Y-17714667D02*
X11071895Y-17762286D01*
X11071895Y-17762286D02*
X11062372Y-17800381D01*
X11062372Y-17800381D02*
X11052848Y-17819429D01*
X11052848Y-17819429D02*
X11043324Y-17828952D01*
X11043324Y-17828952D02*
X11024276Y-17838476D01*
X11024276Y-17838476D02*
X11005229Y-17838476D01*
X11005229Y-17838476D02*
X10986181Y-17828952D01*
X10986181Y-17828952D02*
X10976657Y-17819429D01*
X10976657Y-17819429D02*
X10967133Y-17800381D01*
X10967133Y-17800381D02*
X10957610Y-17762286D01*
X10957610Y-17762286D02*
X10957610Y-17714667D01*
X10957610Y-17714667D02*
X10967133Y-17676571D01*
X10967133Y-17676571D02*
X10976657Y-17657524D01*
X10976657Y-17657524D02*
X10986181Y-17648000D01*
X10986181Y-17648000D02*
X11005229Y-17638476D01*
X11148086Y-17657524D02*
X11157610Y-17648000D01*
X11157610Y-17648000D02*
X11176657Y-17638476D01*
X11176657Y-17638476D02*
X11224276Y-17638476D01*
X11224276Y-17638476D02*
X11243324Y-17648000D01*
X11243324Y-17648000D02*
X11252848Y-17657524D01*
X11252848Y-17657524D02*
X11262371Y-17676571D01*
X11262371Y-17676571D02*
X11262371Y-17695619D01*
X11262371Y-17695619D02*
X11252848Y-17724190D01*
X11252848Y-17724190D02*
X11138562Y-17838476D01*
X11138562Y-17838476D02*
X11262371Y-17838476D01*
X11443324Y-17638476D02*
X11348086Y-17638476D01*
X11348086Y-17638476D02*
X11338562Y-17733714D01*
X11338562Y-17733714D02*
X11348086Y-17724190D01*
X11348086Y-17724190D02*
X11367133Y-17714667D01*
X11367133Y-17714667D02*
X11414752Y-17714667D01*
X11414752Y-17714667D02*
X11433800Y-17724190D01*
X11433800Y-17724190D02*
X11443324Y-17733714D01*
X11443324Y-17733714D02*
X11452848Y-17752762D01*
X11452848Y-17752762D02*
X11452848Y-17800381D01*
X11452848Y-17800381D02*
X11443324Y-17819429D01*
X11443324Y-17819429D02*
X11433800Y-17828952D01*
X11433800Y-17828952D02*
X11414752Y-17838476D01*
X11414752Y-17838476D02*
X11367133Y-17838476D01*
X11367133Y-17838476D02*
X11348086Y-17828952D01*
X11348086Y-17828952D02*
X11338562Y-17819429D01*
X11624276Y-17638476D02*
X11586181Y-17638476D01*
X11586181Y-17638476D02*
X11567133Y-17648000D01*
X11567133Y-17648000D02*
X11557610Y-17657524D01*
X11557610Y-17657524D02*
X11538562Y-17686095D01*
X11538562Y-17686095D02*
X11529038Y-17724190D01*
X11529038Y-17724190D02*
X11529038Y-17800381D01*
X11529038Y-17800381D02*
X11538562Y-17819429D01*
X11538562Y-17819429D02*
X11548086Y-17828952D01*
X11548086Y-17828952D02*
X11567133Y-17838476D01*
X11567133Y-17838476D02*
X11605229Y-17838476D01*
X11605229Y-17838476D02*
X11624276Y-17828952D01*
X11624276Y-17828952D02*
X11633800Y-17819429D01*
X11633800Y-17819429D02*
X11643324Y-17800381D01*
X11643324Y-17800381D02*
X11643324Y-17752762D01*
X11643324Y-17752762D02*
X11633800Y-17733714D01*
X11633800Y-17733714D02*
X11624276Y-17724190D01*
X11624276Y-17724190D02*
X11605229Y-17714667D01*
X11605229Y-17714667D02*
X11567133Y-17714667D01*
X11567133Y-17714667D02*
X11548086Y-17724190D01*
X11548086Y-17724190D02*
X11538562Y-17733714D01*
X11538562Y-17733714D02*
X11529038Y-17752762D01*
X11719514Y-17638476D02*
X11719514Y-17676571D01*
X11795705Y-17638476D02*
X11795705Y-17676571D01*
X12058562Y-17914667D02*
X12049038Y-17905143D01*
X12049038Y-17905143D02*
X12029991Y-17876571D01*
X12029991Y-17876571D02*
X12020467Y-17857524D01*
X12020467Y-17857524D02*
X12010943Y-17828952D01*
X12010943Y-17828952D02*
X12001419Y-17781333D01*
X12001419Y-17781333D02*
X12001419Y-17743238D01*
X12001419Y-17743238D02*
X12010943Y-17695619D01*
X12010943Y-17695619D02*
X12020467Y-17667048D01*
X12020467Y-17667048D02*
X12029991Y-17648000D01*
X12029991Y-17648000D02*
X12049038Y-17619429D01*
X12049038Y-17619429D02*
X12058562Y-17609905D01*
X12125229Y-17657524D02*
X12134752Y-17648000D01*
X12134752Y-17648000D02*
X12153800Y-17638476D01*
X12153800Y-17638476D02*
X12201419Y-17638476D01*
X12201419Y-17638476D02*
X12220467Y-17648000D01*
X12220467Y-17648000D02*
X12229991Y-17657524D01*
X12229991Y-17657524D02*
X12239514Y-17676571D01*
X12239514Y-17676571D02*
X12239514Y-17695619D01*
X12239514Y-17695619D02*
X12229991Y-17724190D01*
X12229991Y-17724190D02*
X12115705Y-17838476D01*
X12115705Y-17838476D02*
X12239514Y-17838476D01*
X12445229Y-17838476D02*
X12445229Y-17638476D01*
X12530943Y-17838476D02*
X12530943Y-17733714D01*
X12530943Y-17733714D02*
X12521419Y-17714667D01*
X12521419Y-17714667D02*
X12502372Y-17705143D01*
X12502372Y-17705143D02*
X12473800Y-17705143D01*
X12473800Y-17705143D02*
X12454752Y-17714667D01*
X12454752Y-17714667D02*
X12445229Y-17724190D01*
X12654752Y-17838476D02*
X12635705Y-17828952D01*
X12635705Y-17828952D02*
X12626181Y-17819429D01*
X12626181Y-17819429D02*
X12616657Y-17800381D01*
X12616657Y-17800381D02*
X12616657Y-17743238D01*
X12616657Y-17743238D02*
X12626181Y-17724190D01*
X12626181Y-17724190D02*
X12635705Y-17714667D01*
X12635705Y-17714667D02*
X12654752Y-17705143D01*
X12654752Y-17705143D02*
X12683324Y-17705143D01*
X12683324Y-17705143D02*
X12702372Y-17714667D01*
X12702372Y-17714667D02*
X12711895Y-17724190D01*
X12711895Y-17724190D02*
X12721419Y-17743238D01*
X12721419Y-17743238D02*
X12721419Y-17800381D01*
X12721419Y-17800381D02*
X12711895Y-17819429D01*
X12711895Y-17819429D02*
X12702372Y-17828952D01*
X12702372Y-17828952D02*
X12683324Y-17838476D01*
X12683324Y-17838476D02*
X12654752Y-17838476D01*
X12835705Y-17838476D02*
X12816657Y-17828952D01*
X12816657Y-17828952D02*
X12807133Y-17809905D01*
X12807133Y-17809905D02*
X12807133Y-17638476D01*
X12988086Y-17828952D02*
X12969038Y-17838476D01*
X12969038Y-17838476D02*
X12930943Y-17838476D01*
X12930943Y-17838476D02*
X12911895Y-17828952D01*
X12911895Y-17828952D02*
X12902372Y-17809905D01*
X12902372Y-17809905D02*
X12902372Y-17733714D01*
X12902372Y-17733714D02*
X12911895Y-17714667D01*
X12911895Y-17714667D02*
X12930943Y-17705143D01*
X12930943Y-17705143D02*
X12969038Y-17705143D01*
X12969038Y-17705143D02*
X12988086Y-17714667D01*
X12988086Y-17714667D02*
X12997610Y-17733714D01*
X12997610Y-17733714D02*
X12997610Y-17752762D01*
X12997610Y-17752762D02*
X12902372Y-17771810D01*
X13073800Y-17828952D02*
X13092848Y-17838476D01*
X13092848Y-17838476D02*
X13130943Y-17838476D01*
X13130943Y-17838476D02*
X13149991Y-17828952D01*
X13149991Y-17828952D02*
X13159514Y-17809905D01*
X13159514Y-17809905D02*
X13159514Y-17800381D01*
X13159514Y-17800381D02*
X13149991Y-17781333D01*
X13149991Y-17781333D02*
X13130943Y-17771810D01*
X13130943Y-17771810D02*
X13102372Y-17771810D01*
X13102372Y-17771810D02*
X13083324Y-17762286D01*
X13083324Y-17762286D02*
X13073800Y-17743238D01*
X13073800Y-17743238D02*
X13073800Y-17733714D01*
X13073800Y-17733714D02*
X13083324Y-17714667D01*
X13083324Y-17714667D02*
X13102372Y-17705143D01*
X13102372Y-17705143D02*
X13130943Y-17705143D01*
X13130943Y-17705143D02*
X13149991Y-17714667D01*
X13226181Y-17914667D02*
X13235705Y-17905143D01*
X13235705Y-17905143D02*
X13254753Y-17876571D01*
X13254753Y-17876571D02*
X13264276Y-17857524D01*
X13264276Y-17857524D02*
X13273800Y-17828952D01*
X13273800Y-17828952D02*
X13283324Y-17781333D01*
X13283324Y-17781333D02*
X13283324Y-17743238D01*
X13283324Y-17743238D02*
X13273800Y-17695619D01*
X13273800Y-17695619D02*
X13264276Y-17667048D01*
X13264276Y-17667048D02*
X13254753Y-17648000D01*
X13254753Y-17648000D02*
X13235705Y-17619429D01*
X13235705Y-17619429D02*
X13226181Y-17609905D01*
X13555705Y-17914667D02*
X13546181Y-17905143D01*
X13546181Y-17905143D02*
X13527133Y-17876571D01*
X13527133Y-17876571D02*
X13517610Y-17857524D01*
X13517610Y-17857524D02*
X13508086Y-17828952D01*
X13508086Y-17828952D02*
X13498562Y-17781333D01*
X13498562Y-17781333D02*
X13498562Y-17743238D01*
X13498562Y-17743238D02*
X13508086Y-17695619D01*
X13508086Y-17695619D02*
X13517610Y-17667048D01*
X13517610Y-17667048D02*
X13527133Y-17648000D01*
X13527133Y-17648000D02*
X13546181Y-17619429D01*
X13546181Y-17619429D02*
X13555705Y-17609905D01*
X13631895Y-17705143D02*
X13631895Y-17838476D01*
X13631895Y-17724190D02*
X13641419Y-17714667D01*
X13641419Y-17714667D02*
X13660467Y-17705143D01*
X13660467Y-17705143D02*
X13689038Y-17705143D01*
X13689038Y-17705143D02*
X13708086Y-17714667D01*
X13708086Y-17714667D02*
X13717610Y-17733714D01*
X13717610Y-17733714D02*
X13717610Y-17838476D01*
X13841419Y-17838476D02*
X13822372Y-17828952D01*
X13822372Y-17828952D02*
X13812848Y-17819429D01*
X13812848Y-17819429D02*
X13803324Y-17800381D01*
X13803324Y-17800381D02*
X13803324Y-17743238D01*
X13803324Y-17743238D02*
X13812848Y-17724190D01*
X13812848Y-17724190D02*
X13822372Y-17714667D01*
X13822372Y-17714667D02*
X13841419Y-17705143D01*
X13841419Y-17705143D02*
X13869991Y-17705143D01*
X13869991Y-17705143D02*
X13889038Y-17714667D01*
X13889038Y-17714667D02*
X13898562Y-17724190D01*
X13898562Y-17724190D02*
X13908086Y-17743238D01*
X13908086Y-17743238D02*
X13908086Y-17800381D01*
X13908086Y-17800381D02*
X13898562Y-17819429D01*
X13898562Y-17819429D02*
X13889038Y-17828952D01*
X13889038Y-17828952D02*
X13869991Y-17838476D01*
X13869991Y-17838476D02*
X13841419Y-17838476D01*
X13965229Y-17705143D02*
X14041419Y-17705143D01*
X13993800Y-17638476D02*
X13993800Y-17809905D01*
X13993800Y-17809905D02*
X14003324Y-17828952D01*
X14003324Y-17828952D02*
X14022372Y-17838476D01*
X14022372Y-17838476D02*
X14041419Y-17838476D01*
X14228086Y-17705143D02*
X14228086Y-17905143D01*
X14228086Y-17714667D02*
X14247133Y-17705143D01*
X14247133Y-17705143D02*
X14285229Y-17705143D01*
X14285229Y-17705143D02*
X14304276Y-17714667D01*
X14304276Y-17714667D02*
X14313800Y-17724190D01*
X14313800Y-17724190D02*
X14323324Y-17743238D01*
X14323324Y-17743238D02*
X14323324Y-17800381D01*
X14323324Y-17800381D02*
X14313800Y-17819429D01*
X14313800Y-17819429D02*
X14304276Y-17828952D01*
X14304276Y-17828952D02*
X14285229Y-17838476D01*
X14285229Y-17838476D02*
X14247133Y-17838476D01*
X14247133Y-17838476D02*
X14228086Y-17828952D01*
X14437610Y-17838476D02*
X14418562Y-17828952D01*
X14418562Y-17828952D02*
X14409038Y-17809905D01*
X14409038Y-17809905D02*
X14409038Y-17638476D01*
X14599514Y-17838476D02*
X14599514Y-17733714D01*
X14599514Y-17733714D02*
X14589991Y-17714667D01*
X14589991Y-17714667D02*
X14570943Y-17705143D01*
X14570943Y-17705143D02*
X14532848Y-17705143D01*
X14532848Y-17705143D02*
X14513800Y-17714667D01*
X14599514Y-17828952D02*
X14580467Y-17838476D01*
X14580467Y-17838476D02*
X14532848Y-17838476D01*
X14532848Y-17838476D02*
X14513800Y-17828952D01*
X14513800Y-17828952D02*
X14504276Y-17809905D01*
X14504276Y-17809905D02*
X14504276Y-17790857D01*
X14504276Y-17790857D02*
X14513800Y-17771810D01*
X14513800Y-17771810D02*
X14532848Y-17762286D01*
X14532848Y-17762286D02*
X14580467Y-17762286D01*
X14580467Y-17762286D02*
X14599514Y-17752762D01*
X14666181Y-17705143D02*
X14742372Y-17705143D01*
X14694753Y-17638476D02*
X14694753Y-17809905D01*
X14694753Y-17809905D02*
X14704276Y-17828952D01*
X14704276Y-17828952D02*
X14723324Y-17838476D01*
X14723324Y-17838476D02*
X14742372Y-17838476D01*
X14885229Y-17828952D02*
X14866181Y-17838476D01*
X14866181Y-17838476D02*
X14828086Y-17838476D01*
X14828086Y-17838476D02*
X14809038Y-17828952D01*
X14809038Y-17828952D02*
X14799514Y-17809905D01*
X14799514Y-17809905D02*
X14799514Y-17733714D01*
X14799514Y-17733714D02*
X14809038Y-17714667D01*
X14809038Y-17714667D02*
X14828086Y-17705143D01*
X14828086Y-17705143D02*
X14866181Y-17705143D01*
X14866181Y-17705143D02*
X14885229Y-17714667D01*
X14885229Y-17714667D02*
X14894753Y-17733714D01*
X14894753Y-17733714D02*
X14894753Y-17752762D01*
X14894753Y-17752762D02*
X14799514Y-17771810D01*
X15066181Y-17838476D02*
X15066181Y-17638476D01*
X15066181Y-17828952D02*
X15047134Y-17838476D01*
X15047134Y-17838476D02*
X15009038Y-17838476D01*
X15009038Y-17838476D02*
X14989991Y-17828952D01*
X14989991Y-17828952D02*
X14980467Y-17819429D01*
X14980467Y-17819429D02*
X14970943Y-17800381D01*
X14970943Y-17800381D02*
X14970943Y-17743238D01*
X14970943Y-17743238D02*
X14980467Y-17724190D01*
X14980467Y-17724190D02*
X14989991Y-17714667D01*
X14989991Y-17714667D02*
X15009038Y-17705143D01*
X15009038Y-17705143D02*
X15047134Y-17705143D01*
X15047134Y-17705143D02*
X15066181Y-17714667D01*
X15142372Y-17914667D02*
X15151895Y-17905143D01*
X15151895Y-17905143D02*
X15170943Y-17876571D01*
X15170943Y-17876571D02*
X15180467Y-17857524D01*
X15180467Y-17857524D02*
X15189991Y-17828952D01*
X15189991Y-17828952D02*
X15199514Y-17781333D01*
X15199514Y-17781333D02*
X15199514Y-17743238D01*
X15199514Y-17743238D02*
X15189991Y-17695619D01*
X15189991Y-17695619D02*
X15180467Y-17667048D01*
X15180467Y-17667048D02*
X15170943Y-17648000D01*
X15170943Y-17648000D02*
X15151895Y-17619429D01*
X15151895Y-17619429D02*
X15142372Y-17609905D01*
D13*
X8593800Y-18012000D02*
G75*
G03*
X8593800Y-18012000I-49530J0D01*
G01*
D11*
X8879514Y-17902476D02*
X8898562Y-17902476D01*
X8898562Y-17902476D02*
X8917610Y-17912000D01*
X8917610Y-17912000D02*
X8927133Y-17921524D01*
X8927133Y-17921524D02*
X8936657Y-17940571D01*
X8936657Y-17940571D02*
X8946181Y-17978667D01*
X8946181Y-17978667D02*
X8946181Y-18026286D01*
X8946181Y-18026286D02*
X8936657Y-18064381D01*
X8936657Y-18064381D02*
X8927133Y-18083429D01*
X8927133Y-18083429D02*
X8917610Y-18092952D01*
X8917610Y-18092952D02*
X8898562Y-18102476D01*
X8898562Y-18102476D02*
X8879514Y-18102476D01*
X8879514Y-18102476D02*
X8860467Y-18092952D01*
X8860467Y-18092952D02*
X8850943Y-18083429D01*
X8850943Y-18083429D02*
X8841419Y-18064381D01*
X8841419Y-18064381D02*
X8831895Y-18026286D01*
X8831895Y-18026286D02*
X8831895Y-17978667D01*
X8831895Y-17978667D02*
X8841419Y-17940571D01*
X8841419Y-17940571D02*
X8850943Y-17921524D01*
X8850943Y-17921524D02*
X8860467Y-17912000D01*
X8860467Y-17912000D02*
X8879514Y-17902476D01*
X9031895Y-18083429D02*
X9041419Y-18092952D01*
X9041419Y-18092952D02*
X9031895Y-18102476D01*
X9031895Y-18102476D02*
X9022371Y-18092952D01*
X9022371Y-18092952D02*
X9031895Y-18083429D01*
X9031895Y-18083429D02*
X9031895Y-18102476D01*
X9136657Y-18102476D02*
X9174752Y-18102476D01*
X9174752Y-18102476D02*
X9193800Y-18092952D01*
X9193800Y-18092952D02*
X9203324Y-18083429D01*
X9203324Y-18083429D02*
X9222371Y-18054857D01*
X9222371Y-18054857D02*
X9231895Y-18016762D01*
X9231895Y-18016762D02*
X9231895Y-17940571D01*
X9231895Y-17940571D02*
X9222371Y-17921524D01*
X9222371Y-17921524D02*
X9212848Y-17912000D01*
X9212848Y-17912000D02*
X9193800Y-17902476D01*
X9193800Y-17902476D02*
X9155705Y-17902476D01*
X9155705Y-17902476D02*
X9136657Y-17912000D01*
X9136657Y-17912000D02*
X9127133Y-17921524D01*
X9127133Y-17921524D02*
X9117610Y-17940571D01*
X9117610Y-17940571D02*
X9117610Y-17988190D01*
X9117610Y-17988190D02*
X9127133Y-18007238D01*
X9127133Y-18007238D02*
X9136657Y-18016762D01*
X9136657Y-18016762D02*
X9155705Y-18026286D01*
X9155705Y-18026286D02*
X9193800Y-18026286D01*
X9193800Y-18026286D02*
X9212848Y-18016762D01*
X9212848Y-18016762D02*
X9222371Y-18007238D01*
X9222371Y-18007238D02*
X9231895Y-17988190D01*
X9327133Y-18102476D02*
X9365229Y-18102476D01*
X9365229Y-18102476D02*
X9384276Y-18092952D01*
X9384276Y-18092952D02*
X9393800Y-18083429D01*
X9393800Y-18083429D02*
X9412848Y-18054857D01*
X9412848Y-18054857D02*
X9422371Y-18016762D01*
X9422371Y-18016762D02*
X9422371Y-17940571D01*
X9422371Y-17940571D02*
X9412848Y-17921524D01*
X9412848Y-17921524D02*
X9403324Y-17912000D01*
X9403324Y-17912000D02*
X9384276Y-17902476D01*
X9384276Y-17902476D02*
X9346181Y-17902476D01*
X9346181Y-17902476D02*
X9327133Y-17912000D01*
X9327133Y-17912000D02*
X9317610Y-17921524D01*
X9317610Y-17921524D02*
X9308086Y-17940571D01*
X9308086Y-17940571D02*
X9308086Y-17988190D01*
X9308086Y-17988190D02*
X9317610Y-18007238D01*
X9317610Y-18007238D02*
X9327133Y-18016762D01*
X9327133Y-18016762D02*
X9346181Y-18026286D01*
X9346181Y-18026286D02*
X9384276Y-18026286D01*
X9384276Y-18026286D02*
X9403324Y-18016762D01*
X9403324Y-18016762D02*
X9412848Y-18007238D01*
X9412848Y-18007238D02*
X9422371Y-17988190D01*
X9612848Y-18102476D02*
X9498562Y-18102476D01*
X9555705Y-18102476D02*
X9555705Y-17902476D01*
X9555705Y-17902476D02*
X9536657Y-17931048D01*
X9536657Y-17931048D02*
X9517610Y-17950095D01*
X9517610Y-17950095D02*
X9498562Y-17959619D01*
X9698562Y-18102476D02*
X9698562Y-17969143D01*
X9698562Y-17988190D02*
X9708086Y-17978667D01*
X9708086Y-17978667D02*
X9727133Y-17969143D01*
X9727133Y-17969143D02*
X9755705Y-17969143D01*
X9755705Y-17969143D02*
X9774752Y-17978667D01*
X9774752Y-17978667D02*
X9784276Y-17997714D01*
X9784276Y-17997714D02*
X9784276Y-18102476D01*
X9784276Y-17997714D02*
X9793800Y-17978667D01*
X9793800Y-17978667D02*
X9812848Y-17969143D01*
X9812848Y-17969143D02*
X9841419Y-17969143D01*
X9841419Y-17969143D02*
X9860467Y-17978667D01*
X9860467Y-17978667D02*
X9869991Y-17997714D01*
X9869991Y-17997714D02*
X9869991Y-18102476D01*
X9965229Y-18102476D02*
X9965229Y-17969143D01*
X9965229Y-17988190D02*
X9974752Y-17978667D01*
X9974752Y-17978667D02*
X9993800Y-17969143D01*
X9993800Y-17969143D02*
X10022372Y-17969143D01*
X10022372Y-17969143D02*
X10041419Y-17978667D01*
X10041419Y-17978667D02*
X10050943Y-17997714D01*
X10050943Y-17997714D02*
X10050943Y-18102476D01*
X10050943Y-17997714D02*
X10060467Y-17978667D01*
X10060467Y-17978667D02*
X10079514Y-17969143D01*
X10079514Y-17969143D02*
X10108086Y-17969143D01*
X10108086Y-17969143D02*
X10127133Y-17978667D01*
X10127133Y-17978667D02*
X10136657Y-17997714D01*
X10136657Y-17997714D02*
X10136657Y-18102476D01*
X10494752Y-17892952D02*
X10323324Y-18150095D01*
X10719514Y-17902476D02*
X10738562Y-17902476D01*
X10738562Y-17902476D02*
X10757610Y-17912000D01*
X10757610Y-17912000D02*
X10767133Y-17921524D01*
X10767133Y-17921524D02*
X10776657Y-17940571D01*
X10776657Y-17940571D02*
X10786181Y-17978667D01*
X10786181Y-17978667D02*
X10786181Y-18026286D01*
X10786181Y-18026286D02*
X10776657Y-18064381D01*
X10776657Y-18064381D02*
X10767133Y-18083429D01*
X10767133Y-18083429D02*
X10757610Y-18092952D01*
X10757610Y-18092952D02*
X10738562Y-18102476D01*
X10738562Y-18102476D02*
X10719514Y-18102476D01*
X10719514Y-18102476D02*
X10700467Y-18092952D01*
X10700467Y-18092952D02*
X10690943Y-18083429D01*
X10690943Y-18083429D02*
X10681419Y-18064381D01*
X10681419Y-18064381D02*
X10671895Y-18026286D01*
X10671895Y-18026286D02*
X10671895Y-17978667D01*
X10671895Y-17978667D02*
X10681419Y-17940571D01*
X10681419Y-17940571D02*
X10690943Y-17921524D01*
X10690943Y-17921524D02*
X10700467Y-17912000D01*
X10700467Y-17912000D02*
X10719514Y-17902476D01*
X10871895Y-18083429D02*
X10881419Y-18092952D01*
X10881419Y-18092952D02*
X10871895Y-18102476D01*
X10871895Y-18102476D02*
X10862372Y-18092952D01*
X10862372Y-18092952D02*
X10871895Y-18083429D01*
X10871895Y-18083429D02*
X10871895Y-18102476D01*
X11005229Y-17902476D02*
X11024276Y-17902476D01*
X11024276Y-17902476D02*
X11043324Y-17912000D01*
X11043324Y-17912000D02*
X11052848Y-17921524D01*
X11052848Y-17921524D02*
X11062372Y-17940571D01*
X11062372Y-17940571D02*
X11071895Y-17978667D01*
X11071895Y-17978667D02*
X11071895Y-18026286D01*
X11071895Y-18026286D02*
X11062372Y-18064381D01*
X11062372Y-18064381D02*
X11052848Y-18083429D01*
X11052848Y-18083429D02*
X11043324Y-18092952D01*
X11043324Y-18092952D02*
X11024276Y-18102476D01*
X11024276Y-18102476D02*
X11005229Y-18102476D01*
X11005229Y-18102476D02*
X10986181Y-18092952D01*
X10986181Y-18092952D02*
X10976657Y-18083429D01*
X10976657Y-18083429D02*
X10967133Y-18064381D01*
X10967133Y-18064381D02*
X10957610Y-18026286D01*
X10957610Y-18026286D02*
X10957610Y-17978667D01*
X10957610Y-17978667D02*
X10967133Y-17940571D01*
X10967133Y-17940571D02*
X10976657Y-17921524D01*
X10976657Y-17921524D02*
X10986181Y-17912000D01*
X10986181Y-17912000D02*
X11005229Y-17902476D01*
X11138562Y-17902476D02*
X11262371Y-17902476D01*
X11262371Y-17902476D02*
X11195705Y-17978667D01*
X11195705Y-17978667D02*
X11224276Y-17978667D01*
X11224276Y-17978667D02*
X11243324Y-17988190D01*
X11243324Y-17988190D02*
X11252848Y-17997714D01*
X11252848Y-17997714D02*
X11262371Y-18016762D01*
X11262371Y-18016762D02*
X11262371Y-18064381D01*
X11262371Y-18064381D02*
X11252848Y-18083429D01*
X11252848Y-18083429D02*
X11243324Y-18092952D01*
X11243324Y-18092952D02*
X11224276Y-18102476D01*
X11224276Y-18102476D02*
X11167133Y-18102476D01*
X11167133Y-18102476D02*
X11148086Y-18092952D01*
X11148086Y-18092952D02*
X11138562Y-18083429D01*
X11357610Y-18102476D02*
X11395705Y-18102476D01*
X11395705Y-18102476D02*
X11414752Y-18092952D01*
X11414752Y-18092952D02*
X11424276Y-18083429D01*
X11424276Y-18083429D02*
X11443324Y-18054857D01*
X11443324Y-18054857D02*
X11452848Y-18016762D01*
X11452848Y-18016762D02*
X11452848Y-17940571D01*
X11452848Y-17940571D02*
X11443324Y-17921524D01*
X11443324Y-17921524D02*
X11433800Y-17912000D01*
X11433800Y-17912000D02*
X11414752Y-17902476D01*
X11414752Y-17902476D02*
X11376657Y-17902476D01*
X11376657Y-17902476D02*
X11357610Y-17912000D01*
X11357610Y-17912000D02*
X11348086Y-17921524D01*
X11348086Y-17921524D02*
X11338562Y-17940571D01*
X11338562Y-17940571D02*
X11338562Y-17988190D01*
X11338562Y-17988190D02*
X11348086Y-18007238D01*
X11348086Y-18007238D02*
X11357610Y-18016762D01*
X11357610Y-18016762D02*
X11376657Y-18026286D01*
X11376657Y-18026286D02*
X11414752Y-18026286D01*
X11414752Y-18026286D02*
X11433800Y-18016762D01*
X11433800Y-18016762D02*
X11443324Y-18007238D01*
X11443324Y-18007238D02*
X11452848Y-17988190D01*
X11576657Y-17902476D02*
X11595705Y-17902476D01*
X11595705Y-17902476D02*
X11614752Y-17912000D01*
X11614752Y-17912000D02*
X11624276Y-17921524D01*
X11624276Y-17921524D02*
X11633800Y-17940571D01*
X11633800Y-17940571D02*
X11643324Y-17978667D01*
X11643324Y-17978667D02*
X11643324Y-18026286D01*
X11643324Y-18026286D02*
X11633800Y-18064381D01*
X11633800Y-18064381D02*
X11624276Y-18083429D01*
X11624276Y-18083429D02*
X11614752Y-18092952D01*
X11614752Y-18092952D02*
X11595705Y-18102476D01*
X11595705Y-18102476D02*
X11576657Y-18102476D01*
X11576657Y-18102476D02*
X11557610Y-18092952D01*
X11557610Y-18092952D02*
X11548086Y-18083429D01*
X11548086Y-18083429D02*
X11538562Y-18064381D01*
X11538562Y-18064381D02*
X11529038Y-18026286D01*
X11529038Y-18026286D02*
X11529038Y-17978667D01*
X11529038Y-17978667D02*
X11538562Y-17940571D01*
X11538562Y-17940571D02*
X11548086Y-17921524D01*
X11548086Y-17921524D02*
X11557610Y-17912000D01*
X11557610Y-17912000D02*
X11576657Y-17902476D01*
X11719514Y-17902476D02*
X11719514Y-17940571D01*
X11795705Y-17902476D02*
X11795705Y-17940571D01*
X12058562Y-18178667D02*
X12049038Y-18169143D01*
X12049038Y-18169143D02*
X12029991Y-18140571D01*
X12029991Y-18140571D02*
X12020467Y-18121524D01*
X12020467Y-18121524D02*
X12010943Y-18092952D01*
X12010943Y-18092952D02*
X12001419Y-18045333D01*
X12001419Y-18045333D02*
X12001419Y-18007238D01*
X12001419Y-18007238D02*
X12010943Y-17959619D01*
X12010943Y-17959619D02*
X12020467Y-17931048D01*
X12020467Y-17931048D02*
X12029991Y-17912000D01*
X12029991Y-17912000D02*
X12049038Y-17883429D01*
X12049038Y-17883429D02*
X12058562Y-17873905D01*
X12115705Y-17902476D02*
X12239514Y-17902476D01*
X12239514Y-17902476D02*
X12172848Y-17978667D01*
X12172848Y-17978667D02*
X12201419Y-17978667D01*
X12201419Y-17978667D02*
X12220467Y-17988190D01*
X12220467Y-17988190D02*
X12229991Y-17997714D01*
X12229991Y-17997714D02*
X12239514Y-18016762D01*
X12239514Y-18016762D02*
X12239514Y-18064381D01*
X12239514Y-18064381D02*
X12229991Y-18083429D01*
X12229991Y-18083429D02*
X12220467Y-18092952D01*
X12220467Y-18092952D02*
X12201419Y-18102476D01*
X12201419Y-18102476D02*
X12144276Y-18102476D01*
X12144276Y-18102476D02*
X12125229Y-18092952D01*
X12125229Y-18092952D02*
X12115705Y-18083429D01*
X12445229Y-18102476D02*
X12445229Y-17902476D01*
X12530943Y-18102476D02*
X12530943Y-17997714D01*
X12530943Y-17997714D02*
X12521419Y-17978667D01*
X12521419Y-17978667D02*
X12502372Y-17969143D01*
X12502372Y-17969143D02*
X12473800Y-17969143D01*
X12473800Y-17969143D02*
X12454752Y-17978667D01*
X12454752Y-17978667D02*
X12445229Y-17988190D01*
X12654752Y-18102476D02*
X12635705Y-18092952D01*
X12635705Y-18092952D02*
X12626181Y-18083429D01*
X12626181Y-18083429D02*
X12616657Y-18064381D01*
X12616657Y-18064381D02*
X12616657Y-18007238D01*
X12616657Y-18007238D02*
X12626181Y-17988190D01*
X12626181Y-17988190D02*
X12635705Y-17978667D01*
X12635705Y-17978667D02*
X12654752Y-17969143D01*
X12654752Y-17969143D02*
X12683324Y-17969143D01*
X12683324Y-17969143D02*
X12702372Y-17978667D01*
X12702372Y-17978667D02*
X12711895Y-17988190D01*
X12711895Y-17988190D02*
X12721419Y-18007238D01*
X12721419Y-18007238D02*
X12721419Y-18064381D01*
X12721419Y-18064381D02*
X12711895Y-18083429D01*
X12711895Y-18083429D02*
X12702372Y-18092952D01*
X12702372Y-18092952D02*
X12683324Y-18102476D01*
X12683324Y-18102476D02*
X12654752Y-18102476D01*
X12835705Y-18102476D02*
X12816657Y-18092952D01*
X12816657Y-18092952D02*
X12807133Y-18073905D01*
X12807133Y-18073905D02*
X12807133Y-17902476D01*
X12988086Y-18092952D02*
X12969038Y-18102476D01*
X12969038Y-18102476D02*
X12930943Y-18102476D01*
X12930943Y-18102476D02*
X12911895Y-18092952D01*
X12911895Y-18092952D02*
X12902372Y-18073905D01*
X12902372Y-18073905D02*
X12902372Y-17997714D01*
X12902372Y-17997714D02*
X12911895Y-17978667D01*
X12911895Y-17978667D02*
X12930943Y-17969143D01*
X12930943Y-17969143D02*
X12969038Y-17969143D01*
X12969038Y-17969143D02*
X12988086Y-17978667D01*
X12988086Y-17978667D02*
X12997610Y-17997714D01*
X12997610Y-17997714D02*
X12997610Y-18016762D01*
X12997610Y-18016762D02*
X12902372Y-18035810D01*
X13073800Y-18092952D02*
X13092848Y-18102476D01*
X13092848Y-18102476D02*
X13130943Y-18102476D01*
X13130943Y-18102476D02*
X13149991Y-18092952D01*
X13149991Y-18092952D02*
X13159514Y-18073905D01*
X13159514Y-18073905D02*
X13159514Y-18064381D01*
X13159514Y-18064381D02*
X13149991Y-18045333D01*
X13149991Y-18045333D02*
X13130943Y-18035810D01*
X13130943Y-18035810D02*
X13102372Y-18035810D01*
X13102372Y-18035810D02*
X13083324Y-18026286D01*
X13083324Y-18026286D02*
X13073800Y-18007238D01*
X13073800Y-18007238D02*
X13073800Y-17997714D01*
X13073800Y-17997714D02*
X13083324Y-17978667D01*
X13083324Y-17978667D02*
X13102372Y-17969143D01*
X13102372Y-17969143D02*
X13130943Y-17969143D01*
X13130943Y-17969143D02*
X13149991Y-17978667D01*
X13226181Y-18178667D02*
X13235705Y-18169143D01*
X13235705Y-18169143D02*
X13254753Y-18140571D01*
X13254753Y-18140571D02*
X13264276Y-18121524D01*
X13264276Y-18121524D02*
X13273800Y-18092952D01*
X13273800Y-18092952D02*
X13283324Y-18045333D01*
X13283324Y-18045333D02*
X13283324Y-18007238D01*
X13283324Y-18007238D02*
X13273800Y-17959619D01*
X13273800Y-17959619D02*
X13264276Y-17931048D01*
X13264276Y-17931048D02*
X13254753Y-17912000D01*
X13254753Y-17912000D02*
X13235705Y-17883429D01*
X13235705Y-17883429D02*
X13226181Y-17873905D01*
X13555705Y-18178667D02*
X13546181Y-18169143D01*
X13546181Y-18169143D02*
X13527133Y-18140571D01*
X13527133Y-18140571D02*
X13517610Y-18121524D01*
X13517610Y-18121524D02*
X13508086Y-18092952D01*
X13508086Y-18092952D02*
X13498562Y-18045333D01*
X13498562Y-18045333D02*
X13498562Y-18007238D01*
X13498562Y-18007238D02*
X13508086Y-17959619D01*
X13508086Y-17959619D02*
X13517610Y-17931048D01*
X13517610Y-17931048D02*
X13527133Y-17912000D01*
X13527133Y-17912000D02*
X13546181Y-17883429D01*
X13546181Y-17883429D02*
X13555705Y-17873905D01*
X13631895Y-17969143D02*
X13631895Y-18102476D01*
X13631895Y-17988190D02*
X13641419Y-17978667D01*
X13641419Y-17978667D02*
X13660467Y-17969143D01*
X13660467Y-17969143D02*
X13689038Y-17969143D01*
X13689038Y-17969143D02*
X13708086Y-17978667D01*
X13708086Y-17978667D02*
X13717610Y-17997714D01*
X13717610Y-17997714D02*
X13717610Y-18102476D01*
X13841419Y-18102476D02*
X13822372Y-18092952D01*
X13822372Y-18092952D02*
X13812848Y-18083429D01*
X13812848Y-18083429D02*
X13803324Y-18064381D01*
X13803324Y-18064381D02*
X13803324Y-18007238D01*
X13803324Y-18007238D02*
X13812848Y-17988190D01*
X13812848Y-17988190D02*
X13822372Y-17978667D01*
X13822372Y-17978667D02*
X13841419Y-17969143D01*
X13841419Y-17969143D02*
X13869991Y-17969143D01*
X13869991Y-17969143D02*
X13889038Y-17978667D01*
X13889038Y-17978667D02*
X13898562Y-17988190D01*
X13898562Y-17988190D02*
X13908086Y-18007238D01*
X13908086Y-18007238D02*
X13908086Y-18064381D01*
X13908086Y-18064381D02*
X13898562Y-18083429D01*
X13898562Y-18083429D02*
X13889038Y-18092952D01*
X13889038Y-18092952D02*
X13869991Y-18102476D01*
X13869991Y-18102476D02*
X13841419Y-18102476D01*
X13965229Y-17969143D02*
X14041419Y-17969143D01*
X13993800Y-17902476D02*
X13993800Y-18073905D01*
X13993800Y-18073905D02*
X14003324Y-18092952D01*
X14003324Y-18092952D02*
X14022372Y-18102476D01*
X14022372Y-18102476D02*
X14041419Y-18102476D01*
X14228086Y-17969143D02*
X14228086Y-18169143D01*
X14228086Y-17978667D02*
X14247133Y-17969143D01*
X14247133Y-17969143D02*
X14285229Y-17969143D01*
X14285229Y-17969143D02*
X14304276Y-17978667D01*
X14304276Y-17978667D02*
X14313800Y-17988190D01*
X14313800Y-17988190D02*
X14323324Y-18007238D01*
X14323324Y-18007238D02*
X14323324Y-18064381D01*
X14323324Y-18064381D02*
X14313800Y-18083429D01*
X14313800Y-18083429D02*
X14304276Y-18092952D01*
X14304276Y-18092952D02*
X14285229Y-18102476D01*
X14285229Y-18102476D02*
X14247133Y-18102476D01*
X14247133Y-18102476D02*
X14228086Y-18092952D01*
X14437610Y-18102476D02*
X14418562Y-18092952D01*
X14418562Y-18092952D02*
X14409038Y-18073905D01*
X14409038Y-18073905D02*
X14409038Y-17902476D01*
X14599514Y-18102476D02*
X14599514Y-17997714D01*
X14599514Y-17997714D02*
X14589991Y-17978667D01*
X14589991Y-17978667D02*
X14570943Y-17969143D01*
X14570943Y-17969143D02*
X14532848Y-17969143D01*
X14532848Y-17969143D02*
X14513800Y-17978667D01*
X14599514Y-18092952D02*
X14580467Y-18102476D01*
X14580467Y-18102476D02*
X14532848Y-18102476D01*
X14532848Y-18102476D02*
X14513800Y-18092952D01*
X14513800Y-18092952D02*
X14504276Y-18073905D01*
X14504276Y-18073905D02*
X14504276Y-18054857D01*
X14504276Y-18054857D02*
X14513800Y-18035810D01*
X14513800Y-18035810D02*
X14532848Y-18026286D01*
X14532848Y-18026286D02*
X14580467Y-18026286D01*
X14580467Y-18026286D02*
X14599514Y-18016762D01*
X14666181Y-17969143D02*
X14742372Y-17969143D01*
X14694753Y-17902476D02*
X14694753Y-18073905D01*
X14694753Y-18073905D02*
X14704276Y-18092952D01*
X14704276Y-18092952D02*
X14723324Y-18102476D01*
X14723324Y-18102476D02*
X14742372Y-18102476D01*
X14885229Y-18092952D02*
X14866181Y-18102476D01*
X14866181Y-18102476D02*
X14828086Y-18102476D01*
X14828086Y-18102476D02*
X14809038Y-18092952D01*
X14809038Y-18092952D02*
X14799514Y-18073905D01*
X14799514Y-18073905D02*
X14799514Y-17997714D01*
X14799514Y-17997714D02*
X14809038Y-17978667D01*
X14809038Y-17978667D02*
X14828086Y-17969143D01*
X14828086Y-17969143D02*
X14866181Y-17969143D01*
X14866181Y-17969143D02*
X14885229Y-17978667D01*
X14885229Y-17978667D02*
X14894753Y-17997714D01*
X14894753Y-17997714D02*
X14894753Y-18016762D01*
X14894753Y-18016762D02*
X14799514Y-18035810D01*
X15066181Y-18102476D02*
X15066181Y-17902476D01*
X15066181Y-18092952D02*
X15047134Y-18102476D01*
X15047134Y-18102476D02*
X15009038Y-18102476D01*
X15009038Y-18102476D02*
X14989991Y-18092952D01*
X14989991Y-18092952D02*
X14980467Y-18083429D01*
X14980467Y-18083429D02*
X14970943Y-18064381D01*
X14970943Y-18064381D02*
X14970943Y-18007238D01*
X14970943Y-18007238D02*
X14980467Y-17988190D01*
X14980467Y-17988190D02*
X14989991Y-17978667D01*
X14989991Y-17978667D02*
X15009038Y-17969143D01*
X15009038Y-17969143D02*
X15047134Y-17969143D01*
X15047134Y-17969143D02*
X15066181Y-17978667D01*
X15142372Y-18178667D02*
X15151895Y-18169143D01*
X15151895Y-18169143D02*
X15170943Y-18140571D01*
X15170943Y-18140571D02*
X15180467Y-18121524D01*
X15180467Y-18121524D02*
X15189991Y-18092952D01*
X15189991Y-18092952D02*
X15199514Y-18045333D01*
X15199514Y-18045333D02*
X15199514Y-18007238D01*
X15199514Y-18007238D02*
X15189991Y-17959619D01*
X15189991Y-17959619D02*
X15180467Y-17931048D01*
X15180467Y-17931048D02*
X15170943Y-17912000D01*
X15170943Y-17912000D02*
X15151895Y-17883429D01*
X15151895Y-17883429D02*
X15142372Y-17873905D01*
M02*
