%TF.GenerationSoftware,KiCad,Pcbnew,(6.99.0-874-g7b84e0a7d9-dirty)*%
%TF.CreationDate,2022-02-14T21:42:15-05:00*%
%TF.ProjectId,MotorcycleBatterIsolator,4d6f746f-7263-4796-936c-654261747465,rev?*%
%TF.SameCoordinates,Original*%
%TF.FileFunction,Copper,L2,Bot*%
%TF.FilePolarity,Positive*%
%FSLAX46Y46*%
G04 Gerber Fmt 4.6, Leading zero omitted, Abs format (unit mm)*
G04 Created by KiCad (PCBNEW (6.99.0-874-g7b84e0a7d9-dirty)) date 2022-02-14 21:42:15*
%MOMM*%
%LPD*%
G01*
G04 APERTURE LIST*
%TA.AperFunction,Profile*%
%ADD10C,0.160000*%
%TD*%
%TA.AperFunction,ComponentPad*%
%ADD11C,5.600000*%
%TD*%
%TA.AperFunction,ComponentPad*%
%ADD12O,1.000000X2.100000*%
%TD*%
%TA.AperFunction,ComponentPad*%
%ADD13O,1.000000X1.600000*%
%TD*%
%TA.AperFunction,ComponentPad*%
%ADD14O,3.270000X6.230000*%
%TD*%
%TA.AperFunction,ComponentPad*%
%ADD15C,2.500000*%
%TD*%
%TA.AperFunction,ComponentPad*%
%ADD16R,1.600000X1.600000*%
%TD*%
%TA.AperFunction,ComponentPad*%
%ADD17C,1.600000*%
%TD*%
%TA.AperFunction,ComponentPad*%
%ADD18R,1.700000X1.700000*%
%TD*%
%TA.AperFunction,ComponentPad*%
%ADD19O,1.700000X1.700000*%
%TD*%
%TA.AperFunction,ComponentPad*%
%ADD20C,0.600000*%
%TD*%
%TA.AperFunction,ViaPad*%
%ADD21C,0.800000*%
%TD*%
%TA.AperFunction,ViaPad*%
%ADD22C,0.600000*%
%TD*%
%TA.AperFunction,ViaPad*%
%ADD23C,0.500000*%
%TD*%
%TA.AperFunction,Conductor*%
%ADD24C,0.200000*%
%TD*%
%TA.AperFunction,Conductor*%
%ADD25C,3.000000*%
%TD*%
%TA.AperFunction,Conductor*%
%ADD26C,0.500000*%
%TD*%
%TA.AperFunction,Conductor*%
%ADD27C,1.000000*%
%TD*%
%TA.AperFunction,Conductor*%
%ADD28C,0.250000*%
%TD*%
G04 APERTURE END LIST*
D10*
X100518000Y-132657000D02*
X100518000Y-140910000D01*
X97268000Y-144160000D02*
X89268000Y-144160000D01*
X86018000Y-147410000D02*
X86018000Y-159690000D01*
X89268000Y-162940000D02*
X100750000Y-162940000D01*
X104000000Y-166190000D02*
X104000000Y-167750000D01*
X107250000Y-171000000D02*
X159850000Y-171000000D01*
X163100000Y-167750000D02*
X163100000Y-166750000D01*
X163100000Y-166750000D02*
X163100000Y-146610000D01*
X161100000Y-144610000D02*
X160250000Y-144610000D01*
X157000000Y-141360000D02*
X157000000Y-132000000D01*
X158000000Y-131000000D02*
G75*
G03*
X158000000Y-123000000I0J4000000D01*
G01*
X157000000Y-122000000D02*
X157000000Y-106000000D01*
X153750000Y-102750000D02*
X148250000Y-102750000D01*
X138000000Y-102750000D02*
X116250000Y-102750000D01*
X113000000Y-106000000D02*
X113000000Y-117500000D01*
X110373000Y-120690000D02*
G75*
G03*
X100518000Y-132657000I2337159J-11966053D01*
G01*
X158000000Y-131000000D02*
G75*
G03*
X157000000Y-132000000I365J-1000365D01*
G01*
X157000000Y-141360000D02*
G75*
G03*
X160250000Y-144610000I3250331J331D01*
G01*
X163100000Y-146610000D02*
G75*
G03*
X161100000Y-144610000I-2000729J-729D01*
G01*
X157000000Y-122000000D02*
G75*
G03*
X158000000Y-123000000I1000365J365D01*
G01*
X157000000Y-106000000D02*
G75*
G03*
X153750000Y-102750000I-3250331J-331D01*
G01*
X116250000Y-102750000D02*
G75*
G03*
X113000000Y-106000000I331J-3250331D01*
G01*
X110373000Y-120690000D02*
G75*
G03*
X113000000Y-117500000I-623095J3189807D01*
G01*
X97268000Y-144160000D02*
G75*
G03*
X100518000Y-140910000I-331J3250331D01*
G01*
X89268000Y-144160000D02*
G75*
G03*
X86018000Y-147410000I-1375J-3248625D01*
G01*
X86018000Y-159690000D02*
G75*
G03*
X89268000Y-162940000I3248625J-1375D01*
G01*
X104000000Y-166190000D02*
G75*
G03*
X100750000Y-162940000I-3250331J-331D01*
G01*
X104000000Y-167750000D02*
G75*
G03*
X107250000Y-171000000I3250331J331D01*
G01*
X159850000Y-171000000D02*
G75*
G03*
X163100000Y-167750000I-331J3250331D01*
G01*
X138000000Y-102750000D02*
G75*
G03*
X148250000Y-102750000I5125000J6835000D01*
G01*
D11*
%TO.P,H4,1,1*%
%TO.N,GND*%
X108000000Y-127000000D03*
%TD*%
D12*
%TO.P,J5,S1,SHIELD*%
%TO.N,GND*%
X134569999Y-109629999D03*
D13*
X134569999Y-105449999D03*
D12*
X125929999Y-109629999D03*
D13*
X125929999Y-105449999D03*
%TD*%
D14*
%TO.P,J1,1,Pin_1*%
%TO.N,/Motorcycle+*%
X114117499Y-157499999D03*
%TO.P,J1,2,Pin_2*%
X106197499Y-157499999D03*
%TO.P,J1,3,Pin_3*%
%TO.N,GND*%
X114117499Y-149599999D03*
%TO.P,J1,4,Pin_4*%
X106197499Y-149599999D03*
D15*
%TO.P,J1,5*%
%TO.N,N/C*%
X88017500Y-160940000D03*
X88017500Y-146160000D03*
%TD*%
D11*
%TO.P,H2,1,1*%
%TO.N,GND*%
X153000000Y-106000000D03*
%TD*%
D16*
%TO.P,BZ1,1,-*%
%TO.N,+12V*%
X107749999Y-136249999D03*
D17*
%TO.P,BZ1,2,+*%
%TO.N,Net-(BZ1-+)*%
X114250000Y-136250000D03*
%TD*%
D11*
%TO.P,H3,1,1*%
%TO.N,GND*%
X158000000Y-167000000D03*
%TD*%
%TO.P,H5,1,1*%
%TO.N,GND*%
X158000000Y-127000000D03*
%TD*%
D18*
%TO.P,TH1,1*%
%TO.N,GND*%
X151874999Y-111474999D03*
D19*
%TO.P,TH1,2*%
%TO.N,/Thermistor*%
X151874999Y-114014999D03*
%TD*%
D14*
%TO.P,J4,1,Pin_1*%
%TO.N,/Battery+*%
X134999999Y-150049999D03*
%TO.P,J4,2,Pin_2*%
X142919999Y-150049999D03*
%TO.P,J4,3,Pin_3*%
%TO.N,GND*%
X134999999Y-157949999D03*
%TO.P,J4,4,Pin_4*%
X142919999Y-157949999D03*
D15*
%TO.P,J4,5*%
%TO.N,N/C*%
X161100000Y-146610000D03*
X161100000Y-161390000D03*
%TD*%
D11*
%TO.P,H1,1,1*%
%TO.N,GND*%
X108000000Y-167000000D03*
%TD*%
D20*
%TO.P,U5,57,GND*%
%TO.N,GND*%
X139575000Y-126285000D03*
X140850000Y-126285000D03*
X142125000Y-126285000D03*
X139575000Y-125010000D03*
X140850000Y-125010000D03*
X142125000Y-125010000D03*
X139575000Y-123735000D03*
X140850000Y-123735000D03*
X142125000Y-123735000D03*
%TD*%
D21*
%TO.N,/GATE_CTRL*%
X145109266Y-161909266D03*
X144550000Y-140450000D03*
X144550000Y-144200000D03*
X142550000Y-163100000D03*
D22*
%TO.N,Net-(J2-VDD)*%
X134600000Y-131750000D03*
X133400000Y-116650000D03*
%TO.N,GND*%
X134700000Y-115850000D03*
X118550000Y-124800000D03*
X145950000Y-118250000D03*
X147500000Y-133850000D03*
X153600000Y-142650000D03*
D21*
X127650000Y-136300000D03*
D22*
X131450000Y-126600000D03*
X142850000Y-132500000D03*
X145900000Y-127850000D03*
X144350000Y-119200000D03*
X133850000Y-134350000D03*
X145500000Y-126450000D03*
X134550000Y-124650000D03*
X133500000Y-111650000D03*
X138000000Y-133500000D03*
X133150000Y-166900000D03*
X130975000Y-134125000D03*
X149850000Y-138000000D03*
X136150000Y-128550000D03*
X145400000Y-105600000D03*
X140850000Y-116450000D03*
X124900000Y-136000000D03*
X126600000Y-112200000D03*
X154450000Y-119350000D03*
X125100000Y-121150000D03*
X122750000Y-119650000D03*
X121600000Y-119050000D03*
X132800000Y-124550000D03*
X145850000Y-141100000D03*
X116400000Y-133300000D03*
D21*
X142750000Y-167750000D03*
D22*
X118500000Y-139250000D03*
X141300000Y-134150000D03*
X148050000Y-120650000D03*
X138550000Y-117950000D03*
X137100000Y-131350000D03*
X137650000Y-128300000D03*
X151250000Y-127650000D03*
X149350000Y-123750000D03*
D21*
%TO.N,+3V3*%
X142850000Y-131450000D03*
X146500000Y-124600000D03*
X129000000Y-133900000D03*
X143450000Y-117800000D03*
X146975000Y-122925000D03*
D22*
X145800000Y-132800000D03*
X130600000Y-116250000D03*
D21*
X137297299Y-129199500D03*
X141000000Y-129450000D03*
X136973533Y-121962732D03*
X126050000Y-125400000D03*
X136262500Y-118687500D03*
X136060000Y-124410000D03*
D22*
%TO.N,+12V*%
X117950000Y-137300000D03*
X121800000Y-137150000D03*
D21*
X144300000Y-145650000D03*
X143400000Y-140050000D03*
D22*
%TO.N,Net-(D10-A)*%
X120500000Y-123300000D03*
X126550000Y-117700000D03*
%TO.N,Net-(D11-K)*%
X141149554Y-135399875D03*
X137950000Y-135300000D03*
D23*
%TO.N,/MotorcycleVoltage3v3*%
X138405974Y-120030183D03*
D21*
X134930438Y-129020940D03*
D23*
%TO.N,/BatteryVoltage3v3*%
X137750000Y-120300000D03*
D21*
X147650000Y-131750000D03*
%TO.N,/DAT0*%
X145599500Y-116150000D03*
X140200427Y-119970923D03*
%TO.N,/DAT1*%
X139976228Y-119047164D03*
X146084102Y-115333473D03*
%TO.N,Net-(J3-Pin_2)*%
X150400000Y-121400000D03*
X150400000Y-119850000D03*
%TO.N,/RST*%
X150900000Y-118950000D03*
X154500500Y-120483020D03*
%TO.N,/Battery+*%
X146650000Y-136200000D03*
X145705000Y-143655000D03*
%TO.N,/BUZZER_CTRL*%
X136954100Y-130084807D03*
X139381090Y-130057653D03*
%TO.N,/SCL*%
X145600000Y-137250000D03*
X150350000Y-139800000D03*
%TO.N,/SDA*%
X150550000Y-141100000D03*
X145300000Y-138250000D03*
%TO.N,Net-(U5-GPIO9)*%
X121149500Y-122050000D03*
X142853736Y-130000359D03*
%TO.N,Net-(U5-GPIO8)*%
X141908545Y-129909987D03*
X123300000Y-120700000D03*
D22*
%TO.N,Net-(Q2-S)*%
X133431885Y-165721244D03*
X126700000Y-160900000D03*
D21*
X142250000Y-168750000D03*
D23*
%TO.N,/Thermistor*%
X149359300Y-122190700D03*
X148000000Y-122900000D03*
X139051426Y-119957761D03*
%TD*%
D24*
%TO.N,/GATE_CTRL*%
X144550000Y-140450000D02*
X144550000Y-144200000D01*
X143740734Y-161909266D02*
X145109266Y-161909266D01*
X142550000Y-163100000D02*
X143740734Y-161909266D01*
%TO.N,Net-(J2-VDD)*%
X133400000Y-128409036D02*
X134600000Y-129609036D01*
X134600000Y-129609036D02*
X134600000Y-131750000D01*
X133400000Y-116650000D02*
X133400000Y-128409036D01*
D25*
%TO.N,/Motorcycle+*%
X106197500Y-157500000D02*
X114117500Y-157500000D01*
D26*
%TO.N,GND*%
X127650000Y-136300000D02*
X128800000Y-136300000D01*
D24*
X154450000Y-119350000D02*
X155150000Y-120050000D01*
X137100000Y-131350000D02*
X136150000Y-130400000D01*
X125100000Y-121150000D02*
X123600000Y-119650000D01*
X143000000Y-114300000D02*
X140850000Y-116450000D01*
X133500000Y-114650000D02*
X133500000Y-111650000D01*
X154050000Y-123244758D02*
X153349937Y-123944821D01*
X145500000Y-126450000D02*
X145335000Y-126285000D01*
X140650000Y-133500000D02*
X141300000Y-134150000D01*
X146450000Y-114300000D02*
X143000000Y-114300000D01*
X145950000Y-117550000D02*
X147000000Y-116500000D01*
X137650000Y-128210000D02*
X139575000Y-126285000D01*
X133150000Y-166900000D02*
X135650000Y-169400000D01*
X132800000Y-125250000D02*
X132800000Y-124550000D01*
D27*
X114117500Y-149600000D02*
X114117500Y-141782500D01*
D24*
X143300000Y-168250000D02*
X142800000Y-167750000D01*
X142850000Y-169400000D02*
X143300000Y-168950000D01*
D26*
X127650000Y-136300000D02*
X125200000Y-136300000D01*
D24*
X119550000Y-123800000D02*
X119550000Y-121000000D01*
X145335000Y-126285000D02*
X142125000Y-126285000D01*
X133850000Y-134350000D02*
X131200000Y-134350000D01*
X155150000Y-121850000D02*
X154050000Y-122950000D01*
X151250000Y-125650000D02*
X151250000Y-127650000D01*
D25*
X125300000Y-157950000D02*
X116950000Y-149600000D01*
D24*
X145300000Y-118250000D02*
X144350000Y-119200000D01*
X136150000Y-130400000D02*
X136150000Y-128550000D01*
X145900000Y-127850000D02*
X145900000Y-126850000D01*
X141250000Y-159620000D02*
X142920000Y-157950000D01*
X137650000Y-128300000D02*
X137650000Y-128210000D01*
X145950000Y-118250000D02*
X145300000Y-118250000D01*
X147500000Y-133850000D02*
X144200000Y-133850000D01*
X142750000Y-167750000D02*
X142750000Y-165200000D01*
X138000000Y-133500000D02*
X140650000Y-133500000D01*
X153349937Y-123944821D02*
X149544821Y-123944821D01*
X138550000Y-117950000D02*
X136800000Y-117950000D01*
X119550000Y-121000000D02*
X121500000Y-119050000D01*
X141300000Y-134050000D02*
X142850000Y-132500000D01*
X149350000Y-123750000D02*
X151250000Y-125650000D01*
X131450000Y-126600000D02*
X132800000Y-125250000D01*
X135650000Y-169400000D02*
X142850000Y-169400000D01*
X145950000Y-118250000D02*
X145950000Y-117550000D01*
X134700000Y-115850000D02*
X133500000Y-114650000D01*
X155150000Y-120050000D02*
X155150000Y-121850000D01*
X144200000Y-133850000D02*
X142850000Y-132500000D01*
X116400000Y-133300000D02*
X116400000Y-139000000D01*
X143300000Y-168950000D02*
X143300000Y-168250000D01*
X148050000Y-120650000D02*
X146600000Y-119200000D01*
D26*
X125200000Y-136300000D02*
X124900000Y-136000000D01*
D24*
X131200000Y-134350000D02*
X130975000Y-134125000D01*
X137150000Y-134350000D02*
X133850000Y-134350000D01*
X142750000Y-165200000D02*
X141250000Y-163700000D01*
X134550000Y-126950000D02*
X134550000Y-124650000D01*
X123600000Y-119650000D02*
X122750000Y-119650000D01*
D25*
X135000000Y-157950000D02*
X125300000Y-157950000D01*
D26*
X128800000Y-136300000D02*
X130975000Y-134125000D01*
D24*
X126600000Y-112200000D02*
X125930000Y-111530000D01*
X138000000Y-133500000D02*
X137150000Y-134350000D01*
X154050000Y-122950000D02*
X154050000Y-123244758D01*
X136150000Y-128550000D02*
X134550000Y-126950000D01*
X145900000Y-126850000D02*
X145500000Y-126450000D01*
X136800000Y-117950000D02*
X134700000Y-115850000D01*
X141250000Y-163700000D02*
X141250000Y-159620000D01*
X118550000Y-124800000D02*
X119550000Y-123800000D01*
X149544821Y-123944821D02*
X149350000Y-123750000D01*
X147000000Y-114850000D02*
X146450000Y-114300000D01*
D27*
X116650000Y-139250000D02*
X118500000Y-139250000D01*
D24*
X146600000Y-119200000D02*
X144350000Y-119200000D01*
X147000000Y-116500000D02*
X147000000Y-114850000D01*
X125930000Y-111530000D02*
X125930000Y-109630000D01*
X116400000Y-139000000D02*
X116650000Y-139250000D01*
D25*
X116950000Y-149600000D02*
X114117500Y-149600000D01*
D27*
X114117500Y-141782500D02*
X116650000Y-139250000D01*
D24*
X142800000Y-167750000D02*
X142750000Y-167750000D01*
X121500000Y-119050000D02*
X121600000Y-119050000D01*
X141300000Y-134150000D02*
X141300000Y-134050000D01*
%TO.N,+3V3*%
X136973533Y-123496467D02*
X136973533Y-121962732D01*
D26*
X133639744Y-115900499D02*
X130949501Y-115900499D01*
D24*
X144200000Y-132800000D02*
X142850000Y-131450000D01*
X146500000Y-128027113D02*
X146500000Y-124600000D01*
X141000000Y-129450000D02*
X140939502Y-129389502D01*
D26*
X126050000Y-126900000D02*
X126050000Y-125400000D01*
D24*
X136262500Y-118687500D02*
X138503959Y-118687500D01*
X146325000Y-122925000D02*
X143450000Y-120050000D01*
X142850000Y-131450000D02*
X143077113Y-131450000D01*
D26*
X129000000Y-133900000D02*
X129000000Y-129850000D01*
D24*
X137297299Y-128724412D02*
X137297299Y-129199500D01*
X145800000Y-132800000D02*
X144200000Y-132800000D01*
X138503959Y-118687500D02*
X139550926Y-119734467D01*
D26*
X136262500Y-118523255D02*
X133639744Y-115900499D01*
X129000000Y-129850000D02*
X126050000Y-126900000D01*
D24*
X137487301Y-129389502D02*
X137297299Y-129199500D01*
X136060000Y-124410000D02*
X136060000Y-127487113D01*
X146975000Y-122925000D02*
X146325000Y-122925000D01*
X140600000Y-120650000D02*
X143450000Y-117800000D01*
X139550926Y-120244557D02*
X139956369Y-120650000D01*
X136060000Y-124410000D02*
X136973533Y-123496467D01*
X143077113Y-131450000D02*
X146500000Y-128027113D01*
X139956369Y-120650000D02*
X140600000Y-120650000D01*
X136060000Y-127487113D02*
X137297299Y-128724412D01*
X139550926Y-119734467D02*
X139550926Y-120244557D01*
X140939502Y-129389502D02*
X137487301Y-129389502D01*
D26*
X130949501Y-115900499D02*
X130600000Y-116250000D01*
X136262500Y-118687500D02*
X136262500Y-118523255D01*
D24*
X143450000Y-120050000D02*
X143450000Y-117800000D01*
%TO.N,+12V*%
X143400000Y-140050000D02*
X143400000Y-144750000D01*
X117950000Y-137300000D02*
X118100000Y-137150000D01*
X118100000Y-137150000D02*
X121800000Y-137150000D01*
X143400000Y-144750000D02*
X144300000Y-145650000D01*
%TO.N,Net-(D10-A)*%
X123922887Y-117700000D02*
X126550000Y-117700000D01*
X120500000Y-123300000D02*
X120500000Y-121122887D01*
X120500000Y-121122887D02*
X123922887Y-117700000D01*
%TO.N,Net-(D11-K)*%
X141049679Y-135300000D02*
X141149554Y-135399875D01*
X137950000Y-135300000D02*
X141049679Y-135300000D01*
%TO.N,/MotorcycleVoltage3v3*%
X134000499Y-123343099D02*
X134000499Y-128091001D01*
X138405974Y-120030183D02*
X138176290Y-119800499D01*
X137543099Y-119800499D02*
X134000499Y-123343099D01*
X134000499Y-128091001D02*
X134930438Y-129020940D01*
X138176290Y-119800499D02*
X137543099Y-119800499D01*
%TO.N,/BatteryVoltage3v3*%
X139750000Y-122300000D02*
X137750000Y-120300000D01*
X146850000Y-123950000D02*
X145500000Y-123950000D01*
X143850000Y-122300000D02*
X139750000Y-122300000D01*
X147650000Y-131750000D02*
X147650000Y-124750000D01*
X147650000Y-124750000D02*
X146850000Y-123950000D01*
X145500000Y-123950000D02*
X143850000Y-122300000D01*
%TO.N,/DAT0*%
X143900000Y-116150000D02*
X145599500Y-116150000D01*
X140200427Y-119970923D02*
X140200427Y-119849573D01*
X140200427Y-119849573D02*
X143900000Y-116150000D01*
%TO.N,/DAT1*%
X146000629Y-115250000D02*
X146084102Y-115333473D01*
X143773392Y-115250000D02*
X146000629Y-115250000D01*
X139976228Y-119047164D02*
X143773392Y-115250000D01*
%TO.N,Net-(J3-Pin_2)*%
X150400000Y-121400000D02*
X150400000Y-119850000D01*
%TO.N,/RST*%
X150900000Y-118950000D02*
X152967480Y-118950000D01*
X152967480Y-118950000D02*
X154500500Y-120483020D01*
%TO.N,/Battery+*%
X145300499Y-139400499D02*
X144450000Y-138550000D01*
X145300499Y-143250499D02*
X145300499Y-139400499D01*
X145705000Y-143655000D02*
X145300499Y-143250499D01*
X145600000Y-136200000D02*
X146650000Y-136200000D01*
X144450000Y-137350000D02*
X145600000Y-136200000D01*
X144450000Y-138550000D02*
X144450000Y-137350000D01*
%TO.N,/BUZZER_CTRL*%
X139381090Y-130057653D02*
X136981254Y-130057653D01*
X136981254Y-130057653D02*
X136954100Y-130084807D01*
%TO.N,/SCL*%
X149150000Y-139800000D02*
X148150000Y-139800000D01*
X150350000Y-139800000D02*
X149150000Y-139800000D01*
X148150000Y-139800000D02*
X145600000Y-137250000D01*
%TO.N,/SDA*%
X148150000Y-141100000D02*
X150550000Y-141100000D01*
X145300000Y-138250000D02*
X148150000Y-141100000D01*
%TO.N,Net-(U5-GPIO9)*%
X134227616Y-132649012D02*
X123628604Y-122050000D01*
X140205083Y-132649012D02*
X134227616Y-132649012D01*
X123628604Y-122050000D02*
X121149500Y-122050000D01*
X142853736Y-130000359D02*
X140205083Y-132649012D01*
%TO.N,Net-(U5-GPIO8)*%
X139519031Y-132299501D02*
X141908545Y-129909987D01*
X134372388Y-132299501D02*
X139519031Y-132299501D01*
X123300000Y-120700000D02*
X123300000Y-121227113D01*
X123300000Y-121227113D02*
X134372388Y-132299501D01*
D28*
%TO.N,Net-(Q2-S)*%
X133431885Y-165721244D02*
X133431885Y-164181885D01*
X136460641Y-168750000D02*
X133431885Y-165721244D01*
X130600000Y-161350000D02*
X130150000Y-160900000D01*
X142250000Y-168750000D02*
X136460641Y-168750000D01*
X133431885Y-164181885D02*
X130600000Y-161350000D01*
X130150000Y-160900000D02*
X126700000Y-160900000D01*
D24*
%TO.N,/Thermistor*%
X151875000Y-114015000D02*
X149359300Y-116530700D01*
X139051426Y-120801426D02*
X139051426Y-119957761D01*
X148000000Y-122900000D02*
X147300000Y-123600000D01*
X147300000Y-123600000D02*
X145650000Y-123600000D01*
X145650000Y-123600000D02*
X143950000Y-121900000D01*
X143950000Y-121900000D02*
X140150000Y-121900000D01*
X149359300Y-116530700D02*
X149359300Y-122190700D01*
X140150000Y-121900000D02*
X139051426Y-120801426D01*
%TD*%
M02*
