%TF.GenerationSoftware,KiCad,Pcbnew,(6.99.0-874-g7b84e0a7d9-dirty)*%
%TF.CreationDate,2022-02-14T21:42:15-05:00*%
%TF.ProjectId,MotorcycleBatterIsolator,4d6f746f-7263-4796-936c-654261747465,rev?*%
%TF.SameCoordinates,Original*%
%TF.FileFunction,Copper,L1,Top*%
%TF.FilePolarity,Positive*%
%FSLAX46Y46*%
G04 Gerber Fmt 4.6, Leading zero omitted, Abs format (unit mm)*
G04 Created by KiCad (PCBNEW (6.99.0-874-g7b84e0a7d9-dirty)) date 2022-02-14 21:42:15*
%MOMM*%
%LPD*%
G01*
G04 APERTURE LIST*
G04 Aperture macros list*
%AMRoundRect*
0 Rectangle with rounded corners*
0 $1 Rounding radius*
0 $2 $3 $4 $5 $6 $7 $8 $9 X,Y pos of 4 corners*
0 Add a 4 corners polygon primitive as box body*
4,1,4,$2,$3,$4,$5,$6,$7,$8,$9,$2,$3,0*
0 Add four circle primitives for the rounded corners*
1,1,$1+$1,$2,$3*
1,1,$1+$1,$4,$5*
1,1,$1+$1,$6,$7*
1,1,$1+$1,$8,$9*
0 Add four rect primitives between the rounded corners*
20,1,$1+$1,$2,$3,$4,$5,0*
20,1,$1+$1,$4,$5,$6,$7,0*
20,1,$1+$1,$6,$7,$8,$9,0*
20,1,$1+$1,$8,$9,$2,$3,0*%
%AMFreePoly0*
4,1,9,3.862500,-0.866500,0.737500,-0.866500,0.737500,-0.450000,-0.737500,-0.450000,-0.737500,0.450000,0.737500,0.450000,0.737500,0.866500,3.862500,0.866500,3.862500,-0.866500,3.862500,-0.866500,$1*%
G04 Aperture macros list end*
%TA.AperFunction,Profile*%
%ADD10C,0.160000*%
%TD*%
%TA.AperFunction,SMDPad,CuDef*%
%ADD11RoundRect,0.225000X-0.225000X-0.250000X0.225000X-0.250000X0.225000X0.250000X-0.225000X0.250000X0*%
%TD*%
%TA.AperFunction,SMDPad,CuDef*%
%ADD12RoundRect,0.150000X0.825000X0.150000X-0.825000X0.150000X-0.825000X-0.150000X0.825000X-0.150000X0*%
%TD*%
%TA.AperFunction,SMDPad,CuDef*%
%ADD13RoundRect,0.200000X0.200000X0.275000X-0.200000X0.275000X-0.200000X-0.275000X0.200000X-0.275000X0*%
%TD*%
%TA.AperFunction,ComponentPad*%
%ADD14C,5.600000*%
%TD*%
%TA.AperFunction,SMDPad,CuDef*%
%ADD15RoundRect,0.225000X-0.250000X0.225000X-0.250000X-0.225000X0.250000X-0.225000X0.250000X0.225000X0*%
%TD*%
%TA.AperFunction,SMDPad,CuDef*%
%ADD16R,0.900000X1.300000*%
%TD*%
%TA.AperFunction,SMDPad,CuDef*%
%ADD17FreePoly0,90.000000*%
%TD*%
%TA.AperFunction,SMDPad,CuDef*%
%ADD18RoundRect,0.162500X-0.825000X-0.162500X0.825000X-0.162500X0.825000X0.162500X-0.825000X0.162500X0*%
%TD*%
%TA.AperFunction,SMDPad,CuDef*%
%ADD19RoundRect,0.200000X-0.200000X-0.275000X0.200000X-0.275000X0.200000X0.275000X-0.200000X0.275000X0*%
%TD*%
%TA.AperFunction,SMDPad,CuDef*%
%ADD20RoundRect,0.200000X0.275000X-0.200000X0.275000X0.200000X-0.275000X0.200000X-0.275000X-0.200000X0*%
%TD*%
%TA.AperFunction,SMDPad,CuDef*%
%ADD21R,0.600000X1.450000*%
%TD*%
%TA.AperFunction,SMDPad,CuDef*%
%ADD22R,0.300000X1.450000*%
%TD*%
%TA.AperFunction,ComponentPad*%
%ADD23O,1.000000X2.100000*%
%TD*%
%TA.AperFunction,ComponentPad*%
%ADD24O,1.000000X1.600000*%
%TD*%
%TA.AperFunction,SMDPad,CuDef*%
%ADD25R,1.500000X1.000000*%
%TD*%
%TA.AperFunction,SMDPad,CuDef*%
%ADD26R,0.850000X1.100000*%
%TD*%
%TA.AperFunction,SMDPad,CuDef*%
%ADD27R,0.750000X1.100000*%
%TD*%
%TA.AperFunction,SMDPad,CuDef*%
%ADD28R,1.200000X1.000000*%
%TD*%
%TA.AperFunction,SMDPad,CuDef*%
%ADD29R,1.550000X1.350000*%
%TD*%
%TA.AperFunction,SMDPad,CuDef*%
%ADD30R,1.900000X1.350000*%
%TD*%
%TA.AperFunction,SMDPad,CuDef*%
%ADD31R,1.170000X1.800000*%
%TD*%
%TA.AperFunction,ComponentPad*%
%ADD32O,3.270000X6.230000*%
%TD*%
%TA.AperFunction,ComponentPad*%
%ADD33C,2.500000*%
%TD*%
%TA.AperFunction,SMDPad,CuDef*%
%ADD34R,1.200000X2.200000*%
%TD*%
%TA.AperFunction,SMDPad,CuDef*%
%ADD35R,5.800000X6.400000*%
%TD*%
%TA.AperFunction,SMDPad,CuDef*%
%ADD36RoundRect,0.200000X-0.275000X0.200000X-0.275000X-0.200000X0.275000X-0.200000X0.275000X0.200000X0*%
%TD*%
%TA.AperFunction,SMDPad,CuDef*%
%ADD37RoundRect,0.225000X0.225000X0.250000X-0.225000X0.250000X-0.225000X-0.250000X0.225000X-0.250000X0*%
%TD*%
%TA.AperFunction,ComponentPad*%
%ADD38R,1.600000X1.600000*%
%TD*%
%TA.AperFunction,ComponentPad*%
%ADD39C,1.600000*%
%TD*%
%TA.AperFunction,SMDPad,CuDef*%
%ADD40RoundRect,0.250000X0.250000X0.475000X-0.250000X0.475000X-0.250000X-0.475000X0.250000X-0.475000X0*%
%TD*%
%TA.AperFunction,SMDPad,CuDef*%
%ADD41R,2.500000X1.800000*%
%TD*%
%TA.AperFunction,SMDPad,CuDef*%
%ADD42R,1.700000X1.300000*%
%TD*%
%TA.AperFunction,SMDPad,CuDef*%
%ADD43R,1.300000X1.700000*%
%TD*%
%TA.AperFunction,ComponentPad*%
%ADD44R,1.700000X1.700000*%
%TD*%
%TA.AperFunction,ComponentPad*%
%ADD45O,1.700000X1.700000*%
%TD*%
%TA.AperFunction,SMDPad,CuDef*%
%ADD46RoundRect,0.150000X0.587500X0.150000X-0.587500X0.150000X-0.587500X-0.150000X0.587500X-0.150000X0*%
%TD*%
%TA.AperFunction,SMDPad,CuDef*%
%ADD47R,1.800000X2.500000*%
%TD*%
%TA.AperFunction,SMDPad,CuDef*%
%ADD48R,2.400000X2.000000*%
%TD*%
%TA.AperFunction,SMDPad,CuDef*%
%ADD49R,1.700000X1.000000*%
%TD*%
%TA.AperFunction,SMDPad,CuDef*%
%ADD50RoundRect,0.218750X0.256250X-0.218750X0.256250X0.218750X-0.256250X0.218750X-0.256250X-0.218750X0*%
%TD*%
%TA.AperFunction,SMDPad,CuDef*%
%ADD51RoundRect,0.050000X0.050000X-0.387500X0.050000X0.387500X-0.050000X0.387500X-0.050000X-0.387500X0*%
%TD*%
%TA.AperFunction,SMDPad,CuDef*%
%ADD52RoundRect,0.050000X0.387500X-0.050000X0.387500X0.050000X-0.387500X0.050000X-0.387500X-0.050000X0*%
%TD*%
%TA.AperFunction,ComponentPad*%
%ADD53C,0.600000*%
%TD*%
%TA.AperFunction,SMDPad,CuDef*%
%ADD54RoundRect,0.144000X1.456000X-1.456000X1.456000X1.456000X-1.456000X1.456000X-1.456000X-1.456000X0*%
%TD*%
%TA.AperFunction,SMDPad,CuDef*%
%ADD55RoundRect,0.250000X-0.362500X-1.425000X0.362500X-1.425000X0.362500X1.425000X-0.362500X1.425000X0*%
%TD*%
%TA.AperFunction,SMDPad,CuDef*%
%ADD56RoundRect,0.225000X0.250000X-0.225000X0.250000X0.225000X-0.250000X0.225000X-0.250000X-0.225000X0*%
%TD*%
%TA.AperFunction,ConnectorPad*%
%ADD57C,0.787400*%
%TD*%
%TA.AperFunction,SMDPad,CuDef*%
%ADD58RoundRect,0.500000X0.500000X3.500000X-0.500000X3.500000X-0.500000X-3.500000X0.500000X-3.500000X0*%
%TD*%
%TA.AperFunction,SMDPad,CuDef*%
%ADD59RoundRect,0.218750X0.218750X0.256250X-0.218750X0.256250X-0.218750X-0.256250X0.218750X-0.256250X0*%
%TD*%
%TA.AperFunction,SMDPad,CuDef*%
%ADD60RoundRect,0.150000X0.150000X-0.650000X0.150000X0.650000X-0.150000X0.650000X-0.150000X-0.650000X0*%
%TD*%
%TA.AperFunction,ViaPad*%
%ADD61C,0.800000*%
%TD*%
%TA.AperFunction,ViaPad*%
%ADD62C,0.600000*%
%TD*%
%TA.AperFunction,ViaPad*%
%ADD63C,0.500000*%
%TD*%
%TA.AperFunction,Conductor*%
%ADD64C,0.200000*%
%TD*%
%TA.AperFunction,Conductor*%
%ADD65C,0.250000*%
%TD*%
%TA.AperFunction,Conductor*%
%ADD66C,0.500000*%
%TD*%
%TA.AperFunction,Conductor*%
%ADD67C,2.000000*%
%TD*%
%TA.AperFunction,Conductor*%
%ADD68C,1.000000*%
%TD*%
%TA.AperFunction,Conductor*%
%ADD69C,3.000000*%
%TD*%
G04 APERTURE END LIST*
D10*
X100518000Y-132657000D02*
X100518000Y-140910000D01*
X97268000Y-144160000D02*
X89268000Y-144160000D01*
X86018000Y-147410000D02*
X86018000Y-159690000D01*
X89268000Y-162940000D02*
X100750000Y-162940000D01*
X104000000Y-166190000D02*
X104000000Y-167750000D01*
X107250000Y-171000000D02*
X159850000Y-171000000D01*
X163100000Y-167750000D02*
X163100000Y-166750000D01*
X163100000Y-166750000D02*
X163100000Y-146610000D01*
X161100000Y-144610000D02*
X160250000Y-144610000D01*
X157000000Y-141360000D02*
X157000000Y-132000000D01*
X158000000Y-131000000D02*
G75*
G03*
X158000000Y-123000000I0J4000000D01*
G01*
X157000000Y-122000000D02*
X157000000Y-106000000D01*
X153750000Y-102750000D02*
X148250000Y-102750000D01*
X138000000Y-102750000D02*
X116250000Y-102750000D01*
X113000000Y-106000000D02*
X113000000Y-117500000D01*
X110373000Y-120690000D02*
G75*
G03*
X100518000Y-132657000I2337159J-11966053D01*
G01*
X158000000Y-131000000D02*
G75*
G03*
X157000000Y-132000000I365J-1000365D01*
G01*
X157000000Y-141360000D02*
G75*
G03*
X160250000Y-144610000I3250331J331D01*
G01*
X163100000Y-146610000D02*
G75*
G03*
X161100000Y-144610000I-2000729J-729D01*
G01*
X157000000Y-122000000D02*
G75*
G03*
X158000000Y-123000000I1000365J365D01*
G01*
X157000000Y-106000000D02*
G75*
G03*
X153750000Y-102750000I-3250331J-331D01*
G01*
X116250000Y-102750000D02*
G75*
G03*
X113000000Y-106000000I331J-3250331D01*
G01*
X110373000Y-120690000D02*
G75*
G03*
X113000000Y-117500000I-623095J3189807D01*
G01*
X97268000Y-144160000D02*
G75*
G03*
X100518000Y-140910000I-331J3250331D01*
G01*
X89268000Y-144160000D02*
G75*
G03*
X86018000Y-147410000I-1375J-3248625D01*
G01*
X86018000Y-159690000D02*
G75*
G03*
X89268000Y-162940000I3248625J-1375D01*
G01*
X104000000Y-166190000D02*
G75*
G03*
X100750000Y-162940000I-3250331J-331D01*
G01*
X104000000Y-167750000D02*
G75*
G03*
X107250000Y-171000000I3250331J331D01*
G01*
X159850000Y-171000000D02*
G75*
G03*
X163100000Y-167750000I-331J3250331D01*
G01*
X138000000Y-102750000D02*
G75*
G03*
X148250000Y-102750000I5125000J6835000D01*
G01*
%TO.C,JP1*%
G36*
X134600000Y-140000000D02*
G01*
X134200000Y-140000000D01*
X134200000Y-139500000D01*
X134600000Y-139500000D01*
X134600000Y-140000000D01*
G37*
G36*
X133800000Y-140000000D02*
G01*
X133400000Y-140000000D01*
X133400000Y-139500000D01*
X133800000Y-139500000D01*
X133800000Y-140000000D01*
G37*
%TD*%
D11*
%TO.P,C11,1*%
%TO.N,+1V1*%
X147025000Y-120700000D03*
%TO.P,C11,2*%
%TO.N,GND*%
X148575000Y-120700000D03*
%TD*%
D12*
%TO.P,U4,1,A1*%
%TO.N,GND*%
X152225000Y-143655000D03*
%TO.P,U4,2,A0*%
X152225000Y-142385000D03*
%TO.P,U4,3,SDA*%
%TO.N,/SDA*%
X152225000Y-141115000D03*
%TO.P,U4,4,SCL*%
%TO.N,/SCL*%
X152225000Y-139845000D03*
%TO.P,U4,5,VS*%
%TO.N,+3V3*%
X147275000Y-139845000D03*
%TO.P,U4,6,GND*%
%TO.N,GND*%
X147275000Y-141115000D03*
%TO.P,U4,7,IN-*%
%TO.N,Net-(D7-A)*%
X147275000Y-142385000D03*
%TO.P,U4,8,IN+*%
%TO.N,/Battery+*%
X147275000Y-143655000D03*
%TD*%
D13*
%TO.P,R11,1*%
%TO.N,Net-(Q2-S)*%
X141325000Y-168750000D03*
%TO.P,R11,2*%
%TO.N,Net-(D6-K)*%
X139675000Y-168750000D03*
%TD*%
D14*
%TO.P,H4,1,1*%
%TO.N,GND*%
X108000000Y-127000000D03*
%TD*%
D15*
%TO.P,C1,1*%
%TO.N,+12V*%
X132367500Y-164525000D03*
%TO.P,C1,2*%
%TO.N,GND*%
X132367500Y-166075000D03*
%TD*%
%TO.P,C22,1*%
%TO.N,+3V3*%
X138000000Y-130535000D03*
%TO.P,C22,2*%
%TO.N,GND*%
X138000000Y-132085000D03*
%TD*%
D13*
%TO.P,R18,1*%
%TO.N,Net-(U5-USB_DP)*%
X135325000Y-122350000D03*
%TO.P,R18,2*%
%TO.N,/USB_D+*%
X133675000Y-122350000D03*
%TD*%
D16*
%TO.P,U2,1,GND*%
%TO.N,GND*%
X131499999Y-132899999D03*
D17*
%TO.P,U2,2,VIN*%
%TO.N,+12V*%
X133000000Y-132812500D03*
D16*
%TO.P,U2,3,VOUT*%
%TO.N,Net-(J2-VDD)*%
X134499999Y-132899999D03*
%TD*%
D18*
%TO.P,U1,1,V+*%
%TO.N,+12V*%
X134830000Y-163145000D03*
%TO.P,U1,2,INPUT*%
%TO.N,/GATE_CTRL*%
X134830000Y-164415000D03*
%TO.P,U1,3,SOURCE*%
%TO.N,Net-(Q2-S)*%
X134830000Y-165685000D03*
%TO.P,U1,4,GND*%
%TO.N,GND*%
X134830000Y-166955000D03*
%TO.P,U1,5,GATE*%
%TO.N,Net-(D6-A)*%
X139905000Y-166955000D03*
%TO.P,U1,6*%
%TO.N,N/C*%
X139905000Y-165685000D03*
%TO.P,U1,7*%
X139905000Y-164415000D03*
%TO.P,U1,8*%
X139905000Y-163145000D03*
%TD*%
D19*
%TO.P,R29,1*%
%TO.N,/Battery+*%
X147425000Y-136250000D03*
%TO.P,R29,2*%
%TO.N,/BatteryVoltage3v3*%
X149075000Y-136250000D03*
%TD*%
D20*
%TO.P,R15,1*%
%TO.N,/RST*%
X150000000Y-117825000D03*
%TO.P,R15,2*%
%TO.N,+3V3*%
X150000000Y-116175000D03*
%TD*%
D21*
%TO.P,J5,A1,GND*%
%TO.N,GND*%
X133499999Y-110544999D03*
%TO.P,J5,A4,VBUS*%
%TO.N,Net-(D10-A)*%
X132699999Y-110544999D03*
D22*
%TO.P,J5,A5,CC1*%
%TO.N,Net-(J5-CC1)*%
X131499999Y-110544999D03*
%TO.P,J5,A6,D+*%
%TO.N,/USB_D+*%
X130499999Y-110544999D03*
%TO.P,J5,A7,D-*%
%TO.N,/USB_D-*%
X129999999Y-110544999D03*
%TO.P,J5,A8,SBU1*%
%TO.N,unconnected-(J5-SBU1)*%
X128999999Y-110544999D03*
D21*
%TO.P,J5,A9,VBUS*%
%TO.N,Net-(D10-A)*%
X127799999Y-110544999D03*
%TO.P,J5,A12,GND*%
%TO.N,GND*%
X126999999Y-110544999D03*
%TO.P,J5,B1,GND*%
X126999999Y-110544999D03*
%TO.P,J5,B4,VBUS*%
%TO.N,Net-(D10-A)*%
X127799999Y-110544999D03*
D22*
%TO.P,J5,B5,CC2*%
%TO.N,Net-(J5-CC2)*%
X128499999Y-110544999D03*
%TO.P,J5,B6,D+*%
%TO.N,/USB_D+*%
X129499999Y-110544999D03*
%TO.P,J5,B7,D-*%
%TO.N,/USB_D-*%
X130999999Y-110544999D03*
%TO.P,J5,B8,SBU2*%
%TO.N,unconnected-(J5-SBU2)*%
X131999999Y-110544999D03*
D21*
%TO.P,J5,B9,VBUS*%
%TO.N,Net-(D10-A)*%
X132699999Y-110544999D03*
%TO.P,J5,B12,GND*%
%TO.N,GND*%
X133499999Y-110544999D03*
D23*
%TO.P,J5,S1,SHIELD*%
X134569999Y-109629999D03*
D24*
X134569999Y-105449999D03*
D23*
X125929999Y-109629999D03*
D24*
X125929999Y-105449999D03*
%TD*%
D11*
%TO.P,C14,1*%
%TO.N,+3V3*%
X136975000Y-119150000D03*
%TO.P,C14,2*%
%TO.N,GND*%
X138525000Y-119150000D03*
%TD*%
D20*
%TO.P,R17,1*%
%TO.N,Net-(C7-Pad1)*%
X145500000Y-131635000D03*
%TO.P,R17,2*%
%TO.N,Net-(U5-XIN)*%
X145500000Y-129985000D03*
%TD*%
D16*
%TO.P,U6,1,GND*%
%TO.N,GND*%
X125999999Y-132899999D03*
D17*
%TO.P,U6,2,VIN*%
%TO.N,+12V*%
X127500000Y-132812500D03*
D16*
%TO.P,U6,3,VOUT*%
%TO.N,+3V3*%
X128999999Y-132899999D03*
%TD*%
D15*
%TO.P,C6,1*%
%TO.N,+3V3*%
X125000000Y-118785000D03*
%TO.P,C6,2*%
%TO.N,GND*%
X125000000Y-120335000D03*
%TD*%
D25*
%TO.P,JP1,1,A*%
%TO.N,Net-(JP1-A)*%
X133999999Y-139099999D03*
%TO.P,JP1,2,B*%
%TO.N,Net-(D7-A)*%
X133999999Y-140399999D03*
%TD*%
D26*
%TO.P,J2,1,DAT2*%
%TO.N,/DAT2*%
X139894999Y-106609999D03*
%TO.P,J2,2,DAT3/CD*%
%TO.N,/DAT3*%
X140994999Y-106609999D03*
%TO.P,J2,3,CMD*%
%TO.N,/SD_CMD*%
X142094999Y-106609999D03*
%TO.P,J2,4,VDD*%
%TO.N,Net-(J2-VDD)*%
X143194999Y-106609999D03*
%TO.P,J2,5,CLK*%
%TO.N,/SD_CLK*%
X144294999Y-106609999D03*
%TO.P,J2,6,VSS*%
%TO.N,GND*%
X145394999Y-106609999D03*
%TO.P,J2,7,DAT0*%
%TO.N,/DAT0*%
X146494999Y-106609999D03*
D27*
%TO.P,J2,8,DAT1*%
%TO.N,/DAT1*%
X147544999Y-106609999D03*
D28*
%TO.P,J2,9,DET_B*%
%TO.N,unconnected-(J2-DET_B)*%
X137259999Y-112759999D03*
%TO.P,J2,10,DET_A*%
%TO.N,unconnected-(J2-DET_A)*%
X137259999Y-116459999D03*
D29*
%TO.P,J2,11,SHIELD*%
%TO.N,GND*%
X137434999Y-106734999D03*
D30*
X140759999Y-117434999D03*
X146729999Y-117434999D03*
D31*
X148754999Y-106959999D03*
%TD*%
D32*
%TO.P,J1,1,Pin_1*%
%TO.N,/Motorcycle+*%
X114117499Y-157499999D03*
%TO.P,J1,2,Pin_2*%
X106197499Y-157499999D03*
%TO.P,J1,3,Pin_3*%
%TO.N,GND*%
X114117499Y-149599999D03*
%TO.P,J1,4,Pin_4*%
X106197499Y-149599999D03*
D33*
%TO.P,J1,5*%
%TO.N,N/C*%
X88017500Y-160940000D03*
X88017500Y-146160000D03*
%TD*%
D15*
%TO.P,C10,1*%
%TO.N,Net-(U5-XOUT)*%
X151250000Y-125285000D03*
%TO.P,C10,2*%
%TO.N,GND*%
X151250000Y-126835000D03*
%TD*%
D14*
%TO.P,H2,1,1*%
%TO.N,GND*%
X153000000Y-106000000D03*
%TD*%
D34*
%TO.P,Q6,1,G*%
%TO.N,Net-(D6-A)*%
X117944999Y-154974999D03*
D35*
%TO.P,Q6,2,D*%
%TO.N,Net-(D7-A)*%
X120224999Y-148674999D03*
D34*
%TO.P,Q6,3,S*%
%TO.N,Net-(Q2-S)*%
X122504999Y-154974999D03*
%TD*%
D36*
%TO.P,R10,1*%
%TO.N,GND*%
X119500000Y-124925000D03*
%TO.P,R10,2*%
%TO.N,/BUZZER_CTRL*%
X119500000Y-126575000D03*
%TD*%
D37*
%TO.P,C3,1*%
%TO.N,+12V*%
X132525000Y-135250000D03*
%TO.P,C3,2*%
%TO.N,GND*%
X130975000Y-135250000D03*
%TD*%
D38*
%TO.P,BZ1,1,-*%
%TO.N,+12V*%
X107749999Y-136249999D03*
D39*
%TO.P,BZ1,2,+*%
%TO.N,Net-(BZ1-+)*%
X114250000Y-136250000D03*
%TD*%
D40*
%TO.P,C2,1*%
%TO.N,/GATE_CTRL*%
X144317500Y-166750000D03*
%TO.P,C2,2*%
%TO.N,GND*%
X142417500Y-166750000D03*
%TD*%
D41*
%TO.P,D1,1,K*%
%TO.N,/Motorcycle+*%
X122499999Y-139249999D03*
%TO.P,D1,2,A*%
%TO.N,GND*%
X118499999Y-139249999D03*
%TD*%
D42*
%TO.P,D13,1,K*%
%TO.N,/BatteryVoltage3v3*%
X150999999Y-132749999D03*
%TO.P,D13,2,A*%
%TO.N,GND*%
X150999999Y-136249999D03*
%TD*%
D20*
%TO.P,R22,1*%
%TO.N,Net-(D9-K)*%
X142050000Y-135775000D03*
%TO.P,R22,2*%
%TO.N,GND*%
X142050000Y-134125000D03*
%TD*%
D14*
%TO.P,H3,1,1*%
%TO.N,GND*%
X158000000Y-167000000D03*
%TD*%
D19*
%TO.P,R23,1*%
%TO.N,GND*%
X150675000Y-138000000D03*
%TO.P,R23,2*%
%TO.N,/SCL*%
X152325000Y-138000000D03*
%TD*%
D43*
%TO.P,D12,1,K*%
%TO.N,/MotorcycleVoltage3v3*%
X119249999Y-129749999D03*
%TO.P,D12,2,A*%
%TO.N,GND*%
X115749999Y-129749999D03*
%TD*%
D15*
%TO.P,C21,1*%
%TO.N,+3V3*%
X143600000Y-130900000D03*
%TO.P,C21,2*%
%TO.N,GND*%
X143600000Y-132450000D03*
%TD*%
D37*
%TO.P,C12,1*%
%TO.N,+1V1*%
X135275000Y-119250000D03*
%TO.P,C12,2*%
%TO.N,GND*%
X133725000Y-119250000D03*
%TD*%
%TO.P,C15,1*%
%TO.N,+3V3*%
X135275000Y-117700000D03*
%TO.P,C15,2*%
%TO.N,GND*%
X133725000Y-117700000D03*
%TD*%
%TO.P,C16,1*%
%TO.N,+12V*%
X126500000Y-135250000D03*
%TO.P,C16,2*%
%TO.N,GND*%
X124950000Y-135250000D03*
%TD*%
D11*
%TO.P,C13,1*%
%TO.N,+3V3*%
X142250000Y-119560000D03*
%TO.P,C13,2*%
%TO.N,GND*%
X143800000Y-119560000D03*
%TD*%
D14*
%TO.P,H5,1,1*%
%TO.N,GND*%
X158000000Y-127000000D03*
%TD*%
D44*
%TO.P,TH1,1*%
%TO.N,GND*%
X151874999Y-111474999D03*
D45*
%TO.P,TH1,2*%
%TO.N,/Thermistor*%
X151874999Y-114014999D03*
%TD*%
D46*
%TO.P,Q7,1,G*%
%TO.N,/BUZZER_CTRL*%
X117437500Y-126700000D03*
%TO.P,Q7,2,S*%
%TO.N,GND*%
X117437500Y-124800000D03*
%TO.P,Q7,3,D*%
%TO.N,Net-(BZ1-+)*%
X115562500Y-125750000D03*
%TD*%
D47*
%TO.P,D8,1,K*%
%TO.N,/Battery+*%
X138999999Y-151999999D03*
%TO.P,D8,2,A*%
%TO.N,GND*%
X138999999Y-155999999D03*
%TD*%
D11*
%TO.P,C5,1*%
%TO.N,Net-(J2-VDD)*%
X133475000Y-114250000D03*
%TO.P,C5,2*%
%TO.N,GND*%
X135025000Y-114250000D03*
%TD*%
D32*
%TO.P,J4,1,Pin_1*%
%TO.N,/Battery+*%
X134999999Y-150049999D03*
%TO.P,J4,2,Pin_2*%
X142919999Y-150049999D03*
%TO.P,J4,3,Pin_3*%
%TO.N,GND*%
X134999999Y-157949999D03*
%TO.P,J4,4,Pin_4*%
X142919999Y-157949999D03*
D33*
%TO.P,J4,5*%
%TO.N,N/C*%
X161100000Y-146610000D03*
X161100000Y-161390000D03*
%TD*%
D36*
%TO.P,R13,1*%
%TO.N,/~{USB_BOOT}*%
X125000000Y-115175000D03*
%TO.P,R13,2*%
%TO.N,Net-(U3-~{CS})*%
X125000000Y-116825000D03*
%TD*%
D48*
%TO.P,Y1,1,1*%
%TO.N,Net-(C7-Pad1)*%
X148499999Y-129909999D03*
%TO.P,Y1,2,2*%
%TO.N,Net-(U5-XOUT)*%
X148499999Y-126209999D03*
%TD*%
D34*
%TO.P,Q3,1,G*%
%TO.N,Net-(D6-A)*%
X122279999Y-160049999D03*
D35*
%TO.P,Q3,2,D*%
%TO.N,/Motorcycle+*%
X119999999Y-166349999D03*
D34*
%TO.P,Q3,3,S*%
%TO.N,Net-(Q2-S)*%
X117719999Y-160049999D03*
%TD*%
D49*
%TO.P,SW4,1,1*%
%TO.N,Net-(U5-GPIO8)*%
X122399999Y-115399999D03*
X116099999Y-115399999D03*
%TO.P,SW4,2,2*%
%TO.N,GND*%
X122399999Y-111599999D03*
X116099999Y-111599999D03*
%TD*%
%TO.P,SW3,1,1*%
%TO.N,Net-(U5-GPIO9)*%
X122399999Y-121899999D03*
X116099999Y-121899999D03*
%TO.P,SW3,2,2*%
%TO.N,GND*%
X122399999Y-118099999D03*
X116099999Y-118099999D03*
%TD*%
D19*
%TO.P,R12,1*%
%TO.N,Net-(Q2-S)*%
X133175000Y-168750000D03*
%TO.P,R12,2*%
%TO.N,Net-(D6-A)*%
X134825000Y-168750000D03*
%TD*%
D47*
%TO.P,D10,1,K*%
%TO.N,+12V*%
X122249999Y-128749999D03*
%TO.P,D10,2,A*%
%TO.N,Net-(D10-A)*%
X122249999Y-124749999D03*
%TD*%
D50*
%TO.P,D9,1,K*%
%TO.N,Net-(D9-K)*%
X143800000Y-135737500D03*
%TO.P,D9,2,A*%
%TO.N,Net-(D9-A)*%
X143800000Y-134162500D03*
%TD*%
D37*
%TO.P,C4,1*%
%TO.N,Net-(J2-VDD)*%
X135525000Y-135250000D03*
%TO.P,C4,2*%
%TO.N,GND*%
X133975000Y-135250000D03*
%TD*%
D41*
%TO.P,D3,1,K*%
%TO.N,Net-(D3-K)*%
X122499999Y-142999999D03*
%TO.P,D3,2,A*%
%TO.N,/Motorcycle+*%
X118499999Y-142999999D03*
%TD*%
D19*
%TO.P,R27,1*%
%TO.N,GND*%
X117175000Y-132500000D03*
%TO.P,R27,2*%
%TO.N,/MotorcycleVoltage3v3*%
X118825000Y-132500000D03*
%TD*%
%TO.P,R20,1*%
%TO.N,GND*%
X126600000Y-113060000D03*
%TO.P,R20,2*%
%TO.N,Net-(J5-CC2)*%
X128250000Y-113060000D03*
%TD*%
D14*
%TO.P,H1,1,1*%
%TO.N,GND*%
X108000000Y-167000000D03*
%TD*%
D11*
%TO.P,C8,1*%
%TO.N,+3V3*%
X147475000Y-138000000D03*
%TO.P,C8,2*%
%TO.N,GND*%
X149025000Y-138000000D03*
%TD*%
D51*
%TO.P,U5,1,IOVDD*%
%TO.N,+3V3*%
X138250000Y-128447500D03*
%TO.P,U5,2,GPIO0*%
%TO.N,/GATE_CTRL*%
X138650000Y-128447500D03*
%TO.P,U5,3,GPIO1*%
%TO.N,/BUZZER_CTRL*%
X139050000Y-128447500D03*
%TO.P,U5,4,GPIO2*%
%TO.N,Net-(D11-A)*%
X139450000Y-128447500D03*
%TO.P,U5,5,GPIO3*%
%TO.N,Net-(D9-A)*%
X139850000Y-128447500D03*
%TO.P,U5,6,GPIO4*%
%TO.N,unconnected-(U5-GPIO4)*%
X140250000Y-128447500D03*
%TO.P,U5,7,GPIO5*%
%TO.N,unconnected-(U5-GPIO5)*%
X140650000Y-128447500D03*
%TO.P,U5,8,GPIO6*%
%TO.N,unconnected-(U5-GPIO6)*%
X141050000Y-128447500D03*
%TO.P,U5,9,GPIO7*%
%TO.N,unconnected-(U5-GPIO7)*%
X141450000Y-128447500D03*
%TO.P,U5,10,IOVDD*%
%TO.N,+3V3*%
X141850000Y-128447500D03*
%TO.P,U5,11,GPIO8*%
%TO.N,Net-(U5-GPIO8)*%
X142250000Y-128447500D03*
%TO.P,U5,12,GPIO9*%
%TO.N,Net-(U5-GPIO9)*%
X142650000Y-128447500D03*
%TO.P,U5,13,GPIO10*%
%TO.N,/SDA*%
X143050000Y-128447500D03*
%TO.P,U5,14,GPIO11*%
%TO.N,/SCL*%
X143450000Y-128447500D03*
D52*
%TO.P,U5,15,GPIO12*%
%TO.N,unconnected-(U5-GPIO12)*%
X144287500Y-127610000D03*
%TO.P,U5,16,GPIO13*%
%TO.N,unconnected-(U5-GPIO13)*%
X144287500Y-127210000D03*
%TO.P,U5,17,GPIO14*%
%TO.N,unconnected-(U5-GPIO14)*%
X144287500Y-126810000D03*
%TO.P,U5,18,GPIO15*%
%TO.N,unconnected-(U5-GPIO15)*%
X144287500Y-126410000D03*
%TO.P,U5,19,TESTEN*%
%TO.N,GND*%
X144287500Y-126010000D03*
%TO.P,U5,20,XIN*%
%TO.N,Net-(U5-XIN)*%
X144287500Y-125610000D03*
%TO.P,U5,21,XOUT*%
%TO.N,Net-(U5-XOUT)*%
X144287500Y-125210000D03*
%TO.P,U5,22,IOVDD*%
%TO.N,+3V3*%
X144287500Y-124810000D03*
%TO.P,U5,23,DVDD*%
%TO.N,+1V1*%
X144287500Y-124410000D03*
%TO.P,U5,24,SWCLK*%
%TO.N,Net-(J3-Pin_4)*%
X144287500Y-124010000D03*
%TO.P,U5,25,SWD*%
%TO.N,Net-(J3-Pin_2)*%
X144287500Y-123610000D03*
%TO.P,U5,26,RUN*%
%TO.N,/RST*%
X144287500Y-123210000D03*
%TO.P,U5,27,GPIO16*%
%TO.N,unconnected-(U5-GPIO16)*%
X144287500Y-122810000D03*
%TO.P,U5,28,GPIO17*%
%TO.N,unconnected-(U5-GPIO17)*%
X144287500Y-122410000D03*
D51*
%TO.P,U5,29,GPIO18*%
%TO.N,unconnected-(U5-GPIO18)*%
X143450000Y-121572500D03*
%TO.P,U5,30,GPIO19*%
%TO.N,unconnected-(U5-GPIO19)*%
X143050000Y-121572500D03*
%TO.P,U5,31,GPIO20*%
%TO.N,/SD_CLK*%
X142650000Y-121572500D03*
%TO.P,U5,32,GPIO21*%
%TO.N,/SD_CMD*%
X142250000Y-121572500D03*
%TO.P,U5,33,IOVDD*%
%TO.N,+3V3*%
X141850000Y-121572500D03*
%TO.P,U5,34,GPIO22*%
%TO.N,/DAT3*%
X141450000Y-121572500D03*
%TO.P,U5,35,GPIO23*%
%TO.N,/DAT2*%
X141050000Y-121572500D03*
%TO.P,U5,36,GPIO24*%
%TO.N,/DAT1*%
X140650000Y-121572500D03*
%TO.P,U5,37,GPIO25*%
%TO.N,/DAT0*%
X140250000Y-121572500D03*
%TO.P,U5,38,GPIO26_ADC0*%
%TO.N,/Thermistor*%
X139850000Y-121572500D03*
%TO.P,U5,39,GPIO27_ADC1*%
%TO.N,/MotorcycleVoltage3v3*%
X139450000Y-121572500D03*
%TO.P,U5,40,GPIO28_ADC2*%
%TO.N,/BatteryVoltage3v3*%
X139050000Y-121572500D03*
%TO.P,U5,41,GPIO29_ADC3*%
%TO.N,unconnected-(U5-GPIO29_ADC3)*%
X138650000Y-121572500D03*
%TO.P,U5,42,IOVDD*%
%TO.N,+3V3*%
X138250000Y-121572500D03*
D52*
%TO.P,U5,43,ADC_AVDD*%
X137412500Y-122410000D03*
%TO.P,U5,44,VREG_IN*%
X137412500Y-122810000D03*
%TO.P,U5,45,VREG_VOUT*%
%TO.N,+1V1*%
X137412500Y-123210000D03*
%TO.P,U5,46,USB_DM*%
%TO.N,Net-(U5-USB_DM)*%
X137412500Y-123610000D03*
%TO.P,U5,47,USB_DP*%
%TO.N,Net-(U5-USB_DP)*%
X137412500Y-124010000D03*
%TO.P,U5,48,USB_VDD*%
%TO.N,+3V3*%
X137412500Y-124410000D03*
%TO.P,U5,49,IOVDD*%
X137412500Y-124810000D03*
%TO.P,U5,50,DVDD*%
%TO.N,+1V1*%
X137412500Y-125210000D03*
%TO.P,U5,51,QSPI_SD3*%
%TO.N,Net-(U3-IO3)*%
X137412500Y-125610000D03*
%TO.P,U5,52,QSPI_SCLK*%
%TO.N,Net-(U3-CLK)*%
X137412500Y-126010000D03*
%TO.P,U5,53,QSPI_SD0*%
%TO.N,Net-(U3-DI(IO0))*%
X137412500Y-126410000D03*
%TO.P,U5,54,QSPI_SD2*%
%TO.N,Net-(U3-IO2)*%
X137412500Y-126810000D03*
%TO.P,U5,55,QSPI_SD1*%
%TO.N,Net-(U3-DO(IO1))*%
X137412500Y-127210000D03*
%TO.P,U5,56,QSPI_SS*%
%TO.N,Net-(U3-~{CS})*%
X137412500Y-127610000D03*
D53*
%TO.P,U5,57,GND*%
%TO.N,GND*%
X139575000Y-126285000D03*
X140850000Y-126285000D03*
X142125000Y-126285000D03*
X139575000Y-125010000D03*
X140850000Y-125010000D03*
D54*
X140850000Y-125010000D03*
D53*
X142125000Y-125010000D03*
X139575000Y-123735000D03*
X140850000Y-123735000D03*
X142125000Y-123735000D03*
%TD*%
D34*
%TO.P,Q2,1,G*%
%TO.N,Net-(D6-A)*%
X129754999Y-159974999D03*
D35*
%TO.P,Q2,2,D*%
%TO.N,/Motorcycle+*%
X127474999Y-166274999D03*
D34*
%TO.P,Q2,3,S*%
%TO.N,Net-(Q2-S)*%
X125194999Y-159974999D03*
%TD*%
D49*
%TO.P,SW1,1,1*%
%TO.N,+12V*%
X146467499Y-163899999D03*
X152767499Y-163899999D03*
%TO.P,SW1,2,2*%
%TO.N,/GATE_CTRL*%
X146467499Y-167699999D03*
X152767499Y-167699999D03*
%TD*%
D15*
%TO.P,C20,1*%
%TO.N,+3V3*%
X142000000Y-130925000D03*
%TO.P,C20,2*%
%TO.N,GND*%
X142000000Y-132475000D03*
%TD*%
D34*
%TO.P,Q5,1,G*%
%TO.N,Net-(D6-A)*%
X125444999Y-154974999D03*
D35*
%TO.P,Q5,2,D*%
%TO.N,Net-(D7-A)*%
X127724999Y-148674999D03*
D34*
%TO.P,Q5,3,S*%
%TO.N,Net-(Q2-S)*%
X130004999Y-154974999D03*
%TD*%
D37*
%TO.P,C19,1*%
%TO.N,+3V3*%
X129550000Y-135250000D03*
%TO.P,C19,2*%
%TO.N,GND*%
X128000000Y-135250000D03*
%TD*%
D13*
%TO.P,R1,1*%
%TO.N,/GATE_CTRL*%
X144192500Y-164500000D03*
%TO.P,R1,2*%
%TO.N,GND*%
X142542500Y-164500000D03*
%TD*%
D55*
%TO.P,R14,1*%
%TO.N,Net-(D7-A)*%
X136537500Y-143000000D03*
%TO.P,R14,2*%
%TO.N,/Battery+*%
X142462500Y-143000000D03*
%TD*%
D50*
%TO.P,D11,1,K*%
%TO.N,Net-(D11-K)*%
X140350000Y-135712500D03*
%TO.P,D11,2,A*%
%TO.N,Net-(D11-A)*%
X140350000Y-134137500D03*
%TD*%
D13*
%TO.P,R21,1*%
%TO.N,GND*%
X135075000Y-112750000D03*
%TO.P,R21,2*%
%TO.N,Net-(J5-CC1)*%
X133425000Y-112750000D03*
%TD*%
%TO.P,R26,1*%
%TO.N,/Motorcycle+*%
X122075000Y-132500000D03*
%TO.P,R26,2*%
%TO.N,/MotorcycleVoltage3v3*%
X120425000Y-132500000D03*
%TD*%
D37*
%TO.P,C17,1*%
%TO.N,+3V3*%
X135275000Y-123900000D03*
%TO.P,C17,2*%
%TO.N,GND*%
X133725000Y-123900000D03*
%TD*%
D41*
%TO.P,D7,1,K*%
%TO.N,+12V*%
X140749999Y-138999999D03*
%TO.P,D7,2,A*%
%TO.N,Net-(D7-A)*%
X136749999Y-138999999D03*
%TD*%
D37*
%TO.P,C9,1*%
%TO.N,+1V1*%
X135275000Y-125450000D03*
%TO.P,C9,2*%
%TO.N,GND*%
X133725000Y-125450000D03*
%TD*%
D11*
%TO.P,C18,1*%
%TO.N,+3V3*%
X147000000Y-123810000D03*
%TO.P,C18,2*%
%TO.N,GND*%
X148550000Y-123810000D03*
%TD*%
D13*
%TO.P,R28,1*%
%TO.N,/Thermistor*%
X148625000Y-122250000D03*
%TO.P,R28,2*%
%TO.N,+3V3*%
X146975000Y-122250000D03*
%TD*%
D41*
%TO.P,D2,1,K*%
%TO.N,+12V*%
X122499999Y-135499999D03*
%TO.P,D2,2,A*%
%TO.N,/Motorcycle+*%
X118499999Y-135499999D03*
%TD*%
D56*
%TO.P,C7,1*%
%TO.N,Net-(C7-Pad1)*%
X151250000Y-130085000D03*
%TO.P,C7,2*%
%TO.N,GND*%
X151250000Y-128535000D03*
%TD*%
D20*
%TO.P,R25,1*%
%TO.N,GND*%
X154500000Y-143075000D03*
%TO.P,R25,2*%
%TO.N,/SDA*%
X154500000Y-141425000D03*
%TD*%
%TO.P,R24,1*%
%TO.N,Net-(D11-K)*%
X138600000Y-135750000D03*
%TO.P,R24,2*%
%TO.N,GND*%
X138600000Y-134100000D03*
%TD*%
D57*
%TO.P,J3,1,Pin_1*%
%TO.N,+3V3*%
X153635000Y-121830000D03*
%TO.P,J3,2,Pin_2*%
%TO.N,Net-(J3-Pin_2)*%
X152365000Y-121830000D03*
%TO.P,J3,3,Pin_3*%
%TO.N,/RST*%
X153635000Y-120560000D03*
%TO.P,J3,4,Pin_4*%
%TO.N,Net-(J3-Pin_4)*%
X152365000Y-120560000D03*
%TO.P,J3,5,Pin_5*%
%TO.N,GND*%
X153635000Y-119290000D03*
%TO.P,J3,6,Pin_6*%
%TO.N,unconnected-(J3-Pin_6)*%
X152365000Y-119290000D03*
%TD*%
D13*
%TO.P,R19,1*%
%TO.N,Net-(U5-USB_DM)*%
X135325000Y-120800000D03*
%TO.P,R19,2*%
%TO.N,/USB_D-*%
X133675000Y-120800000D03*
%TD*%
D49*
%TO.P,SW2,1,1*%
%TO.N,/~{USB_BOOT}*%
X122399999Y-108899999D03*
X116099999Y-108899999D03*
%TO.P,SW2,2,2*%
%TO.N,GND*%
X122399999Y-105099999D03*
X116099999Y-105099999D03*
%TD*%
D58*
%TO.P,R4,1*%
%TO.N,Net-(JP1-A)*%
X131000000Y-140500000D03*
%TO.P,R4,2*%
%TO.N,Net-(D3-K)*%
X125500000Y-140500000D03*
%TD*%
D19*
%TO.P,R30,1*%
%TO.N,GND*%
X147425000Y-134750000D03*
%TO.P,R30,2*%
%TO.N,/BatteryVoltage3v3*%
X149075000Y-134750000D03*
%TD*%
D59*
%TO.P,D6,1,K*%
%TO.N,Net-(D6-K)*%
X138037500Y-168750000D03*
%TO.P,D6,2,A*%
%TO.N,Net-(D6-A)*%
X136462500Y-168750000D03*
%TD*%
D36*
%TO.P,R16,1*%
%TO.N,+3V3*%
X125000000Y-124925000D03*
%TO.P,R16,2*%
%TO.N,Net-(U3-~{CS})*%
X125000000Y-126575000D03*
%TD*%
D60*
%TO.P,U3,1,~{CS}*%
%TO.N,Net-(U3-~{CS})*%
X127095000Y-126160000D03*
%TO.P,U3,2,DO(IO1)*%
%TO.N,Net-(U3-DO(IO1))*%
X128365000Y-126160000D03*
%TO.P,U3,3,IO2*%
%TO.N,Net-(U3-IO2)*%
X129635000Y-126160000D03*
%TO.P,U3,4,GND*%
%TO.N,GND*%
X130905000Y-126160000D03*
%TO.P,U3,5,DI(IO0)*%
%TO.N,Net-(U3-DI(IO0))*%
X130905000Y-118960000D03*
%TO.P,U3,6,CLK*%
%TO.N,Net-(U3-CLK)*%
X129635000Y-118960000D03*
%TO.P,U3,7,IO3*%
%TO.N,Net-(U3-IO3)*%
X128365000Y-118960000D03*
%TO.P,U3,8,VCC*%
%TO.N,+3V3*%
X127095000Y-118960000D03*
%TD*%
D61*
%TO.N,/GATE_CTRL*%
X145109266Y-161909266D03*
X144550000Y-140450000D03*
X144550000Y-144200000D03*
X142550000Y-163100000D03*
D62*
%TO.N,Net-(J2-VDD)*%
X134600000Y-131750000D03*
X133400000Y-116650000D03*
%TO.N,GND*%
X134700000Y-115850000D03*
X118550000Y-124800000D03*
X145950000Y-118250000D03*
X147500000Y-133850000D03*
X153600000Y-142650000D03*
D61*
X127650000Y-136300000D03*
D62*
X131450000Y-126600000D03*
X142850000Y-132500000D03*
X145900000Y-127850000D03*
X144350000Y-119200000D03*
X133850000Y-134350000D03*
X145500000Y-126450000D03*
X134550000Y-124650000D03*
X133500000Y-111650000D03*
X138000000Y-133500000D03*
X133150000Y-166900000D03*
X130975000Y-134125000D03*
X149850000Y-138000000D03*
X136150000Y-128550000D03*
X145400000Y-105600000D03*
X140850000Y-116450000D03*
X124900000Y-136000000D03*
X126600000Y-112200000D03*
X154450000Y-119350000D03*
X125100000Y-121150000D03*
X122750000Y-119650000D03*
X121600000Y-119050000D03*
X132800000Y-124550000D03*
X145850000Y-141100000D03*
X116400000Y-133300000D03*
D61*
X142750000Y-167750000D03*
D62*
X118500000Y-139250000D03*
X141300000Y-134150000D03*
X148050000Y-120650000D03*
X138550000Y-117950000D03*
X137100000Y-131350000D03*
X137650000Y-128300000D03*
X151250000Y-127650000D03*
X149350000Y-123750000D03*
D61*
%TO.N,+3V3*%
X142850000Y-131450000D03*
X146500000Y-124600000D03*
X129000000Y-133900000D03*
X143450000Y-117800000D03*
X146975000Y-122925000D03*
D62*
X145800000Y-132800000D03*
X130600000Y-116250000D03*
D61*
X137297299Y-129199500D03*
X141000000Y-129450000D03*
X136973533Y-121962732D03*
X126050000Y-125400000D03*
X136262500Y-118687500D03*
X136060000Y-124410000D03*
D62*
%TO.N,+12V*%
X117950000Y-137300000D03*
X121800000Y-137150000D03*
D61*
X144300000Y-145650000D03*
X143400000Y-140050000D03*
D62*
%TO.N,Net-(D10-A)*%
X120500000Y-123300000D03*
X126550000Y-117700000D03*
%TO.N,Net-(D11-K)*%
X141149554Y-135399875D03*
X137950000Y-135300000D03*
D63*
%TO.N,/MotorcycleVoltage3v3*%
X138405974Y-120030183D03*
D61*
X134930438Y-129020940D03*
D63*
%TO.N,/BatteryVoltage3v3*%
X137750000Y-120300000D03*
D61*
X147650000Y-131750000D03*
%TO.N,/DAT0*%
X145599500Y-116150000D03*
X140200427Y-119970923D03*
%TO.N,/DAT1*%
X139976228Y-119047164D03*
X146084102Y-115333473D03*
%TO.N,Net-(J3-Pin_2)*%
X150400000Y-121400000D03*
X150400000Y-119850000D03*
%TO.N,/RST*%
X150900000Y-118950000D03*
X154500500Y-120483020D03*
%TO.N,/Battery+*%
X146650000Y-136200000D03*
X145705000Y-143655000D03*
%TO.N,/BUZZER_CTRL*%
X136954100Y-130084807D03*
X139381090Y-130057653D03*
%TO.N,/SCL*%
X145600000Y-137250000D03*
X150350000Y-139800000D03*
%TO.N,/SDA*%
X150550000Y-141100000D03*
X145300000Y-138250000D03*
%TO.N,Net-(U5-GPIO9)*%
X121149500Y-122050000D03*
X142853736Y-130000359D03*
%TO.N,Net-(U5-GPIO8)*%
X141908545Y-129909987D03*
X123300000Y-120700000D03*
D62*
%TO.N,Net-(Q2-S)*%
X133431885Y-165721244D03*
X126700000Y-160900000D03*
D61*
X142250000Y-168750000D03*
D63*
%TO.N,/Thermistor*%
X149359300Y-122190700D03*
X148000000Y-122900000D03*
X139051426Y-119957761D03*
%TD*%
D64*
%TO.N,Net-(BZ1-+)*%
X115562500Y-125750000D02*
X114250000Y-127062500D01*
X114250000Y-127062500D02*
X114250000Y-136250000D01*
%TO.N,/GATE_CTRL*%
X141750000Y-136950000D02*
X144550000Y-139750000D01*
D65*
X142450000Y-162000000D02*
X142750000Y-162000000D01*
D64*
X138731589Y-132812695D02*
X139510947Y-133592053D01*
X142550000Y-162100000D02*
X142450000Y-162000000D01*
D65*
X134830000Y-164415000D02*
X136585000Y-164415000D01*
D64*
X144550000Y-139750000D02*
X144550000Y-140450000D01*
X138650000Y-128447500D02*
X138650000Y-130038928D01*
D65*
X144317500Y-163567500D02*
X144317500Y-166750000D01*
D64*
X138650000Y-130038928D02*
X138731589Y-130120517D01*
X138731589Y-130120517D02*
X138731589Y-132812695D01*
X145849511Y-160794773D02*
X145109266Y-161535018D01*
D65*
X142750000Y-162000000D02*
X144317500Y-163567500D01*
D64*
X144550000Y-144200000D02*
X145849511Y-145499511D01*
X139510947Y-133592053D02*
X139510947Y-136700979D01*
D65*
X146467500Y-167700000D02*
X145267500Y-167700000D01*
D64*
X152767500Y-167700000D02*
X146467500Y-167700000D01*
X145849511Y-145499511D02*
X145849511Y-160794773D01*
D65*
X145267500Y-167700000D02*
X144317500Y-166750000D01*
X139000000Y-162000000D02*
X142450000Y-162000000D01*
D64*
X145109266Y-161535018D02*
X145109266Y-161909266D01*
X142550000Y-163100000D02*
X142550000Y-162100000D01*
X139759968Y-136950000D02*
X141750000Y-136950000D01*
D65*
X136585000Y-164415000D02*
X139000000Y-162000000D01*
D64*
X139510947Y-136700979D02*
X139759968Y-136950000D01*
D66*
%TO.N,Net-(J2-VDD)*%
X142850000Y-105350000D02*
X143200000Y-105700000D01*
X143200000Y-106605000D02*
X143195000Y-106610000D01*
X135525000Y-134775000D02*
X134500000Y-133750000D01*
D64*
X133475000Y-116575000D02*
X133400000Y-116650000D01*
D66*
X134224520Y-112125480D02*
X138850000Y-107500000D01*
X133475000Y-114250000D02*
X133700000Y-114250000D01*
X134500000Y-133750000D02*
X134500000Y-132900000D01*
X143200000Y-105700000D02*
X143200000Y-106605000D01*
X135525000Y-135250000D02*
X135525000Y-134775000D01*
D64*
X134600000Y-131750000D02*
X134600000Y-132800000D01*
D66*
X134224520Y-113273329D02*
X134224520Y-112125480D01*
D64*
X133475000Y-114250000D02*
X133475000Y-116575000D01*
D66*
X133700000Y-114250000D02*
X134200000Y-113750000D01*
D64*
X134600000Y-132800000D02*
X134500000Y-132900000D01*
D66*
X139380978Y-105350000D02*
X142850000Y-105350000D01*
X134200000Y-113297849D02*
X134224520Y-113273329D01*
X134200000Y-113750000D02*
X134200000Y-113297849D01*
X138850000Y-105880978D02*
X139380978Y-105350000D01*
X138850000Y-107500000D02*
X138850000Y-105880978D01*
D64*
%TO.N,Net-(C7-Pad1)*%
X151075000Y-129910000D02*
X151250000Y-130085000D01*
X145500000Y-131635000D02*
X146775000Y-131635000D01*
X148500000Y-129910000D02*
X151075000Y-129910000D01*
X146775000Y-131635000D02*
X148500000Y-129910000D01*
%TO.N,+1V1*%
X145580499Y-124310967D02*
X145580499Y-124313784D01*
X144287500Y-124410000D02*
X143690000Y-124410000D01*
X136854296Y-123210000D02*
X137412500Y-123210000D01*
X145534772Y-124359511D02*
X144337989Y-124359511D01*
X136324031Y-120299031D02*
X136324031Y-122679735D01*
X146149511Y-121575489D02*
X146149511Y-123741955D01*
X135515000Y-125210000D02*
X135275000Y-125450000D01*
X143050000Y-127650000D02*
X138900000Y-127650000D01*
X143400000Y-127300000D02*
X143050000Y-127650000D01*
X147025000Y-120700000D02*
X146149511Y-121575489D01*
X137412500Y-125210000D02*
X135515000Y-125210000D01*
X137873585Y-123210000D02*
X137412500Y-123210000D01*
X138300000Y-127050000D02*
X138300000Y-124900000D01*
X143690000Y-124410000D02*
X143400000Y-124700000D01*
X145580499Y-124313784D02*
X145534772Y-124359511D01*
X144337989Y-124359511D02*
X144287500Y-124410000D01*
X135275000Y-119250000D02*
X136324031Y-120299031D01*
X136324031Y-122679735D02*
X136854296Y-123210000D01*
X138300000Y-124900000D02*
X138300000Y-123636415D01*
X138300000Y-123636415D02*
X137873585Y-123210000D01*
X138900000Y-127650000D02*
X138300000Y-127050000D01*
X146149511Y-123741955D02*
X145580499Y-124310967D01*
X137412500Y-125210000D02*
X137990000Y-125210000D01*
X143400000Y-124700000D02*
X143400000Y-127300000D01*
X137990000Y-125210000D02*
X138300000Y-124900000D01*
%TO.N,Net-(U5-XOUT)*%
X148500000Y-126210000D02*
X149440000Y-126210000D01*
X146941466Y-126210000D02*
X148500000Y-126210000D01*
X149440000Y-126210000D02*
X150365000Y-125285000D01*
X150365000Y-125285000D02*
X151250000Y-125285000D01*
X144287500Y-125210000D02*
X145941466Y-125210000D01*
X145941466Y-125210000D02*
X146941466Y-126210000D01*
D67*
%TO.N,/Motorcycle+*%
X103250000Y-144750000D02*
X101250000Y-146750000D01*
D64*
X118900000Y-135500000D02*
X121200000Y-133200000D01*
D68*
X118750000Y-143000000D02*
X122500000Y-139250000D01*
D69*
X116525000Y-165025000D02*
X116525000Y-166275000D01*
X116525000Y-166275000D02*
X127475000Y-166275000D01*
D64*
X121850000Y-133200000D02*
X122075000Y-132975000D01*
X118500000Y-135500000D02*
X118900000Y-135500000D01*
D67*
X103750000Y-157500000D02*
X106197500Y-157500000D01*
D68*
X118500000Y-135500000D02*
X122250000Y-139250000D01*
D69*
X114117500Y-162617500D02*
X116525000Y-165025000D01*
D67*
X111000000Y-143000000D02*
X109250000Y-144750000D01*
X101250000Y-155000000D02*
X103750000Y-157500000D01*
D68*
X122250000Y-139250000D02*
X122500000Y-139250000D01*
X118500000Y-143000000D02*
X118750000Y-143000000D01*
D67*
X109250000Y-144750000D02*
X103250000Y-144750000D01*
D69*
X114117500Y-157500000D02*
X114117500Y-162617500D01*
D67*
X101250000Y-146750000D02*
X101250000Y-155000000D01*
D64*
X122075000Y-132975000D02*
X122075000Y-132500000D01*
X121200000Y-133200000D02*
X121850000Y-133200000D01*
D67*
X118500000Y-143000000D02*
X111000000Y-143000000D01*
D65*
%TO.N,Net-(D6-K)*%
X139675000Y-168750000D02*
X138037500Y-168750000D01*
%TO.N,Net-(D6-A)*%
X129000000Y-162000000D02*
X129755000Y-161245000D01*
X131250000Y-168500000D02*
X132500000Y-169750000D01*
X136462500Y-168750000D02*
X136462500Y-168537500D01*
X132500000Y-169750000D02*
X134750000Y-169750000D01*
X131250000Y-161250000D02*
X132250000Y-160250000D01*
X131250000Y-161500000D02*
X131250000Y-161250000D01*
X130500000Y-162000000D02*
X131250000Y-162000000D01*
X117945000Y-154975000D02*
X117945000Y-153555000D01*
X118500000Y-153000000D02*
X125500000Y-153000000D01*
X122280000Y-160050000D02*
X122280000Y-161530000D01*
X134825000Y-168750000D02*
X134825000Y-169675000D01*
X129000000Y-162000000D02*
X130500000Y-162000000D01*
X117945000Y-153555000D02*
X118500000Y-153000000D01*
X130500000Y-162000000D02*
X131125000Y-161375000D01*
X129755000Y-161245000D02*
X129755000Y-159975000D01*
X134825000Y-169675000D02*
X134750000Y-169750000D01*
X131250000Y-153000000D02*
X132250000Y-154000000D01*
X134750000Y-169750000D02*
X135462500Y-169750000D01*
X125500000Y-153000000D02*
X131250000Y-153000000D01*
X138045000Y-166955000D02*
X139905000Y-166955000D01*
X131125000Y-161375000D02*
X131250000Y-161250000D01*
X131250000Y-162000000D02*
X131250000Y-168500000D01*
X125445000Y-154975000D02*
X125445000Y-153055000D01*
X135462500Y-169750000D02*
X136462500Y-168750000D01*
X125445000Y-153055000D02*
X125500000Y-153000000D01*
X122750000Y-162000000D02*
X129000000Y-162000000D01*
X131250000Y-161500000D02*
X131250000Y-162000000D01*
X132250000Y-154000000D02*
X132250000Y-160250000D01*
X136462500Y-168537500D02*
X138045000Y-166955000D01*
X131125000Y-161375000D02*
X131250000Y-161500000D01*
X122280000Y-161530000D02*
X122750000Y-162000000D01*
D68*
%TO.N,Net-(D3-K)*%
X125500000Y-140500000D02*
X125500000Y-141750000D01*
X124250000Y-143000000D02*
X122500000Y-143000000D01*
X125500000Y-141750000D02*
X124250000Y-143000000D01*
%TO.N,Net-(JP1-A)*%
X133900000Y-139000000D02*
X134000000Y-139100000D01*
X131000000Y-140250000D02*
X132250000Y-139000000D01*
X132250000Y-139000000D02*
X133900000Y-139000000D01*
X131000000Y-140500000D02*
X131000000Y-140250000D01*
D64*
%TO.N,GND*%
X114500000Y-122149022D02*
X114500000Y-116250000D01*
X147275000Y-141115000D02*
X147865000Y-141115000D01*
X140240000Y-117435000D02*
X140760000Y-117435000D01*
X146730000Y-117470000D02*
X145950000Y-118250000D01*
X122750000Y-118450000D02*
X122400000Y-118100000D01*
X147275000Y-141115000D02*
X148585000Y-141115000D01*
X133850000Y-135125000D02*
X133975000Y-135250000D01*
X137835000Y-132085000D02*
X137100000Y-131350000D01*
X133850000Y-134350000D02*
X133850000Y-135125000D01*
X134475000Y-124650000D02*
X133725000Y-123900000D01*
X134400000Y-117300000D02*
X134000000Y-117700000D01*
X115750000Y-131075000D02*
X117175000Y-132500000D01*
X138000000Y-133500000D02*
X138600000Y-134100000D01*
X147600000Y-134750000D02*
X147425000Y-134750000D01*
X133725000Y-117700000D02*
X133725000Y-119250000D01*
X142850000Y-132500000D02*
X142025000Y-132500000D01*
X133500000Y-111650000D02*
X133500000Y-110545000D01*
X114550000Y-111600000D02*
X114500000Y-111650000D01*
X114500000Y-111650000D02*
X114500000Y-116250000D01*
X148575000Y-120700000D02*
X148100000Y-120700000D01*
D65*
X132367500Y-166117500D02*
X133250000Y-167000000D01*
D64*
X125000000Y-120335000D02*
X125000000Y-121050000D01*
X134450000Y-124550000D02*
X134550000Y-124650000D01*
X138525000Y-117975000D02*
X138550000Y-117950000D01*
X134525000Y-124650000D02*
X133725000Y-125450000D01*
D69*
X135000000Y-157950000D02*
X142920000Y-157950000D01*
D64*
X142025000Y-132500000D02*
X142000000Y-132475000D01*
X134000000Y-117700000D02*
X133725000Y-117700000D01*
X115750000Y-129750000D02*
X115750000Y-131075000D01*
X144287500Y-126010000D02*
X145060000Y-126010000D01*
X117175000Y-132525000D02*
X116400000Y-133300000D01*
X153335000Y-142385000D02*
X153600000Y-142650000D01*
D66*
X126000000Y-133950000D02*
X126000000Y-132900000D01*
D64*
X117437500Y-124800000D02*
X117150978Y-124800000D01*
X115400000Y-105100000D02*
X114500000Y-106000000D01*
X126600000Y-113060000D02*
X126600000Y-112200000D01*
X154390000Y-119290000D02*
X154450000Y-119350000D01*
X145395000Y-105605000D02*
X145400000Y-105600000D01*
X143600000Y-132450000D02*
X142900000Y-132450000D01*
X151250000Y-127650000D02*
X151250000Y-128535000D01*
D66*
X128000000Y-135950000D02*
X127650000Y-136300000D01*
D64*
X149350000Y-123750000D02*
X150000000Y-123100000D01*
X152225000Y-142385000D02*
X153335000Y-142385000D01*
X148585000Y-141115000D02*
X149150000Y-140550000D01*
X145395000Y-106610000D02*
X145395000Y-105860000D01*
X115750000Y-129750000D02*
X115750000Y-126865006D01*
X127000000Y-112660000D02*
X127000000Y-110545000D01*
D65*
X142417500Y-166750000D02*
X142417500Y-167417500D01*
D64*
X137435000Y-106735000D02*
X135855000Y-106735000D01*
X141325000Y-134125000D02*
X141300000Y-134150000D01*
X134550000Y-124650000D02*
X134525000Y-124650000D01*
D66*
X130975000Y-133425000D02*
X131500000Y-132900000D01*
D64*
X148550000Y-123810000D02*
X149290000Y-123810000D01*
X146100000Y-127650000D02*
X145900000Y-127850000D01*
X125000000Y-121050000D02*
X125100000Y-121150000D01*
X150000000Y-123100000D02*
X150000000Y-122125000D01*
X149290000Y-123810000D02*
X149350000Y-123750000D01*
X147425000Y-133925000D02*
X147500000Y-133850000D01*
X122750000Y-119650000D02*
X122750000Y-118450000D01*
X126600000Y-113060000D02*
X127000000Y-112660000D01*
X117437500Y-125177506D02*
X117437500Y-124800000D01*
X148300000Y-135450000D02*
X147600000Y-134750000D01*
X121600000Y-119050000D02*
X121600000Y-118900000D01*
X148600000Y-105600000D02*
X148755000Y-105755000D01*
X153635000Y-119290000D02*
X154390000Y-119290000D01*
D65*
X142417500Y-164625000D02*
X142542500Y-164500000D01*
D64*
X149025000Y-138000000D02*
X150675000Y-138000000D01*
X132800000Y-124550000D02*
X134450000Y-124550000D01*
X131010000Y-126160000D02*
X131450000Y-126600000D01*
X134700000Y-114575000D02*
X135025000Y-114250000D01*
X145865000Y-141115000D02*
X145850000Y-141100000D01*
X117150978Y-124800000D02*
X114500000Y-122149022D01*
X117437500Y-124800000D02*
X119375000Y-124800000D01*
X148755000Y-105755000D02*
X148755000Y-106960000D01*
X116100000Y-105100000D02*
X115400000Y-105100000D01*
D69*
X106197500Y-149600000D02*
X114117500Y-149600000D01*
D64*
X137400000Y-128550000D02*
X137650000Y-128300000D01*
X152225000Y-143655000D02*
X152595000Y-143655000D01*
X114500000Y-116250000D02*
X114500000Y-116500000D01*
D66*
X124950000Y-135000000D02*
X126000000Y-133950000D01*
D64*
X151250000Y-126835000D02*
X151250000Y-127650000D01*
X125930000Y-109630000D02*
X125930000Y-105450000D01*
X133725000Y-123900000D02*
X133750000Y-123900000D01*
D66*
X130975000Y-134125000D02*
X130975000Y-133425000D01*
D65*
X133250000Y-167000000D02*
X134785000Y-167000000D01*
X142417500Y-167417500D02*
X142750000Y-167750000D01*
D64*
X151875000Y-112290000D02*
X146730000Y-117435000D01*
X133850000Y-119250000D02*
X133725000Y-119250000D01*
X144160000Y-119200000D02*
X143800000Y-119560000D01*
X114500000Y-116500000D02*
X116100000Y-118100000D01*
X148100000Y-120700000D02*
X148050000Y-120650000D01*
X145655000Y-105600000D02*
X148600000Y-105600000D01*
D66*
X124900000Y-136000000D02*
X124900000Y-135300000D01*
D64*
X116100000Y-111600000D02*
X122400000Y-111600000D01*
X145395000Y-106610000D02*
X145395000Y-105605000D01*
X135855000Y-106735000D02*
X134570000Y-105450000D01*
X147865000Y-141115000D02*
X149135000Y-142385000D01*
D66*
X130975000Y-135250000D02*
X130975000Y-134125000D01*
D64*
X149025000Y-138000000D02*
X148300000Y-137275000D01*
X125930000Y-105450000D02*
X134570000Y-105450000D01*
X144350000Y-119200000D02*
X144160000Y-119200000D01*
X149150000Y-140550000D02*
X149150000Y-138125000D01*
X149135000Y-142385000D02*
X152225000Y-142385000D01*
X114500000Y-106000000D02*
X114500000Y-111650000D01*
X134400000Y-116150000D02*
X134400000Y-117300000D01*
X142050000Y-134125000D02*
X141325000Y-134125000D01*
X134700000Y-115850000D02*
X134700000Y-114575000D01*
D65*
X132367500Y-166075000D02*
X132367500Y-166117500D01*
D64*
X134700000Y-115850000D02*
X134400000Y-116150000D01*
X148755000Y-106960000D02*
X148755000Y-108355000D01*
X119375000Y-124800000D02*
X119500000Y-124925000D01*
X134500000Y-119900000D02*
X133850000Y-119250000D01*
X130905000Y-126160000D02*
X131010000Y-126160000D01*
X140850000Y-117345000D02*
X140760000Y-117435000D01*
D65*
X134785000Y-167000000D02*
X134830000Y-166955000D01*
D64*
X149150000Y-138125000D02*
X149025000Y-138000000D01*
X136150000Y-128550000D02*
X137400000Y-128550000D01*
X134415000Y-109630000D02*
X133500000Y-110545000D01*
X148755000Y-108355000D02*
X151875000Y-111475000D01*
D65*
X142417500Y-166750000D02*
X142417500Y-164625000D01*
D64*
X117175000Y-132500000D02*
X117175000Y-132525000D01*
X148300000Y-137275000D02*
X148300000Y-135450000D01*
X153600000Y-142650000D02*
X154075000Y-142650000D01*
X150000000Y-122125000D02*
X148575000Y-120700000D01*
X147275000Y-141115000D02*
X145865000Y-141115000D01*
X138000000Y-132085000D02*
X137835000Y-132085000D01*
X125580000Y-105100000D02*
X125930000Y-105450000D01*
X121600000Y-118900000D02*
X122400000Y-118100000D01*
X151000000Y-136250000D02*
X151000000Y-137675000D01*
X142900000Y-132450000D02*
X142850000Y-132500000D01*
X151875000Y-111475000D02*
X151875000Y-112290000D01*
D66*
X128000000Y-135250000D02*
X128000000Y-135950000D01*
D64*
X135075000Y-114200000D02*
X135025000Y-114250000D01*
X134500000Y-123150000D02*
X134500000Y-119900000D01*
X151000000Y-137675000D02*
X150675000Y-138000000D01*
X122400000Y-105100000D02*
X125580000Y-105100000D01*
X134570000Y-109630000D02*
X134570000Y-105450000D01*
X145395000Y-105860000D02*
X145655000Y-105600000D01*
X146730000Y-117435000D02*
X146730000Y-117470000D01*
X138525000Y-119150000D02*
X138525000Y-117975000D01*
D66*
X124900000Y-135300000D02*
X124950000Y-135250000D01*
D64*
X151250000Y-127650000D02*
X146100000Y-127650000D01*
X140850000Y-116450000D02*
X140850000Y-117345000D01*
D66*
X124950000Y-135250000D02*
X124950000Y-135000000D01*
D64*
X116100000Y-105100000D02*
X122400000Y-105100000D01*
X138000000Y-132085000D02*
X138000000Y-133500000D01*
X147425000Y-134750000D02*
X147425000Y-133925000D01*
X115750000Y-126865006D02*
X117437500Y-125177506D01*
X134570000Y-109630000D02*
X134415000Y-109630000D01*
X145060000Y-126010000D02*
X145500000Y-126450000D01*
X154075000Y-142650000D02*
X154500000Y-143075000D01*
X152595000Y-143655000D02*
X153600000Y-142650000D01*
X134550000Y-124650000D02*
X134475000Y-124650000D01*
X116100000Y-111600000D02*
X114550000Y-111600000D01*
X135075000Y-112750000D02*
X135075000Y-114200000D01*
X138525000Y-119150000D02*
X140240000Y-117435000D01*
X133750000Y-123900000D02*
X134500000Y-123150000D01*
%TO.N,+3V3*%
X137412500Y-122410000D02*
X136740000Y-122410000D01*
X138000000Y-130535000D02*
X138000000Y-129550000D01*
D66*
X126600000Y-118500000D02*
X126635000Y-118500000D01*
D64*
X142749022Y-119060978D02*
X142749022Y-118589546D01*
X138250000Y-121572500D02*
X138250000Y-121050000D01*
X155150000Y-117959242D02*
X153365758Y-116175000D01*
X143575000Y-130925000D02*
X143600000Y-130900000D01*
D66*
X125785000Y-118785000D02*
X126050000Y-119050000D01*
D64*
X141150000Y-129750000D02*
X141150000Y-130750000D01*
X136673542Y-122523542D02*
X136673542Y-122476458D01*
X136973533Y-121723533D02*
X136673542Y-121423542D01*
X152800000Y-124550000D02*
X147740000Y-124550000D01*
X147475000Y-138000000D02*
X147400000Y-138000000D01*
X145134284Y-124810000D02*
X144287500Y-124810000D01*
X146100978Y-124709022D02*
X145235262Y-124709022D01*
X153365758Y-116175000D02*
X150000000Y-116175000D01*
X146695000Y-139845000D02*
X147275000Y-139845000D01*
X154620000Y-121830000D02*
X155150000Y-121300000D01*
X141000000Y-129450000D02*
X141400000Y-129450000D01*
X147475000Y-138125000D02*
X146300000Y-139300000D01*
D66*
X125475000Y-125400000D02*
X125000000Y-124925000D01*
D64*
X142000000Y-130925000D02*
X142775000Y-130925000D01*
D66*
X126050000Y-125400000D02*
X125475000Y-125400000D01*
D64*
X141850000Y-129050000D02*
X141150000Y-129750000D01*
X146500000Y-124310000D02*
X147000000Y-123810000D01*
X136040000Y-124410000D02*
X136060000Y-124410000D01*
X147475000Y-138000000D02*
X147475000Y-138125000D01*
X146975000Y-122250000D02*
X146975000Y-122925000D01*
X142749022Y-118589546D02*
X143450000Y-117888568D01*
X136973533Y-121962732D02*
X136973533Y-121723533D01*
X136673542Y-119451458D02*
X136975000Y-119150000D01*
D66*
X127095000Y-118960000D02*
X127095000Y-118652862D01*
D64*
X155150000Y-121300000D02*
X155150000Y-117959242D01*
X135912500Y-124537500D02*
X135275000Y-123900000D01*
X147000000Y-123810000D02*
X146100978Y-124709022D01*
X136740000Y-122410000D02*
X136673542Y-122476458D01*
X141898469Y-119911531D02*
X142250000Y-119560000D01*
X142250000Y-119560000D02*
X142749022Y-119060978D01*
X153635000Y-121830000D02*
X154000000Y-122195000D01*
X137412500Y-122810000D02*
X136960000Y-122810000D01*
D66*
X129497862Y-116250000D02*
X130600000Y-116250000D01*
D64*
X146300000Y-139450000D02*
X146695000Y-139845000D01*
X138250000Y-121050000D02*
X138076458Y-120876458D01*
D66*
X126635000Y-118500000D02*
X127095000Y-118960000D01*
D64*
X136673542Y-121423542D02*
X136673542Y-120876458D01*
X141150000Y-130750000D02*
X141325000Y-130925000D01*
X136262500Y-118687500D02*
X135275000Y-117700000D01*
X136960000Y-122810000D02*
X136673542Y-122523542D01*
X136975000Y-119150000D02*
X136725000Y-119150000D01*
D66*
X126050000Y-125400000D02*
X126050000Y-119050000D01*
D64*
X138250000Y-129000000D02*
X138250000Y-128447500D01*
X136673542Y-122476458D02*
X136673542Y-121423542D01*
X141325000Y-130925000D02*
X142000000Y-130925000D01*
X154000000Y-123350000D02*
X152800000Y-124550000D01*
X141898469Y-121524031D02*
X141898469Y-119911531D01*
X141400000Y-129450000D02*
X141425000Y-129475000D01*
X153635000Y-121830000D02*
X154620000Y-121830000D01*
X142775000Y-130925000D02*
X143575000Y-130925000D01*
X138076458Y-120876458D02*
X136673542Y-120876458D01*
X138000000Y-129550000D02*
X138250000Y-129300000D01*
X137496799Y-129000000D02*
X137297299Y-129199500D01*
X145235262Y-124709022D02*
X145134284Y-124810000D01*
X141850000Y-121572500D02*
X141898469Y-121524031D01*
X146975000Y-123785000D02*
X147000000Y-123810000D01*
X136673542Y-120876458D02*
X136673542Y-119451458D01*
D66*
X129000000Y-132900000D02*
X129000000Y-133900000D01*
D64*
X138250000Y-129300000D02*
X138250000Y-129000000D01*
X145950000Y-136550000D02*
X145800000Y-136400000D01*
X141850000Y-128447500D02*
X141850000Y-129050000D01*
X146975000Y-122925000D02*
X146975000Y-123785000D01*
X138250000Y-129000000D02*
X137496799Y-129000000D01*
D66*
X127095000Y-118652862D02*
X129497862Y-116250000D01*
D64*
X137412500Y-124810000D02*
X136185000Y-124810000D01*
X145800000Y-136400000D02*
X145800000Y-132800000D01*
X142775000Y-130925000D02*
X142850000Y-131000000D01*
X136725000Y-119150000D02*
X136262500Y-118687500D01*
X142850000Y-131000000D02*
X142850000Y-131450000D01*
X146300000Y-139300000D02*
X146300000Y-139450000D01*
D66*
X125000000Y-118785000D02*
X125785000Y-118785000D01*
D64*
X147740000Y-124550000D02*
X147000000Y-123810000D01*
X147400000Y-138000000D02*
X145950000Y-136550000D01*
X143450000Y-117888568D02*
X143450000Y-117800000D01*
X136040000Y-124410000D02*
X135912500Y-124537500D01*
X146500000Y-124600000D02*
X146500000Y-124310000D01*
X137412500Y-124410000D02*
X136060000Y-124410000D01*
D66*
X129000000Y-133900000D02*
X129550000Y-134450000D01*
D64*
X154000000Y-122195000D02*
X154000000Y-123350000D01*
X136185000Y-124810000D02*
X135912500Y-124537500D01*
D66*
X129550000Y-134450000D02*
X129550000Y-135250000D01*
X126050000Y-119050000D02*
X126600000Y-118500000D01*
D68*
%TO.N,+12V*%
X123750000Y-132250000D02*
X125200000Y-130800000D01*
D65*
X142936198Y-161550480D02*
X137449520Y-161550480D01*
D64*
X142500000Y-139000000D02*
X143400000Y-139900000D01*
X107750000Y-136250000D02*
X109600000Y-136250000D01*
D66*
X136750000Y-132750000D02*
X136750000Y-135717133D01*
D68*
X127400000Y-130800000D02*
X131799022Y-130800000D01*
D66*
X133000000Y-132000978D02*
X134050978Y-130950000D01*
X140032867Y-139000000D02*
X140750000Y-139000000D01*
D68*
X125200000Y-130800000D02*
X127400000Y-130800000D01*
X133000000Y-132000978D02*
X133000000Y-132812500D01*
D64*
X145500000Y-146850000D02*
X145500000Y-160600000D01*
X111100000Y-137750000D02*
X117500000Y-137750000D01*
D65*
X145285718Y-163900000D02*
X142936198Y-161550480D01*
D66*
X127500000Y-130900000D02*
X127400000Y-130800000D01*
D68*
X123750000Y-133350000D02*
X123750000Y-132250000D01*
X122500000Y-134600000D02*
X123750000Y-133350000D01*
D65*
X152767500Y-163900000D02*
X145285718Y-163900000D01*
D66*
X136750000Y-135717133D02*
X140032867Y-139000000D01*
X127500000Y-132812500D02*
X127500000Y-130900000D01*
D65*
X132367500Y-163632500D02*
X132855000Y-163145000D01*
D66*
X134950000Y-130950000D02*
X136750000Y-132750000D01*
D64*
X145500000Y-160600000D02*
X144350000Y-161750000D01*
D68*
X131799022Y-130800000D02*
X133000000Y-132000978D01*
D66*
X126500000Y-135250000D02*
X126500000Y-134800000D01*
X133000000Y-133850000D02*
X133000000Y-132812500D01*
D64*
X144300000Y-145650000D02*
X145500000Y-146850000D01*
D66*
X122250000Y-128750000D02*
X123150000Y-128750000D01*
D65*
X137449520Y-161550480D02*
X135855000Y-163145000D01*
D66*
X132525000Y-135250000D02*
X132525000Y-134325000D01*
X126500000Y-134800000D02*
X127500000Y-133800000D01*
D64*
X143135718Y-161750000D02*
X142936198Y-161550480D01*
X109600000Y-136250000D02*
X111100000Y-137750000D01*
D65*
X132855000Y-163145000D02*
X134830000Y-163145000D01*
X132367500Y-164525000D02*
X132367500Y-163632500D01*
D64*
X121800000Y-136200000D02*
X122500000Y-135500000D01*
X144350000Y-161750000D02*
X143135718Y-161750000D01*
X143400000Y-139900000D02*
X143400000Y-140050000D01*
D66*
X123150000Y-128750000D02*
X125200000Y-130800000D01*
D64*
X121800000Y-137150000D02*
X121800000Y-136200000D01*
D66*
X132525000Y-134325000D02*
X133000000Y-133850000D01*
X134050978Y-130950000D02*
X134950000Y-130950000D01*
D64*
X140750000Y-139000000D02*
X142500000Y-139000000D01*
D68*
X122500000Y-135500000D02*
X122500000Y-134600000D01*
D66*
X127500000Y-133800000D02*
X127500000Y-132812500D01*
D64*
X117500000Y-137750000D02*
X117950000Y-137300000D01*
D65*
X135855000Y-163145000D02*
X134830000Y-163145000D01*
D64*
%TO.N,Net-(D9-K)*%
X142050000Y-135775000D02*
X143762500Y-135775000D01*
X143762500Y-135775000D02*
X143800000Y-135737500D01*
%TO.N,Net-(D9-A)*%
X141500000Y-133200000D02*
X143050000Y-133200000D01*
X140350499Y-129500499D02*
X140350499Y-129719033D01*
X143800000Y-133950000D02*
X143800000Y-134162500D01*
X139850000Y-129000000D02*
X140350499Y-129500499D01*
X143050000Y-133200000D02*
X143800000Y-133950000D01*
X139850000Y-128447500D02*
X139850000Y-129000000D01*
X140700000Y-132400000D02*
X141500000Y-133200000D01*
X140700000Y-130068534D02*
X140700000Y-132400000D01*
X140350499Y-129719033D02*
X140700000Y-130068534D01*
%TO.N,Net-(D10-A)*%
X122250000Y-124750000D02*
X120800000Y-123300000D01*
X120800000Y-123300000D02*
X120500000Y-123300000D01*
X126550000Y-115600000D02*
X127400000Y-114750000D01*
X127400000Y-112100000D02*
X127800000Y-111700000D01*
X126550000Y-117700000D02*
X126550000Y-115600000D01*
X127400000Y-114750000D02*
X127400000Y-112100000D01*
X132700000Y-109620000D02*
X132700000Y-110545000D01*
X128820000Y-108600000D02*
X131680000Y-108600000D01*
X127800000Y-111700000D02*
X127800000Y-110545000D01*
X127800000Y-109620000D02*
X128820000Y-108600000D01*
X127800000Y-110545000D02*
X127800000Y-109620000D01*
X131680000Y-108600000D02*
X132700000Y-109620000D01*
%TO.N,Net-(D11-K)*%
X140662625Y-135399875D02*
X140350000Y-135712500D01*
X141149554Y-135399875D02*
X140662625Y-135399875D01*
X138600000Y-135750000D02*
X138400000Y-135750000D01*
X138400000Y-135750000D02*
X137950000Y-135300000D01*
%TO.N,Net-(D11-A)*%
X140000988Y-129650988D02*
X139450000Y-129100000D01*
X140000988Y-129863805D02*
X140000988Y-129650988D01*
X140350000Y-134137500D02*
X140350000Y-130212818D01*
X139450000Y-129100000D02*
X139450000Y-128447500D01*
X140350000Y-130212818D02*
X140000988Y-129863805D01*
%TO.N,/MotorcycleVoltage3v3*%
X120425000Y-132500000D02*
X118825000Y-132500000D01*
X138994773Y-120500489D02*
X138876280Y-120500489D01*
X119250000Y-129750000D02*
X119250000Y-132075000D01*
X120950000Y-127000000D02*
X123149022Y-127000000D01*
X139450000Y-120955716D02*
X138994773Y-120500489D01*
X119250000Y-132075000D02*
X118825000Y-132500000D01*
X132030144Y-128700482D02*
X134609980Y-128700482D01*
X132030142Y-128700480D02*
X132030144Y-128700482D01*
X139450000Y-121572500D02*
X139450000Y-120955716D01*
X124849502Y-128700480D02*
X132030142Y-128700480D01*
X134609980Y-128700482D02*
X134930438Y-129020940D01*
X123149022Y-127000000D02*
X124849502Y-128700480D01*
X138876280Y-120500489D02*
X138405974Y-120030183D01*
X119250000Y-128700000D02*
X120950000Y-127000000D01*
X119250000Y-129750000D02*
X119250000Y-128700000D01*
%TO.N,/BatteryVoltage3v3*%
X138850000Y-120850000D02*
X138544283Y-120850000D01*
X138221230Y-120526947D02*
X137976947Y-120526947D01*
X139050000Y-121050000D02*
X138850000Y-120850000D01*
X148650000Y-132750000D02*
X151000000Y-132750000D01*
X149075000Y-134750000D02*
X149075000Y-134675000D01*
X149075000Y-134675000D02*
X151000000Y-132750000D01*
X149075000Y-136250000D02*
X149075000Y-134750000D01*
X147650000Y-131750000D02*
X148650000Y-132750000D01*
X138544283Y-120850000D02*
X138221230Y-120526947D01*
X137976947Y-120526947D02*
X137750000Y-120300000D01*
X139050000Y-121572500D02*
X139050000Y-121050000D01*
%TO.N,/DAT2*%
X141050000Y-120600192D02*
X141199431Y-120450761D01*
X141199431Y-118950569D02*
X141790489Y-118359511D01*
X143850000Y-111315000D02*
X139895000Y-107360000D01*
X142150000Y-118200000D02*
X142150000Y-117200000D01*
X141050000Y-121572500D02*
X141050000Y-120600192D01*
X143850000Y-115500000D02*
X143850000Y-111315000D01*
X141990489Y-118359511D02*
X142150000Y-118200000D01*
X142150000Y-117200000D02*
X143850000Y-115500000D01*
X141790489Y-118359511D02*
X141990489Y-118359511D01*
X141199431Y-120450761D02*
X141199431Y-118950569D01*
X139895000Y-107360000D02*
X139895000Y-106610000D01*
%TO.N,/DAT3*%
X144250480Y-115750480D02*
X144250480Y-110844776D01*
X141935262Y-118709022D02*
X142135262Y-118709022D01*
X141548942Y-119095342D02*
X141935262Y-118709022D01*
X142500000Y-117500960D02*
X144250480Y-115750480D01*
X141450000Y-120694476D02*
X141548942Y-120595533D01*
X144250480Y-110844776D02*
X140995000Y-107589296D01*
X140995000Y-107589296D02*
X140995000Y-106610000D01*
X141548942Y-120595533D02*
X141548942Y-119095342D01*
X142500000Y-118344284D02*
X142500000Y-117500960D01*
X142135262Y-118709022D02*
X142500000Y-118344284D01*
X141450000Y-121572500D02*
X141450000Y-120694476D01*
%TO.N,/SD_CMD*%
X142250000Y-120750000D02*
X143100480Y-119899520D01*
X142095000Y-108195000D02*
X142095000Y-106610000D01*
X143100480Y-119113448D02*
X144600000Y-117613928D01*
X143100480Y-119899520D02*
X143100480Y-119113448D01*
X142250000Y-121572500D02*
X142250000Y-120750000D01*
X144600000Y-117613928D02*
X144600000Y-110700000D01*
X144600000Y-110700000D02*
X142095000Y-108195000D01*
%TO.N,/SD_CLK*%
X144720489Y-107409511D02*
X144720489Y-107035489D01*
X144720489Y-107035489D02*
X144295000Y-106610000D01*
X143050000Y-120600000D02*
X144400000Y-120600000D01*
X144400000Y-120600000D02*
X144950000Y-120050000D01*
X142650000Y-121572500D02*
X142650000Y-121000000D01*
X142650000Y-121000000D02*
X143050000Y-120600000D01*
X144950000Y-120050000D02*
X144950000Y-107639022D01*
X144950000Y-107639022D02*
X144720489Y-107409511D01*
%TO.N,/DAT0*%
X140250000Y-120020496D02*
X140200427Y-119970923D01*
X145350000Y-115900500D02*
X145599500Y-116150000D01*
X140250000Y-121572500D02*
X140250000Y-120020496D01*
X146495000Y-107360000D02*
X145350000Y-108505000D01*
X145350000Y-108505000D02*
X145350000Y-115900500D01*
X146495000Y-106610000D02*
X146495000Y-107360000D01*
%TO.N,/DAT1*%
X140650000Y-120466140D02*
X140849927Y-120266213D01*
X140650000Y-121572500D02*
X140650000Y-120466140D01*
X145800000Y-115049371D02*
X146084102Y-115333473D01*
X147169511Y-106985489D02*
X147169511Y-107409511D01*
X140219072Y-119047164D02*
X139976228Y-119047164D01*
X145800000Y-108779022D02*
X145800000Y-115049371D01*
X140849927Y-120266213D02*
X140849927Y-119678019D01*
X147169511Y-107409511D02*
X145800000Y-108779022D01*
X140849927Y-119678019D02*
X140219072Y-119047164D01*
X147545000Y-106610000D02*
X147169511Y-106985489D01*
%TO.N,Net-(J3-Pin_2)*%
X150400000Y-119850000D02*
X149900000Y-119350000D01*
X145449511Y-120550489D02*
X145449511Y-123250489D01*
X145449511Y-123250489D02*
X145090000Y-123610000D01*
X146650000Y-119350000D02*
X145449511Y-120550489D01*
X150830000Y-121830000D02*
X150400000Y-121400000D01*
X145090000Y-123610000D02*
X144287500Y-123610000D01*
X152365000Y-121830000D02*
X150830000Y-121830000D01*
X149900000Y-119350000D02*
X146650000Y-119350000D01*
%TO.N,/RST*%
X145100000Y-121800000D02*
X145100000Y-120400000D01*
X144287500Y-123210000D02*
X144940000Y-123210000D01*
X145000000Y-123150000D02*
X145100000Y-123050000D01*
X154423520Y-120560000D02*
X154500500Y-120483020D01*
X145100000Y-120400000D02*
X145250000Y-120250000D01*
X153635000Y-120560000D02*
X154423520Y-120560000D01*
X145250000Y-120250000D02*
X146550000Y-118950000D01*
X144940000Y-123210000D02*
X145000000Y-123150000D01*
X150000000Y-117825000D02*
X150000000Y-118900000D01*
X150000000Y-118900000D02*
X150050000Y-118950000D01*
X145100000Y-123050000D02*
X145100000Y-121800000D01*
X146550000Y-118950000D02*
X150050000Y-118950000D01*
X150050000Y-118950000D02*
X150900000Y-118950000D01*
%TO.N,Net-(J3-Pin_4)*%
X145800000Y-123597183D02*
X145800000Y-120694284D01*
X144287500Y-124010000D02*
X145387182Y-124010000D01*
X150160000Y-120560000D02*
X152365000Y-120560000D01*
X149350000Y-119750000D02*
X150160000Y-120560000D01*
X145387182Y-124010000D02*
X145800000Y-123597183D01*
X146744284Y-119750000D02*
X149350000Y-119750000D01*
X145800000Y-120694284D02*
X146744284Y-119750000D01*
D69*
%TO.N,/Battery+*%
X135000000Y-150050000D02*
X142920000Y-150050000D01*
D64*
X147275000Y-143655000D02*
X145505000Y-143655000D01*
X145505000Y-143655000D02*
X144450000Y-142600000D01*
X147375000Y-136200000D02*
X147425000Y-136250000D01*
X146650000Y-136200000D02*
X147375000Y-136200000D01*
D67*
X142462500Y-149592500D02*
X142920000Y-150050000D01*
X142462500Y-143000000D02*
X142462500Y-149592500D01*
D64*
X144450000Y-142600000D02*
X142862500Y-142600000D01*
X142862500Y-142600000D02*
X142462500Y-143000000D01*
%TO.N,Net-(J5-CC1)*%
X133425000Y-112750000D02*
X132830978Y-112750000D01*
X131500000Y-111419022D02*
X131500000Y-110545000D01*
X132830978Y-112750000D02*
X131500000Y-111419022D01*
%TO.N,/USB_D+*%
X129820978Y-109250000D02*
X129500000Y-109570978D01*
X129500000Y-110545000D02*
X129500000Y-111632501D01*
X130500000Y-109500000D02*
X130250000Y-109250000D01*
X129525000Y-114293200D02*
X132525000Y-117293200D01*
X129525000Y-111657501D02*
X129525000Y-114293200D01*
X129500000Y-111632501D02*
X129525000Y-111657501D01*
X132525000Y-121200000D02*
X133675000Y-122350000D01*
X132525000Y-117293200D02*
X132525000Y-121200000D01*
X130250000Y-109250000D02*
X129820978Y-109250000D01*
X130500000Y-110545000D02*
X130500000Y-109500000D01*
X129500000Y-109570978D02*
X129500000Y-110545000D01*
%TO.N,/USB_D-*%
X130769022Y-111750000D02*
X131000000Y-111519022D01*
X130000000Y-111500000D02*
X130250000Y-111750000D01*
X131000000Y-111519022D02*
X131000000Y-110545000D01*
X130000000Y-111250000D02*
X130000000Y-111500000D01*
X132975000Y-117202113D02*
X132975000Y-120100000D01*
X132975000Y-120100000D02*
X133675000Y-120800000D01*
X130000000Y-110545000D02*
X130000000Y-114227113D01*
X130250000Y-111750000D02*
X130769022Y-111750000D01*
X130000000Y-110545000D02*
X130000000Y-111250000D01*
X130000000Y-114227113D02*
X132975000Y-117202113D01*
%TO.N,Net-(J5-CC2)*%
X128250000Y-113060000D02*
X128500000Y-112810000D01*
X128500000Y-112810000D02*
X128500000Y-110545000D01*
%TO.N,/BUZZER_CTRL*%
X139050000Y-129726563D02*
X139381090Y-130057653D01*
X124992817Y-128349511D02*
X129416591Y-128349511D01*
X129418070Y-128350921D02*
X129418118Y-128350969D01*
X123218306Y-126575000D02*
X124992817Y-128349511D01*
X135550499Y-128827612D02*
X136807694Y-130084807D01*
X135550499Y-128440631D02*
X135550499Y-128827612D01*
X129416591Y-128349511D02*
X129418000Y-128350921D01*
X129418118Y-128350969D02*
X132174914Y-128350969D01*
X119500000Y-126575000D02*
X117562500Y-126575000D01*
X132174916Y-128350971D02*
X135460839Y-128350971D01*
X139050000Y-128447500D02*
X139050000Y-129726563D01*
X117562500Y-126575000D02*
X117437500Y-126700000D01*
X135460839Y-128350971D02*
X135550499Y-128440631D01*
X136807694Y-130084807D02*
X136954100Y-130084807D01*
X119500000Y-126575000D02*
X123218306Y-126575000D01*
X132174914Y-128350969D02*
X132174916Y-128350971D01*
X129418000Y-128350921D02*
X129418070Y-128350921D01*
%TO.N,/~{USB_BOOT}*%
X125000000Y-115175000D02*
X125000000Y-111500000D01*
X125000000Y-111500000D02*
X122400000Y-108900000D01*
X116100000Y-108900000D02*
X122400000Y-108900000D01*
%TO.N,Net-(U3-~{CS})*%
X136790000Y-127610000D02*
X136398542Y-128001458D01*
X126680000Y-126575000D02*
X127095000Y-126160000D01*
X124150000Y-125725000D02*
X124150000Y-117675000D01*
X129561433Y-128000000D02*
X127900000Y-128000000D01*
X127095000Y-127195000D02*
X127095000Y-126160000D01*
X135872388Y-127950499D02*
X135821429Y-128001458D01*
X129562892Y-128001460D02*
X129561433Y-128000000D01*
X125000000Y-126575000D02*
X124150000Y-125725000D01*
X127900000Y-128000000D02*
X127095000Y-127195000D01*
X124150000Y-117675000D02*
X125000000Y-116825000D01*
X134151458Y-128001458D02*
X134151456Y-128001460D01*
X135821429Y-128001458D02*
X134151458Y-128001458D01*
X136398542Y-128001458D02*
X136378571Y-128001458D01*
X136378571Y-128001458D02*
X136327612Y-127950499D01*
X136327612Y-127950499D02*
X135872388Y-127950499D01*
X137412500Y-127610000D02*
X136790000Y-127610000D01*
X125000000Y-126575000D02*
X126680000Y-126575000D01*
X134151456Y-128001460D02*
X129562892Y-128001460D01*
%TO.N,Net-(U5-XIN)*%
X146049501Y-126222388D02*
X145437113Y-125610000D01*
X146049501Y-126756216D02*
X146049501Y-126222388D01*
X145655218Y-127150499D02*
X146049501Y-126756216D01*
X145437113Y-125610000D02*
X144287500Y-125610000D01*
X145050499Y-127472388D02*
X145372388Y-127150499D01*
X145500000Y-129985000D02*
X145050499Y-129535499D01*
X145050499Y-129535499D02*
X145050499Y-127472388D01*
X145372388Y-127150499D02*
X145655218Y-127150499D01*
%TO.N,Net-(U5-USB_DP)*%
X137412500Y-124010000D02*
X136665716Y-124010000D01*
X136665716Y-124010000D02*
X135325000Y-122669284D01*
X135325000Y-122669284D02*
X135325000Y-122350000D01*
%TO.N,Net-(U5-USB_DM)*%
X137412500Y-123610000D02*
X136760012Y-123610000D01*
X135974520Y-122824508D02*
X135974520Y-121449520D01*
X136760012Y-123610000D02*
X135974520Y-122824508D01*
X135974520Y-121449520D02*
X135325000Y-120800000D01*
%TO.N,/SCL*%
X152325000Y-138000000D02*
X153300000Y-138975000D01*
X152225000Y-139845000D02*
X150395000Y-139845000D01*
X145200000Y-132950000D02*
X144674031Y-132424031D01*
X144674031Y-132424031D02*
X144674031Y-129774031D01*
X144674031Y-129774031D02*
X144150000Y-129250000D01*
X145200000Y-136850000D02*
X145200000Y-132950000D01*
X150395000Y-139845000D02*
X150350000Y-139800000D01*
X152605000Y-139845000D02*
X152225000Y-139845000D01*
X143900000Y-129250000D02*
X143450000Y-128800000D01*
X144150000Y-129250000D02*
X143900000Y-129250000D01*
X143450000Y-128800000D02*
X143450000Y-128447500D01*
X145600000Y-137250000D02*
X145200000Y-136850000D01*
X153300000Y-138975000D02*
X153300000Y-139150000D01*
X153300000Y-139150000D02*
X152605000Y-139845000D01*
%TO.N,/SDA*%
X153925000Y-141425000D02*
X153600000Y-141100000D01*
X144324520Y-132624520D02*
X144350000Y-132650000D01*
X144350000Y-132650000D02*
X144850000Y-133150000D01*
X152210000Y-141100000D02*
X152225000Y-141115000D01*
X150550000Y-141100000D02*
X152210000Y-141100000D01*
X152240000Y-141100000D02*
X152225000Y-141115000D01*
X144324520Y-129924520D02*
X144324520Y-132624520D01*
X144850000Y-133150000D02*
X144850000Y-136100000D01*
X143050000Y-128950000D02*
X143450000Y-129350000D01*
X143450000Y-129350000D02*
X143800000Y-129700000D01*
X144100000Y-129700000D02*
X144324520Y-129924520D01*
X143050000Y-128447500D02*
X143050000Y-128950000D01*
X144850000Y-136100000D02*
X144850000Y-137800000D01*
X154500000Y-141425000D02*
X153925000Y-141425000D01*
X144850000Y-137800000D02*
X145300000Y-138250000D01*
X143800000Y-129700000D02*
X144100000Y-129700000D01*
X153600000Y-141100000D02*
X152240000Y-141100000D01*
%TO.N,Net-(U5-GPIO9)*%
X122400000Y-121900000D02*
X121299500Y-121900000D01*
X142650000Y-128447500D02*
X142650000Y-129796623D01*
X116100000Y-121900000D02*
X120999500Y-121900000D01*
X120999500Y-121900000D02*
X121149500Y-122050000D01*
X142650000Y-129796623D02*
X142853736Y-130000359D01*
X121299500Y-121900000D02*
X121149500Y-122050000D01*
%TO.N,Net-(U5-GPIO8)*%
X116100000Y-115400000D02*
X122400000Y-115400000D01*
X123499511Y-116849511D02*
X123499511Y-120500489D01*
X122400000Y-115750000D02*
X123450000Y-116800000D01*
X123499511Y-120500489D02*
X123300000Y-120700000D01*
X142250000Y-129568532D02*
X141908545Y-129909987D01*
X123450000Y-116800000D02*
X123499511Y-116849511D01*
X142250000Y-128447500D02*
X142250000Y-129568532D01*
X122400000Y-115400000D02*
X122400000Y-115750000D01*
%TO.N,Net-(U3-DO(IO1))*%
X134006686Y-127651947D02*
X134006684Y-127651949D01*
X135676657Y-127651947D02*
X134006686Y-127651947D01*
X129707665Y-127651949D02*
X128365000Y-126309284D01*
X134006684Y-127651949D02*
X129707665Y-127651949D01*
X135727615Y-127600988D02*
X135676657Y-127651947D01*
X136667133Y-127210000D02*
X136276145Y-127600988D01*
X137412500Y-127210000D02*
X136667133Y-127210000D01*
X136276145Y-127600988D02*
X135727615Y-127600988D01*
X128365000Y-126309284D02*
X128365000Y-126160000D01*
%TO.N,Net-(U3-IO2)*%
X129852438Y-127302438D02*
X133861911Y-127302438D01*
X136572850Y-126810000D02*
X137412500Y-126810000D01*
X129635000Y-127085000D02*
X129852438Y-127302438D01*
X136131372Y-127251477D02*
X136572850Y-126810000D01*
X129635000Y-126160000D02*
X129635000Y-127085000D01*
X135582843Y-127251477D02*
X136131372Y-127251477D01*
X133861911Y-127302438D02*
X133861914Y-127302436D01*
X133861914Y-127302436D02*
X135531883Y-127302436D01*
X135531883Y-127302436D02*
X135582843Y-127251477D01*
%TO.N,Net-(U3-DI(IO0))*%
X135986600Y-126901966D02*
X133947483Y-126901966D01*
X132664357Y-126952925D02*
X131454520Y-125743087D01*
X136478567Y-126410000D02*
X135986600Y-126901966D01*
X133896524Y-126952925D02*
X133788498Y-126931320D01*
X137412500Y-126410000D02*
X136478567Y-126410000D01*
X133788498Y-126931320D02*
X133756090Y-126952925D01*
X133756090Y-126952925D02*
X132664357Y-126952925D01*
X133947483Y-126901966D02*
X133896524Y-126952925D01*
X131454520Y-125743087D02*
X131454520Y-119509520D01*
X131454520Y-119509520D02*
X130905000Y-118960000D01*
%TO.N,Net-(U3-CLK)*%
X136384284Y-126010000D02*
X135841829Y-126552455D01*
X129850000Y-117850000D02*
X129635000Y-118065000D01*
X137412500Y-126010000D02*
X136384284Y-126010000D01*
X131804031Y-125598315D02*
X131804031Y-118154031D01*
X131804031Y-118154031D02*
X131500000Y-117850000D01*
X131500000Y-117850000D02*
X129850000Y-117850000D01*
X132758171Y-126552455D02*
X131804031Y-125598315D01*
X129635000Y-118065000D02*
X129635000Y-118960000D01*
X135841829Y-126552455D02*
X132758171Y-126552455D01*
%TO.N,Net-(U3-IO3)*%
X128365000Y-118535000D02*
X129400000Y-117500000D01*
X129400000Y-117500000D02*
X131650000Y-117500000D01*
X131650000Y-117500000D02*
X132175489Y-118025489D01*
X132175489Y-118025489D02*
X132175489Y-125475489D01*
X136290000Y-125610000D02*
X137412500Y-125610000D01*
X132889088Y-126189088D02*
X135710912Y-126189088D01*
X128365000Y-118960000D02*
X128365000Y-118535000D01*
X132175489Y-125475489D02*
X132889088Y-126189088D01*
X135710912Y-126189088D02*
X136290000Y-125610000D01*
D68*
%TO.N,Net-(D7-A)*%
X134000000Y-141750000D02*
X134250000Y-142000000D01*
D69*
X129935591Y-148675000D02*
X133860591Y-144750000D01*
X127725000Y-148675000D02*
X129935591Y-148675000D01*
X134000000Y-144750000D02*
X134250000Y-144500000D01*
D68*
X136537500Y-143000000D02*
X136537500Y-140687500D01*
D64*
X145085000Y-142385000D02*
X143600000Y-140900000D01*
X147275000Y-142385000D02*
X145085000Y-142385000D01*
D68*
X135350000Y-140400000D02*
X136750000Y-139000000D01*
X136537500Y-143000000D02*
X135250000Y-143000000D01*
D64*
X143600000Y-140900000D02*
X138637500Y-140900000D01*
D69*
X120225000Y-148675000D02*
X127725000Y-148675000D01*
D68*
X136537500Y-139212500D02*
X136750000Y-139000000D01*
D64*
X138637500Y-140900000D02*
X136537500Y-143000000D01*
D68*
X134000000Y-140400000D02*
X134000000Y-141750000D01*
X134000000Y-140400000D02*
X135350000Y-140400000D01*
D69*
X133860591Y-144750000D02*
X134000000Y-144750000D01*
D68*
X136537500Y-140687500D02*
X136537500Y-139212500D01*
D69*
X134250000Y-144500000D02*
X134250000Y-142000000D01*
D64*
X136575000Y-140650000D02*
X136537500Y-140687500D01*
D68*
X135250000Y-143000000D02*
X134250000Y-142000000D01*
D65*
%TO.N,Net-(Q2-S)*%
X133175000Y-168750000D02*
X133175000Y-168325000D01*
D67*
X129000000Y-157500000D02*
X130005000Y-156495000D01*
X117720000Y-160050000D02*
X117720000Y-158780000D01*
X117720000Y-158780000D02*
X119000000Y-157500000D01*
X122505000Y-154975000D02*
X122505000Y-156995000D01*
D65*
X134793756Y-165721244D02*
X134830000Y-165685000D01*
D67*
X119000000Y-157500000D02*
X122000000Y-157500000D01*
D65*
X126700000Y-160900000D02*
X126120000Y-160900000D01*
X136185000Y-165685000D02*
X134830000Y-165685000D01*
X126120000Y-160900000D02*
X125195000Y-159975000D01*
X133175000Y-168325000D02*
X133750000Y-167750000D01*
X136000000Y-167750000D02*
X136500000Y-167250000D01*
X136500000Y-167250000D02*
X136500000Y-166000000D01*
X136500000Y-166000000D02*
X136185000Y-165685000D01*
D67*
X124750000Y-157500000D02*
X129000000Y-157500000D01*
D65*
X133750000Y-167750000D02*
X136000000Y-167750000D01*
X141325000Y-168750000D02*
X142250000Y-168750000D01*
D67*
X125195000Y-157945000D02*
X124750000Y-157500000D01*
D65*
X133431885Y-165721244D02*
X134793756Y-165721244D01*
D67*
X125195000Y-159975000D02*
X125195000Y-157945000D01*
X130005000Y-156495000D02*
X130005000Y-154975000D01*
X122505000Y-156995000D02*
X122000000Y-157500000D01*
X122000000Y-157500000D02*
X124750000Y-157500000D01*
D64*
%TO.N,/Thermistor*%
X139850000Y-121572500D02*
X139850000Y-120756335D01*
X148625000Y-122275000D02*
X148000000Y-122900000D01*
X139850000Y-120756335D02*
X139051426Y-119957761D01*
X148625000Y-122250000D02*
X148625000Y-122275000D01*
X148625000Y-122250000D02*
X149300000Y-122250000D01*
X149300000Y-122250000D02*
X149359300Y-122190700D01*
%TD*%
M02*
