%TF.GenerationSoftware,KiCad,Pcbnew,(6.99.0-874-g7b84e0a7d9-dirty)*%
%TF.CreationDate,2022-02-14T21:42:15-05:00*%
%TF.ProjectId,MotorcycleBatterIsolator,4d6f746f-7263-4796-936c-654261747465,rev?*%
%TF.SameCoordinates,Original*%
%TF.FileFunction,Soldermask,Bot*%
%TF.FilePolarity,Negative*%
%FSLAX46Y46*%
G04 Gerber Fmt 4.6, Leading zero omitted, Abs format (unit mm)*
G04 Created by KiCad (PCBNEW (6.99.0-874-g7b84e0a7d9-dirty)) date 2022-02-14 21:42:15*
%MOMM*%
%LPD*%
G01*
G04 APERTURE LIST*
%TA.AperFunction,Profile*%
%ADD10C,0.160000*%
%TD*%
%ADD11C,5.600000*%
%ADD12C,0.650000*%
%ADD13O,1.000000X2.100000*%
%ADD14O,1.000000X1.600000*%
%ADD15O,3.270000X6.230000*%
%ADD16C,2.500000*%
%ADD17R,1.600000X1.600000*%
%ADD18C,1.600000*%
%ADD19R,1.700000X1.700000*%
%ADD20O,1.700000X1.700000*%
%ADD21C,0.990600*%
G04 APERTURE END LIST*
D10*
X100518000Y-132657000D02*
X100518000Y-140910000D01*
X97268000Y-144160000D02*
X89268000Y-144160000D01*
X86018000Y-147410000D02*
X86018000Y-159690000D01*
X89268000Y-162940000D02*
X100750000Y-162940000D01*
X104000000Y-166190000D02*
X104000000Y-167750000D01*
X107250000Y-171000000D02*
X159850000Y-171000000D01*
X163100000Y-167750000D02*
X163100000Y-166750000D01*
X163100000Y-166750000D02*
X163100000Y-146610000D01*
X161100000Y-144610000D02*
X160250000Y-144610000D01*
X157000000Y-141360000D02*
X157000000Y-132000000D01*
X158000000Y-131000000D02*
G75*
G03*
X158000000Y-123000000I0J4000000D01*
G01*
X157000000Y-122000000D02*
X157000000Y-106000000D01*
X153750000Y-102750000D02*
X148250000Y-102750000D01*
X138000000Y-102750000D02*
X116250000Y-102750000D01*
X113000000Y-106000000D02*
X113000000Y-117500000D01*
X110373000Y-120690000D02*
G75*
G03*
X100518000Y-132657000I2337159J-11966053D01*
G01*
X158000000Y-131000000D02*
G75*
G03*
X157000000Y-132000000I365J-1000365D01*
G01*
X157000000Y-141360000D02*
G75*
G03*
X160250000Y-144610000I3250331J331D01*
G01*
X163100000Y-146610000D02*
G75*
G03*
X161100000Y-144610000I-2000729J-729D01*
G01*
X157000000Y-122000000D02*
G75*
G03*
X158000000Y-123000000I1000365J365D01*
G01*
X157000000Y-106000000D02*
G75*
G03*
X153750000Y-102750000I-3250331J-331D01*
G01*
X116250000Y-102750000D02*
G75*
G03*
X113000000Y-106000000I331J-3250331D01*
G01*
X110373000Y-120690000D02*
G75*
G03*
X113000000Y-117500000I-623095J3189807D01*
G01*
X97268000Y-144160000D02*
G75*
G03*
X100518000Y-140910000I-331J3250331D01*
G01*
X89268000Y-144160000D02*
G75*
G03*
X86018000Y-147410000I-1375J-3248625D01*
G01*
X86018000Y-159690000D02*
G75*
G03*
X89268000Y-162940000I3248625J-1375D01*
G01*
X104000000Y-166190000D02*
G75*
G03*
X100750000Y-162940000I-3250331J-331D01*
G01*
X104000000Y-167750000D02*
G75*
G03*
X107250000Y-171000000I3250331J331D01*
G01*
X159850000Y-171000000D02*
G75*
G03*
X163100000Y-167750000I-331J3250331D01*
G01*
X138000000Y-102750000D02*
G75*
G03*
X148250000Y-102750000I5125000J6835000D01*
G01*
D11*
%TO.C,H4*%
X108000000Y-127000000D03*
%TD*%
D12*
%TO.C,J5*%
X133140000Y-109100000D03*
X127360000Y-109100000D03*
D13*
X134569999Y-109629999D03*
D14*
X134569999Y-105449999D03*
D13*
X125929999Y-109629999D03*
D14*
X125929999Y-105449999D03*
%TD*%
D15*
%TO.C,J1*%
X114117499Y-157499999D03*
X106197499Y-157499999D03*
X114117499Y-149599999D03*
X106197499Y-149599999D03*
D16*
X88017500Y-160940000D03*
X88017500Y-146160000D03*
%TD*%
D11*
%TO.C,H2*%
X153000000Y-106000000D03*
%TD*%
D17*
%TO.C,BZ1*%
X107749999Y-136249999D03*
D18*
X114250000Y-136250000D03*
%TD*%
D11*
%TO.C,H3*%
X158000000Y-167000000D03*
%TD*%
%TO.C,H5*%
X158000000Y-127000000D03*
%TD*%
D19*
%TO.C,TH1*%
X151874999Y-111474999D03*
D20*
X151874999Y-114014999D03*
%TD*%
D15*
%TO.C,J4*%
X134999999Y-150049999D03*
X142919999Y-150049999D03*
X134999999Y-157949999D03*
X142919999Y-157949999D03*
D16*
X161100000Y-146610000D03*
X161100000Y-161390000D03*
%TD*%
D11*
%TO.C,H1*%
X108000000Y-167000000D03*
%TD*%
D21*
%TO.C,J3*%
X153000000Y-123100000D03*
X151984000Y-118020000D03*
X154016000Y-118020000D03*
%TD*%
M02*
